<svg width="1122.52" height="793.701" viewBox="0 0 297 210" xmlns="http://www.w3.org/2000/svg" xmlns:xlink="http://www.w3.org/1999/xlink" stroke-linecap="round" stroke-linejoin="round" fill="none" fill-rule="evenodd" overflow="hidden"><defs></defs><g><g id="Actor_.0"><g stroke="#000000" stroke-width="0.353"><path d="M160.27 52.77 160.34 53.19 160.75 53.54 160.78 53.55 161.46 53.8 162.38 53.94 163.41 53.93 164.46 53.79 165.39 53.52 166.12 53.16 166.56 52.75 166.66 52.32"/><path d="M160.79 53.9 161.49 54.16 162.41 54.3 163.45 54.3 164.49 54.15 165.43 53.89 166.15 53.53 166.59 53.11"/><path d="M162.77 61.09 163.14 61.23 163.62 61.3 164.17 61.3 164.72 61.22 165.21 61.08 165.29 61.04"/><path d="M162.17 54.86 162.54 55 162.57 55 163.04 55.07 163.6 55.07 164.16 54.99 164.66 54.85 165.05 54.65 165.28 54.43"/><path d="M165.27 54.44 165.26 54.5 165.03 54.72 164.64 54.91 164.15 55.05 163.6 55.13 163.06 55.13 162.57 55.06 162.2 54.92 161.99 54.73"/><path d="M162.21 52.6 163.16 52.17 164.42 52.22 164.72 52.71"/><path d="M163.25 53.12 163.16 52.17"/><path d="M164.42 52.22 164.47 52.82"/></g><g stroke="#000000" stroke-width="0.353"><path d="M165.3 61.16 165.04 61.29 164.64 61.4 164.2 61.46 163.75 61.46 163.36 61.41 163.06 61.3 162.77 61.09 162.55 60.91 162.51 60.69 161.97 54.72 160.79 53.9 160.38 53.55 160.31 53.13 160.27 52.77 160.55 52.34 161.14 51.95 161.98 51.63 162.99 51.43 164.04 51.35 165.04 51.42 165.86 51.62 166.42 51.93 166.66 52.32 166.7 52.68 166.59 53.11 165.28 54.43 165.27 54.45 165.26 54.47"/><path d="M161.97 54.72 162.17 54.86"/><path d="M164.72 52.71 163.77 53.14 163.02 53.11 162.51 53.08 162.21 52.6"/><path d="M165.85 60.21 165.32 54.39"/></g></g><g id="Actor_.1"><g stroke="#000000" stroke-width="0.353"><path d="M148.17 59.31 148.24 59.73 148.65 60.08 149.35 60.34 150.27 60.48 151.31 60.48 152.35 60.33 153.29 60.07 154.02 59.71 154.46 59.29 154.56 58.86"/><path d="M154.49 59.65 154.05 60.07 153.32 60.43 152.39 60.69 151.34 60.84 150.3 60.84 149.38 60.71 148.68 60.45"/><path d="M150.66 67.63 151.03 67.77 151.51 67.84 152.06 67.84 152.61 67.77 153.1 67.63 153.49 67.44 153.72 67.22"/><path d="M150.06 61.4 150.44 61.54 150.46 61.54 150.93 61.61 151.49 61.61 152.05 61.53 152.55 61.39 152.94 61.19 153.18 60.97"/><path d="M153.17 60.99 153.15 61.04 152.92 61.26 152.54 61.45 152.05 61.59 151.5 61.67 150.95 61.67 150.47 61.6 150.1 61.46 149.88 61.27"/><path d="M150.1 59.14 151.06 58.71 151.14 59.66"/><path d="M151.06 58.71 152.31 58.76 152.62 59.25"/><path d="M152.31 58.76 152.37 59.36"/></g><g stroke="#000000" stroke-width="0.353"><path d="M150.06 61.4 148.68 60.45 148.27 60.09 148.2 59.68 148.17 59.31 148.44 58.89 149.03 58.49 149.88 58.17 150.88 57.97 151.94 57.89 152.93 57.96 153.75 58.16 154.32 58.47 154.56 58.86 154.59 59.22 154.49 59.65 153.18 60.97 153.16 60.99 153.15 61.02"/><path d="M153.22 60.93 153.77 66.99 153.72 67.22 153.44 67.5 153.25 67.67 152.94 67.83 152.54 67.94 152.09 68 151.65 68.01 151.25 67.95 150.95 67.84 150.66 67.63 150.44 67.45 150.41 67.23 149.86 61.26"/><path d="M150.1 59.14 150.4 59.63 151.66 59.68 152.62 59.25"/></g></g><g id="Actor_.2"><g stroke="#000000" stroke-width="0.353"><path d="M159.35 108.16 159.29 107.53 158.86 107.18 158.15 106.91 157.25 106.76 156.23 106.73 155.17 106.83 151.85 101.5"/><path d="M155.17 106.83 155.43 109.64"/><path d="M159.29 107.53 179.69 104.04"/><path d="M164.38 102.13 164.4 101.65 164.81 101.17 165.57 100.75 166.59 100.42 166.84 103.08"/><path d="M166.59 100.42 167.09 100.27 167.51 100.08 167.8 99.86 168.1 103.05"/><path d="M167.8 99.86 173.65 94.23 173.98 97.75"/><path d="M171.21 100.69 171.33 100.9 171.4 101.7"/><path d="M171.33 100.9 171.54 101.36"/><path d="M173.65 94.23 173.82 94 173.84 93.77"/><path d="M173.51 93.1 173.7 92.62 174.18 92.22 174.27 92.15 175.14 91.76 176.24 91.49 177.43 91.36 178.59 91.39 179.59 91.58 180.31 91.91 180.68 92.33"/><path d="M178.95 101.91 179.29 99.69 180.7 97.46 183.12 95.3 183.5 99.43"/><path d="M184.04 53.07 183.67 48.94 181.4 47.59 180.11 46 179.86 44.25"/><path d="M182.51 40.69 182.51 40.71"/><path d="M183.12 95.3 193.08 88.11 193.46 92.24"/><path d="M188.63 52.88 187.09 50.98 183.67 48.94"/><path d="M184.36 46.13 184.02 42.45 183.23 44.09"/><path d="M184.02 42.45 184.4 42.14 184.98 41.89 185.71 41.73 186.49 41.66 187.23 41.7 187.84 41.85 188.17 45.47"/><path d="M189.21 47.42 189.11 46.26 188.72 46.47 188.5 46.71 188.47 46.95"/><path d="M187.84 41.85 189.61 42.52 189.81 44.62"/><path d="M189.11 46.26 190.37 45.72 190.53 47.48"/><path d="M189.61 42.52 189.99 42.72 190.16 42.97"/><path d="M192.92 41.76 192.76 40.03 192.3 39.92 191.74 39.87 191.15 39.9 190.57 40.01 190.06 40.17 189.68 40.39 189.46 40.63 189.42 40.87"/><path d="M190.37 45.72 190.88 45.55 191.46 45.45 192.06 45.42 192.61 45.46 193.07 45.58 193.39 45.75 193.54 45.98"/><path d="M191.63 38.01 191.66 37.73 191.89 37.45 192.31 37.2 192.44 38.56"/><path d="M193.08 88.11 196.42 85.25 197.31 84.06"/><path d="M192.76 40.03 193.88 40.45 193.96 41.4"/><path d="M192.31 37.2 197.63 35.09 198.01 39.22"/><path d="M193.83 51.09 194.24 48.46 194.47 50.98"/><path d="M194.24 48.46 194.47 48.03 195.01 47.63 195.09 47.59 195.8 47.29 196.77 47.05 197.82 46.93 198.85 46.94 199.76 47.08 200.46 47.35 200.88 47.7 200.98 48.11"/><path d="M193.33 43.66 193.63 42.98 194.45 42.34 195.69 41.8 197.23 41.43 198.28 41.32 198.89 41.26 200.5 41.3 201.88 41.57 202.88 42.02 203.4 42.62"/><path d="M193.88 40.45 194.2 40.63 194.34 40.85"/><path d="M197.63 35.09 198.64 34.82 199.74 34.69 200.82 34.71 201.76 34.87 202.14 39"/><path d="M201.76 34.87 206.5 36.47 206.6 37.53"/><path d="M202.57 61.04 202.48 61.59"/><path d="M202.44 45.75 202.47 45.51 202.7 45.27 203.08 45.06 203.58 44.9 204.16 44.79 204.76 44.76 205.32 44.81 205.78 44.92 205.93 46.65"/><path d="M211.95 51.63 211.57 47.5 207.44 49.93 204.69 52.58 203.77 54.63"/><path d="M203.99 41.1 203.88 39.94 203.5 40.15 203.28 40.39 203.24 40.63"/><path d="M205.31 41.16 205.15 39.39 203.88 39.94"/><path d="M205.15 39.39 205.65 39.23 206.23 39.12 206.83 39.09 207.39 39.14 207.85 39.26 208.17 39.43 208.32 39.65"/><path d="M205.78 44.92 206.89 45.34 206.98 46.29"/><path d="M206.5 36.47 206.85 36.68 207 36.94"/><path d="M206.89 45.34 207.21 45.52 207.36 45.74"/><path d="M206.69 43.73 206.65 43.35 206.81 42.39 206.95 43.97"/><path d="M206.62 43.63 206.65 43.35"/><path d="M207.81 44.33 207.56 41.59 207.12 41.84 206.86 42.11 206.81 42.39"/><path d="M207.56 41.59 209.58 40.73 209.95 44.86"/><path d="M209.58 40.73 210.24 40.51 211.01 40.39 211.78 40.38 212.46 40.47 212.98 40.67 213.27 40.93 213.55 42.52"/><path d="M211.57 47.5 214.3 45.89 216.12 44.14 216.92 42.34"/><path d="M213.44 42.76 213.27 40.93"/></g><g stroke="#000000" stroke-width="0.353"><path d="M174.35 87.98 168.79 91.99 167.03 93.53 165.9 95.11 164.17 98.59 163.85 98.97 163.28 99.32 162.53 99.61 161.64 99.82 151.85 101.5 151.91 102.18"/><path d="M164.38 102.13 164.74 102.56 165.46 102.88 166.46 103.07 167.62 103.1 168.81 102.97 169.91 102.7 170.78 102.31 171.35 101.84 171.54 101.36"/><path d="M169.39 102.82 171.24 101.05"/><path d="M180.68 92.33 180.65 92.81 180.24 93.29 179.48 93.71 177.96 94.19 177.55 94.38 177.25 94.6 171.4 100.23 171.23 100.46 171.21 100.69 171.31 101.87"/><path d="M173.51 93.1 173.72 93.56 173.84 93.77 174.19 97.54"/><path d="M174.11 96.72 174.64 96.29 175.52 95.89 176.03 95.77"/><path d="M200.02 83.59 199.02 86.42 196.79 89.38 193.46 92.24 183.5 99.43 181.08 101.59 179.67 103.83 179.65 103.94"/><path d="M179.7 104.17 179.69 104.04 178.95 101.91"/><path d="M184.85 53.55 181.78 51.72 180.49 50.13 180.24 48.38 179.86 44.25 180.68 42.45 182.51 40.69 186.23 38.31 190.67 36.1 195.74 34.12 197.75 33.59 199.96 33.34 202.12 33.37 204 33.69 208.52 35.18 212.33 36.96 215.36 39 216.67 40.59 216.92 42.34 217.3 46.47 216.5 48.27 214.68 50.02 207.82 54.06 205.07 56.71"/><path d="M190.16 42.97 189.93 44.49 189.66 44.77 189.22 45.01 187.21 45.88 186.54 46.09 185.78 46.21 185 46.22 184.32 46.13 183.8 45.94 183.51 45.67 183.23 44.09"/><path d="M187.35 45.82 186.87 45.79 186.09 45.86 185.36 46.03 184.92 46.21"/><path d="M193.54 45.98 193.5 46.22 193.28 46.45 192.9 46.67 191.63 47.21 191.13 47.38 190.55 47.48 189.95 47.51 189.4 47.47 188.94 47.35 188.61 47.17 188.47 46.95"/><path d="M194.34 40.85 194.31 41.09 194.09 41.33 193.71 41.54 193.2 41.71 192.96 41.75 192.62 41.81 192.02 41.84 191.47 41.8 190.93 41.65 189.89 41.26 189.57 41.09 189.42 40.87"/><path d="M191.63 38.01 191.81 38.26 192.18 38.46 195.86 39.84 196.4 39.98 197.04 40.03 200.8 39.84 201.47 39.72 202.06 39.52 206.24 37.73 206.68 37.49 206.94 37.21 207 36.94"/><path d="M193.33 43.66 193.58 44.3 194.35 44.83 194.99 45.02 195.56 45.19 197.07 45.35 198.73 45.29 199.56 45.18 200.35 45.01 200.54 44.95 201.76 44.55 202.81 43.95 203.37 43.28 203.4 42.62"/><path d="M202.77 39.22 202.14 39 201.2 38.84 200.12 38.83 199.02 38.95 198.01 39.22 196.21 39.93"/><path d="M200.98 48.12 200.52 51.01"/><path d="M202.44 45.75 202.59 45.97 202.91 46.15 204.02 46.57 204.48 46.69 205.04 46.73 205.64 46.7 206.22 46.6 206.72 46.43 207.1 46.22 207.32 45.98 207.36 45.74"/><path d="M208.32 39.65 208.28 39.89 208.06 40.13 207.68 40.34 206.41 40.89 205.91 41.05 205.33 41.16 204.73 41.19 204.17 41.14 203.71 41.03 203.39 40.85 203.24 40.63"/><path d="M213.55 42.52 212.76 44.16 212.39 44.46 211.8 44.71 211.07 44.88 210.29 44.94 209.55 44.9 208.94 44.75 207.17 44.09 206.8 43.88 206.62 43.63"/><path d="M209.81 44.92 209.95 44.86 210.62 44.64 211.38 44.52 212.16 44.51 212.24 44.52"/></g></g><g id="Actor_.3"><g stroke="#000000" stroke-width="0.353"><path d="M7.86 78.66 8.89 81.12 10.82 83.42 11.2 87.55"/><path d="M10.82 83.42 12.94 84.82 15.91 85.9 16.29 85.97 19.59 86.61 23.75 86.91 28.16 86.77 28.54 90.9"/><path d="M11.31 78.62 11.13 75.96 11.38 78.71"/><path d="M11.13 75.96 11.12 75.91 11.36 75.46 11.94 75.04 12.8 74.69 13.83 74.45 14.21 78.59"/><path d="M13.83 74.45 20.62 73.62 21 77.75"/><path d="M15.1 83.15 15.32 82.83 15.77 82.55 16.42 82.32 17.18 82.19 17.38 84.43"/><path d="M17.43 81.26 17.3 79.75 16.71 79.85 16.2 80.01 15.81 80.22 15.57 80.46 15.52 80.7"/><path d="M17.18 82.19 19.86 81.91 20.15 85.09"/><path d="M19.12 81.09 18.98 79.57 17.3 79.75"/><path d="M18.98 79.57 19.57 79.55 20.13 79.6 20.58 79.72 20.89 79.9 21.02 80.12"/><path d="M19.86 81.91 20.55 81.88 21.19 81.94 21.72 82.07 22.02 85.36"/><path d="M23.17 76.85 22.94 74.28 22.79 74.02 22.44 73.81 21.93 73.67 21.3 73.6 20.62 73.62"/><path d="M21.72 82.07 23.54 82.56 23.75 85.1"/><path d="M33.1 78.69 32.58 78.1 31.58 77.65 30.2 77.38 28.59 77.33 26.93 77.51 25.39 77.88 24.15 78.42 23.33 79.06 23.03 79.74"/><path d="M23.34 76.46 22.94 74.28"/><path d="M24.67 84.5 24.55 83.17 24.39 82.91 24.04 82.7 23.54 82.56"/><path d="M24.55 83.17 24.74 84.22"/><path d="M29.32 75.84 29.25 74.99 29.11 74.77 28.8 74.58 28.35 74.46 27.8 74.41 27.2 74.44 26.62 74.54 26.47 74.58 26.11 74.7 25.71 74.91 25.48 75.15 25.43 75.39"/><path d="M26.82 83.11 26.88 82.87 27.11 82.63 27.5 82.42 28.01 82.26 28.6 82.16 29.19 82.13 29.74 82.18 30.2 82.31 30.5 82.49 30.64 82.71 30.72 83.56"/><path d="M28.16 86.77 34.84 86.57 41.13 87.02 46.7 88.09 47.08 92.22"/><path d="M29.25 74.99 29.36 75.65"/><path d="M30.64 82.71 30.76 83.37"/><path d="M34.98 76.82 34.67 73.42 33.92 73.39 33.14 73.47 32.43 73.65 31.87 73.91 31.53 74.22 31.45 74.54"/><path d="M34.08 82.04 34.34 81.61 34.89 81.21 35.7 80.87 36.68 80.64 37.73 80.53 38.76 80.55 39.66 80.71 39.99 84.36"/><path d="M37.08 79.19 36.94 77.68 36.36 77.78 35.84 77.95 35.45 78.16 35.22 78.39 35.16 78.64"/><path d="M34.67 73.42 38.05 74.04 40.72 75.04 40.81 75.96"/><path d="M38.76 79.02 38.62 77.51 36.94 77.68"/><path d="M40.66 78.06 40.53 77.84 40.22 77.65 39.77 77.53 39.22 77.48 38.62 77.51"/><path d="M39.66 80.71 49.86 83.45 50.03 85.39"/><path d="M40.72 75.04 41.04 75.3 41.09 75.61"/><path d="M46.7 88.09 80.1 97.07"/><path d="M49.86 83.45 50.54 83.72 50.93 84.08 51.01 84.49"/><path d="M103.05 107.27 102.68 103.14 98.22 101.94"/><path d="M102.68 103.14 108.52 104.4 108.9 108.53"/><path d="M108.52 104.4 119.3 106.22 119.68 110.36"/><path d="M117.77 102.55 118.03 102.07 118.67 101.61 119.6 101.24 120.72 100.99 121.92 100.9 123.05 100.96 124 101.18 124.66 101.52 124.95 101.96 125.18 104.46"/><path d="M119.3 106.22 123.73 107.23 127.34 108.59 130.11 110.27 131.9 112.21 132.28 116.35"/><path d="M124.95 101.96 125.07 102.18 125.33 102.36 125.7 102.5 125.9 104.65"/><path d="M125.7 102.5 136.62 105.51 136.89 108.45"/><path d="M131.9 112.21 152.29 108.72"/><path d="M136.62 105.51 137.09 105.6 137.63 105.64 138.2 105.62 138.46 108.44"/><path d="M138.2 105.62 139.39 105.58 140.46 105.71 141.3 105.99 141.8 106.37 141.95 106.84"/><path d="M152.25 108.31 152.52 107.88 153.08 107.47 153.87 107.13 154.84 106.88"/></g><g stroke="#000000" stroke-width="0.353"><path d="M83.11 101.91 47.08 92.22 41.51 91.15 35.21 90.7 24.13 91.04 19.96 90.74 16.29 90.03 13.31 88.95 11.2 87.55 9.27 85.25 8.24 82.79 7.86 78.66 7.75 76.09 8.24 75.19 9.39 74.35 11.1 73.66 13.17 73.19 19.58 72.37 26.03 71.93 32.38 71.85 36.56 72.14 40.24 72.85 43.23 73.93 45.35 75.32 48.2 79.4 51.4 81.51 55.91 83.15 74.56 88.16"/><path d="M11.31 78.62 11.49 78.87 11.86 79.07 12.38 79.2 13.02 79.26 13.7 79.23 19.27 78.64 19.94 78.53 20.54 78.34 23.01 77.02 23.28 76.74 23.34 76.46"/><path d="M21.69 77.73 21 77.75 14.21 78.59 13.17 78.82 12.3 79.18"/><path d="M15.1 83.15 15.15 83.46 15.47 83.72 18.14 84.72 21.52 85.34 22.27 85.37 23.05 85.29 23.76 85.1 24.32 84.84 24.66 84.54 24.74 84.22"/><path d="M15.52 80.7 15.66 80.92 15.97 81.1 16.42 81.23 16.97 81.28 17.57 81.25 19.25 81.07 19.83 80.97 20.35 80.81 20.74 80.6 20.97 80.37 21.02 80.12"/><path d="M33.1 78.69 33.08 79.36 32.51 80.03 31.46 80.63 31.14 80.73 30.05 81.09 29.26 81.25 28.43 81.37 26.77 81.43 25.26 81.27 24.05 80.9 23.28 80.37 23.03 79.74"/><path d="M29.36 75.65 29.31 75.89 29.08 76.13 28.69 76.34 28.18 76.5 27.59 76.6 27 76.63 26.44 76.57 25.99 76.45 25.68 76.27 25.55 76.05 25.43 75.39"/><path d="M26.82 83.11 26.95 83.78 27.08 83.99 27.39 84.17 27.84 84.3 28.39 84.35 28.99 84.32 29.57 84.22 30.08 84.06 30.47 83.85 30.71 83.61 30.76 83.37"/><path d="M31.45 74.54 31.64 75.59 31.8 75.85 32.15 76.06 35 76.82 35.64 76.88 36.33 76.85 39.01 76.57 39.77 76.43 40.41 76.21 40.53 76.14 40.87 75.92 41.09 75.61"/><path d="M34.08 82.04 34.16 82.45 34.55 82.81 35.23 83.08 45.43 85.82 46.33 85.97 47.35 86 48.41 85.89 49.39 85.65 50.2 85.32 50.75 84.92 51.01 84.49"/><path d="M35.16 78.64 35.3 78.86 35.61 79.04 36.06 79.16 36.61 79.21 37.21 79.19 38.89 79.01 39.48 78.91 39.99 78.75 40.38 78.54 40.61 78.3 40.66 78.06"/><path d="M132.34 116.33 132.28 116.35 130.49 114.4 127.72 112.72 124.07 111.35 119.68 110.36 108.9 108.53 103.05 107.27 88.89 103.46"/><path d="M117.77 102.55 117.9 103.02 118.41 103.41 119.25 103.68 120.32 103.81 122.08 103.75 122.62 103.79 123.09 103.88 134.01 106.89 134.39 107.03 134.64 107.22 135.05 107.87 135.71 108.22 136.66 108.44 137.8 108.5 138.99 108.4 140.12 108.15 141.05 107.78 141.68 107.33 141.95 106.84"/><path d="M155.09 109.63 154.84 106.88 151.52 101.55 141.73 103.23 140.78 103.33 139.85 103.33 139 103.22 138.31 103.02 133 100.74 130.31 99.81 127.16 99.12 118.18 97.6"/><path d="M152.25 108.31 152.3 108.86"/></g></g><g id="Actor_.4"><g stroke="#000000" stroke-width="0.353"><path d="M68.26 78.03 67.98 74.94 67.85 74.25"/><path d="M67.98 74.94 83 99.09 83.67 99.69 84.81 100.14 86.31 100.39 88.02 100.43 89.77 100.24 90.06 103.34"/><path d="M75.35 73.74 75.15 73.52 74.77 73.34 74.25 73.24 73.64 73.23 73.02 73.29 72.44 73.43 71.96 73.64 71.66 73.88 71.54 74.13"/><path d="M72.99 77.05 73.07 76.9 73.25 76.77 73.52 76.66 73.85 76.58 74.02 78.43"/><path d="M74.8 79.96 74.88 79.82 75.07 79.69 75.34 79.57 75.66 79.5 75.83 81.35"/><path d="M73.85 76.58 106.15 71.05 106.34 73.09"/><path d="M75.66 79.5 113.44 73.03 113.63 75.07"/><path d="M76.05 72.99 75.87 72.52 76.09 72.01 76.7 71.53 77.63 71.13 78.77 70.85 80.01 70.73 81.21 70.76 82.23 70.96 82.98 71.3 83.37 71.74 83.35 72.23 82.92 72.73"/><path d="M77.65 84.26 77.48 82.41 77.15 82.49 76.88 82.6 76.7 82.74 76.61 82.88"/><path d="M77.48 82.41 119.64 75.2 119.82 77.24"/><path d="M78.14 73.72 78.3 73.59 78.77 73.39 79.35 73.25 79.98 73.18 80.59 73.2 81.11 73.3 81.39 73.43"/><path d="M79.46 87.18 79.29 85.33 78.96 85.41 78.69 85.52 78.51 85.65 78.43 85.79"/><path d="M80.24 88.71 80.32 88.57 80.51 88.43 80.78 88.32 81.1 88.24 81.27 90.1"/><path d="M79.29 85.33 124.19 77.64 124.37 79.68"/><path d="M81.1 88.24 123.26 81.03 123.45 83.07"/><path d="M82.05 91.62 82.14 91.48 82.32 91.35 82.59 91.24 82.92 91.16 83.09 93.01"/><path d="M83.29 102.19 83 99.09"/><path d="M82.92 91.16 120.7 84.69 120.88 86.73"/><path d="M84.9 95.93 84.73 94.07 117.03 88.54 117.22 90.59"/><path d="M84.73 94.07 84.4 94.15 84.13 94.26 83.95 94.4 83.87 94.54"/><path d="M90.39 98.02 90.3 97.78 90.01 97.58 89.55 97.44 88.98 97.38 88.35 97.4 87.74 97.51 87.21 97.68 86.81 97.91 86.6 98.16 86.59 98.41"/><path d="M89.77 100.24 99.12 98.64 99.4 101.74"/><path d="M92.09 98.61 91.71 98.17 91.73 97.67 92.14 97.18 92.93 96.73 93.98 96.38 95.19 96.18 96.42 96.13 97.55 96.25 98.45 96.52 99.02 96.91 99.21 97.39 98.98 97.89"/><path d="M93.9 99.14 94.32 98.89 94.85 98.71 95.46 98.61 96.09 98.59 96.66 98.65 97.12 98.78 97.19 98.83"/><path d="M99.12 98.64 99.67 98.51 100.15 98.34 100.52 98.13 100.76 97.9 101.04 101"/><path d="M100.76 97.9 101 97.66 101.37 97.45 101.85 97.28 102.4 97.16 102.68 100.25"/><path d="M102.4 97.16 147.84 89.38 148.12 92.48"/><path d="M110.13 67.7 105.75 68.45 105.61 68.33 105.39 68.24 105.08 68.19 104.74 68.18 104.39 68.22 104.07 68.3 103.8 68.41 103.61 68.54 103.53 68.69"/><path d="M105.88 69.89 105.75 68.45"/><path d="M106.15 71.05 106.94 70.97 107.71 70.98 108.39 71.1 108.9 71.3 108.97 71.36 109.2 71.57 109.26 71.88"/><path d="M106.36 69.52 106.33 69.39"/><path d="M112.45 68.76 112.32 67.32 112.18 67.2 111.95 67.12 111.66 67.06 111.31 67.06 110.96 67.09 110.64 67.17 110.37 67.28 110.18 67.42 110.1 67.56"/><path d="M112.32 67.32 112.9 68.26 112.91 68.42"/><path d="M113.44 73.03 114.23 72.95 115 72.96 115.68 73.07 116.19 73.28 116.49 73.55 116.55 73.86"/><path d="M112.9 68.26 112.92 68.4"/><path d="M114.64 68.71 114.45 68.24 114.68 67.73 115.29 67.25 116.21 66.85 117.36 66.57 118.59 66.45 119.79 66.48 120.82 66.68 121.57 67.02 121.95 67.46 121.93 67.95 121.51 68.45"/><path d="M117.03 88.54 117.82 88.46 118.59 88.48 119.27 88.59 119.78 88.79 120.08 89.06 120.14 89.37"/><path d="M117.2 70.75 117.3 70.52 117.57 70.3 117.98 70.12 118.5 70 118.65 71.6"/><path d="M119.98 69.15 119.7 69.02 119.17 68.92 118.57 68.9 117.94 68.97 117.36 69.11 116.89 69.31 116.72 69.44"/><path d="M118 91.95 118.08 91.8 118.26 91.67 118.53 91.56 118.86 91.48 119.21 91.44 119.55 91.45 119.85 91.5 120.09 91.6 120.21 91.71 120.34 93.15"/><path d="M118.5 70 128.02 68.37 128.3 71.46"/><path d="M120.21 91.71 124.59 90.96"/><path d="M119.64 75.2 120.43 75.11 121.19 75.13 121.87 75.24 122.38 75.44 122.68 75.71 122.74 76.02"/><path d="M120.8 92.65 120.82 92.78"/><path d="M120.7 84.69 121.49 84.61 122.25 84.62 122.93 84.74 123.44 84.94 123.74 85.21 123.8 85.52"/><path d="M123.26 81.03 124.05 80.94 124.82 80.96 125.49 81.07 126.01 81.27 126.31 81.54 126.37 81.85"/><path d="M124.57 90.82 124.65 90.68 124.83 90.55 125.1 90.43 125.43 90.36 125.78 90.32 126.12 90.33 126.42 90.38 126.66 90.48 126.78 90.59 126.92 92.02"/><path d="M124.19 77.64 124.98 77.56 125.75 77.57 126.42 77.69 126.93 77.89 127.23 78.16 127.29 78.47"/><path d="M127.36 74.11 127.33 73.77 126.81 73.9 126.39 74.08 126.12 74.3 126.03 74.52"/><path d="M126.78 90.59 127.37 91.52 127.38 91.68"/><path d="M127.38 91.6 127.39 91.66"/><path d="M128.07 90.13 127.68 89.68 127.7 89.19 128.12 88.69 128.9 88.25 129.95 87.9 131.16 87.69 132.39 87.65 133.52 87.77 134.42 88.04 135 88.43 135.18 88.91 134.96 89.41"/><path d="M127.3 87.04 127.32 86.82 127.34 87.1"/><path d="M127.32 86.82 128.44 84.57 128.71 87.51"/><path d="M127.33 73.77 128.34 73.6 128.35 73.64"/><path d="M128.34 73.6 128.59 73.57"/><path d="M128.02 68.37 128.49 68.31 128.96 68.31 129.38 68.37 129.73 68.47 130 71.47"/><path d="M129.99 87.05 129.71 83.95 129.26 84.05 128.88 84.2 128.6 84.37 128.44 84.57"/><path d="M132.67 63.31 131.69 63.41 130.55 63.69 129.62 64.09 129.01 64.57 128.79 65.07 128.97 65.55"/><path d="M133.17 90.35 133.1 90.3 132.64 90.16 132.07 90.1 131.44 90.13 130.83 90.23 130.29 90.41 129.88 90.66"/><path d="M139.5 85.42 139.22 82.32 129.71 83.95"/><path d="M129.73 68.47 133.17 69.94 133.24 70.72"/><path d="M137.36 71.28 136.78 71.16 135.58 71.13 134.34 71.26 133.2 71.54 132.27 71.94 131.67 72.41 131.44 72.92 131.61 73.35"/><path d="M132.89 65.74 132.27 65.8 131.69 65.94 131.22 66.14 131.06 66.28"/><path d="M136.66 77.62 136.38 74.53 134.95 74.69 133.55 74.69 133.29 74.65"/><path d="M136.96 73.83 136.68 73.7 136.16 73.6 135.55 73.58 134.93 73.65 134.35 73.79 133.88 73.99 133.71 74.12"/><path d="M133.17 69.94 133.44 70.12 133.53 70.33"/><path d="M133.5 67.66 133.56 67.38 133.83 67.11 134.3 66.86"/><path d="M134.85 66.82 135.01 68.56"/><path d="M143.41 80.37 143.64 79.87 143.45 79.4 142.88 79 141.98 78.73 140.85 78.61 139.62 78.66 138.41 78.86 137.36 79.21 136.58 79.65 136.16 80.15 136.14 80.65 136.52 81.09"/><path d="M136.22 64.85 136.27 64.79 136.29 64.29 136.13 64.12"/><path d="M138.22 74.21 136.38 74.53"/><path d="M141.62 81.32 141.55 81.26 141.09 81.13 140.52 81.07 139.9 81.09 139.28 81.2 138.75 81.37 138.33 81.62"/><path d="M138.11 64.02 138.11 64.31"/><path d="M139.22 82.32 139.78 82.26 140.32 82.28 140.79 82.37 141.12 82.53 141.28 82.73"/><path d="M140.67 73.79 140.69 73.79 140.98 76.89"/><path d="M141.54 71.35 141.39 69.74 140.87 69.87 140.63 69.98"/><path d="M142.69 76.99 142.41 73.89 142.06 73.79 141.64 73.73 141.17 73.73 140.69 73.79"/><path d="M141.39 69.74 151.59 68"/><path d="M150.09 87.53 150.32 87.03 150.13 86.55 149.56 86.16 148.66 85.89 147.53 85.77 146.29 85.82 145.09 86.02 144.03 86.37 143.26 86.81 142.84 87.31 142.82 87.81 143.2 88.25"/><path d="M142.41 73.89 144.71 74.88 144.8 75.88"/><path d="M144 84.55 143.97 84.18 143.93 84.45"/><path d="M143.97 84.18 144.36 83.4 144.49 84.91"/><path d="M145.01 88.78 145.43 88.53 145.96 88.35 146.57 88.25 147.2 88.22 147.77 88.29 148.23 88.42 148.3 88.47"/><path d="M144.36 83.4 144.68 83.02 145.24 82.67 146 82.38 146.88 82.17 147.15 85.05"/><path d="M144.71 74.88 144.95 75.03 145.06 75.21"/><path d="M146.06 80.16 146.08 79.94 146.11 80.22"/><path d="M146.08 79.94 147.49 77.12 147.78 80.22"/><path d="M146.88 82.17 166.79 78.76 167.07 81.86"/><path d="M147.84 89.38 149.54 88.96 150.92 88.37 151.83 87.66 152.17 86.92"/><path d="M147.49 77.12 147.65 76.93 147.93 76.75 148.31 76.61 148.76 76.5 149.04 79.6"/><path d="M148.76 76.5 159.85 74.6 160.14 77.7"/><path d="M155.98 74.28 156.4 73.79 156.42 73.29 156.04 72.85 155.29 72.51 154.26 72.31 153.06 72.28 151.82 72.41 150.68 72.68 149.75 73.09 149.15 73.56 148.92 74.07 149.11 74.54"/><path d="M151.19 75.27 151.36 75.14 151.83 74.94 152.41 74.8 153.04 74.73 153.65 74.75 154.16 74.85 154.45 74.98"/><path d="M155.63 70.45 155.35 67.36 153.13 67.74"/><path d="M159.35 65.23 159.11 62.53 157.28 62.58 155.62 62.39 154.3 61.98 153.47 61.39 153.28 60.87"/><path d="M155.26 61.05 155.07 60.57 155.29 60.07 155.9 59.59 156.83 59.19 157.97 58.91 159.21 58.78 160.41 58.82 161.44 59.02 162.18 59.36 162.42 59.62"/><path d="M155.35 67.36 155.87 67.3 156.39 67.31 156.84 67.39 157.18 67.52 157.38 67.7 157.66 70.8"/><path d="M157.38 67.7 158.83 70.03 158.85 70.27"/><path d="M157.34 61.78 157.5 61.65 157.98 61.44 158.55 61.3 159.18 61.24 159.79 61.26 160.31 61.36 160.59 61.48"/><path d="M158.83 70.03 158.87 70.24"/><path d="M159.11 62.53 159.78 62.5 160.4 62.56 160.78 62.66 160.92 62.7 161.28 62.9 161.45 63.15"/><path d="M159.85 74.6 160.38 74.55 160.89 74.56 161.35 74.63 161.69 74.77 161.89 74.95 162.17 78.04"/><path d="M161.89 74.95 163.34 77.28 163.36 77.52"/><path d="M167.27 65.95 166.36 65.77 165.17 65.74 163.93 65.86 162.79 66.14 161.86 66.54 161.25 67.02 161.03 67.53 161.21 68"/><path d="M164.22 72.58 163.94 69.48 163.45 69.6 163.05 69.76 162.77 69.96 162.65 70.18"/><path d="M162.13 60.79 162.48 60.37"/><path d="M163.34 77.28 163.38 77.48"/><path d="M163.94 69.48 165.96 69.13 166.25 72.23"/><path d="M166.55 68.44 166.27 68.31 165.75 68.21 165.14 68.19 164.51 68.26 163.93 68.4 163.46 68.6 163.3 68.73"/><path d="M164.33 64.57 164.3 64.29 164.28 64.51"/><path d="M164.3 64.29 165.25 62.4 165.48 64.97"/><path d="M165.25 62.4 165.41 62.2 165.69 62.03 165.81 61.98"/><path d="M173.37 75.58 173.59 75.07 173.41 74.6 172.83 74.2 171.95 73.94 170.83 73.82 169.57 73.86 168.36 74.07 167.31 74.41 166.54 74.86 166.11 75.35 166.09 75.85 166.48 76.29"/><path d="M165.96 69.13 167.3 68.82 167.52 68.74"/><path d="M167.27 83.58 167.86 84.23 168.98 84.73 170.51 85.02 172.29 85.07 174.12 84.89 204.78 79.63 205.07 82.73"/><path d="M166.79 78.76 167.74 78.65 168.68 78.65 169.52 78.76 170.22 78.97 170.4 80.97"/><path d="M166.58 62.51 166.79 64.84"/><path d="M168.29 76.83 168.71 76.57 169.24 76.4 169.85 76.29 170.48 76.27 171.05 76.33 171.51 76.47 171.58 76.52"/><path d="M176.37 83.03 176.6 82.53 176.41 82.06 175.84 81.66 174.94 81.39 173.81 81.27 172.58 81.32 171.37 81.52 170.32 81.87 169.54 82.31 169.12 82.81 169.1 83.31 169.48 83.75"/><path d="M170.22 78.97 171.4 79.48 171.5 80.52"/><path d="M170.04 70.39 169.95 69.4"/><path d="M170.43 69.61 170.39 69.19"/><path d="M170.67 66.12 170.96 66 171.41 65.9 171.69 69"/><path d="M170.39 59.17 170.21 58.69 170.43 58.19 171.04 57.71 171.95 57.32 173.06 57.04 174.34 56.9 175.54 56.94 176.57 57.14 177.32 57.48 177.7 57.92 177.68 58.41 177.26 58.91"/><path d="M171.29 84.28 171.71 84.03 172.24 83.86 172.86 83.75 173.48 83.73 174.05 83.79 174.51 83.92 174.58 83.97"/><path d="M171.4 79.48 171.74 79.69 171.88 79.94"/><path d="M171.41 65.9 173.32 65.57 173.61 68.67"/><path d="M176.3 63.19 176.03 60.15 171.71 60.89"/><path d="M172.4 77.5 172.49 77.27 172.76 77.06 173.18 76.88 173.7 76.75 173.85 78.35"/><path d="M175.73 59.6 175.45 59.48 174.93 59.38 174.32 59.36 173.69 59.42 173.11 59.57 172.64 59.77 172.47 59.9"/><path d="M174.12 84.89 174.41 87.98"/><path d="M173.7 76.75 183.22 75.12 183.5 78.19"/><path d="M175.57 74.2 175.3 71.11 174.31 70.5 173.86 69.78"/><path d="M175.38 65.98 175.22 65.78 174.89 65.62 174.42 65.53 173.88 65.51 173.32 65.57"/><path d="M175.3 71.11 179.54 72.92 179.61 73.7"/><path d="M176.03 60.15 176.59 60.09 177.13 60.11 177.59 60.2 177.93 60.36 178.09 60.56"/><path d="M177.55 69.23 177.73 68.91 178.15 68.6 178.75 68.35 179.49 68.18 179.67 70.13"/><path d="M177.92 65.94 178.11 65.61 178.53 65.31 179.13 65.06 179.86 64.89 180.04 66.84"/><path d="M184.59 54.95 180.21 55.7 180.08 55.58 179.85 55.49 179.55 55.44 179.21 55.44 178.85 55.47 178.53 55.55 178.26 55.66 178.08 55.8 177.99 55.94"/><path d="M179.9 73.31 179.81 73.1 179.54 72.92"/><path d="M179.49 68.18 184.34 67.35"/><path d="M179.4 62.46 179.58 62.14 180 61.84 180.6 61.59 181.33 61.41 181.51 63.36"/><path d="M179.86 64.89 183.76 64.22"/><path d="M180.34 57.14 180.21 55.7"/><path d="M180.82 56.78 180.79 56.64"/><path d="M181.55 71.77 181.74 71.45 182.15 71.15 182.76 70.89 183.49 70.72 183.67 72.67"/><path d="M181.33 61.41 186.26 60.57 186.45 62.61"/><path d="M183.82 80.58 183.43 80.14 183.45 79.65 183.88 79.15 184.65 78.7 185.7 78.36 186.91 78.15 188.14 78.11 189.27 78.22 190.17 78.5 190.75 78.89 190.91 79.31 190.93 79.37 190.71 79.87"/><path d="M183.22 75.12 183.69 75.07 184.16 75.07 184.58 75.12 184.93 75.23 185.17 77.9"/><path d="M184.63 70.52 183.49 70.72"/><path d="M184.93 75.23 187.82 76.46 187.89 77.24"/><path d="M185.02 58.26 184.84 57.78 184.98 57.47 185.06 57.28 185.67 56.8 186.59 56.4 187.74 56.12 188.98 55.99 190.17 56.03 191.2 56.23 191.95 56.56 192.33 57.01 192.32 57.5 191.89 58"/><path d="M184.56 54.82 184.65 54.67 184.83 54.54 185.1 54.43 185.43 54.35 185.78 54.31 186.12 54.32 186.42 54.37 186.65 54.46 186.78 54.58 186.91 56.02"/><path d="M188.92 80.81 188.84 80.76 188.39 80.62 187.82 80.56 187.19 80.59 186.58 80.69 186.05 80.86 185.63 81.12"/><path d="M186.26 60.57 187.05 60.48 187.82 60.5 188.5 60.61 189.01 60.81 189.31 61.08 189.37 61.39"/><path d="M186.83 73.8 186.65 74.12"/><path d="M196.47 64.12 196.29 62.08 186.56 63.74"/><path d="M190.36 58.69 190.08 58.57 189.56 58.46 188.95 58.45 188.32 58.51 187.74 58.65 187.27 58.86 187.11 58.99"/><path d="M187.38 55.68 187.36 55.52 187.39 55.65"/><path d="M187.36 55.52 186.78 54.58"/><path d="M187.82 76.46 188.09 76.64 188.18 76.85"/><path d="M188.77 75.03 188.59 73.07 188.05 73.2"/><path d="M188.59 73.07 193.52 72.23 193.7 74.27"/><path d="M187.96 69.95 199.91 67.91 200.1 69.95"/><path d="M190.62 68.35 190.44 66.3 187.69 66.77"/><path d="M190.44 66.3 191.23 66.22 192 66.23 192.67 66.35 193.18 66.55 193.48 66.82 193.54 67.13"/><path d="M196.2 60.76 196.55 60.35 196.56 59.94 196.25 59.58 195.63 59.31 194.79 59.14 193.81 59.11 192.79 59.22 191.85 59.45 191.09 59.78 190.59 60.17 190.41 60.58 190.56 60.97"/><path d="M192.46 79.2 192.54 79.06 192.73 78.93 193 78.81 193.32 78.74 193.67 78.7 194.02 78.71 194.31 78.76 194.54 78.85 194.68 78.97 194.81 80.4"/><path d="M195.06 61.29 194.75 61.15 194.3 61.06 193.79 61.05 193.25 61.1 192.76 61.22 192.35 61.4 192.15 61.56"/><path d="M193.52 72.23 194.31 72.14 195.07 72.16 195.75 72.27 196.26 72.47 196.56 72.74 196.62 73.05"/><path d="M195.26 79.9 195.28 80.04"/><path d="M199.06 78.22 194.68 78.97"/><path d="M198.54 52.65 198.35 52.43 197.97 52.26 197.44 52.16 196.84 52.14 196.21 52.2 195.63 52.35 195.16 52.55 194.85 52.79 194.73 53.05"/><path d="M203.55 76.08 203.77 75.58 203.59 75.1 203.01 74.71 202.11 74.43 200.98 74.32 199.75 74.36 198.54 74.57 197.49 74.91 196.72 75.36 196.3 75.86 196.28 76.26 196.28 76.35 196.66 76.79"/><path d="M196.29 62.08 197.08 61.99 197.85 62.01 198.52 62.12 199.03 62.32 199.34 62.59 199.39 62.9"/><path d="M201.76 77.02 201.69 76.97 201.23 76.83 200.66 76.77 200.03 76.79 199.42 76.9 198.88 77.07 198.47 77.33"/><path d="M197.81 72.63 197.66 72.24 197.85 71.83 198.34 71.44 199.1 71.11 200.04 70.88 201.06 70.78 202.04 70.81 202.89 70.97 203.5 71.24 203.82 71.61 203.8 72.01 203.45 72.42"/><path d="M199.03 78.08 199.11 77.94 199.3 77.8 199.57 77.69 199.89 77.61 200.24 77.57 200.59 77.58 200.88 77.63 201.11 77.72 201.25 77.84 201.38 79.28"/><path d="M202.32 72.95 202 72.81 201.56 72.72 201.04 72.71 200.5 72.76 200.01 72.89 199.61 73.06 199.4 73.22"/><path d="M199.88 59.23 199.8 58.36 202.26 57.94 202.54 61.04"/><path d="M199.8 58.36 199.47 58.44 199.2 58.55 199.02 58.69 198.93 58.83"/><path d="M199.91 67.91 200.7 67.82 201.48 67.84 202.15 67.95 202.66 68.15 202.96 68.42 203.02 68.73"/><path d="M201.35 60.86 201.03 60.94 200.76 61.05 200.57 61.19 200.49 61.33"/><path d="M201.84 78.94 201.83 78.78 201.25 77.84"/><path d="M201.83 78.78 201.86 78.92"/><path d="M205.2 60.81 205.17 60.67 205.04 60.55 204.81 60.46 204.51 60.41 204.19 60.41 203.82 60.44 202.78 58.78"/><path d="M203.64 58.31 203.61 58.17 203.48 58.05 203.25 57.96 202.95 57.91 202.63 57.91 202.26 57.94"/><path d="M203.82 60.44 203.9 61.35"/><path d="M204.78 79.63 205.37 79.56 205.95 79.56 206.48 79.61 206.94 79.72 207.22 82.82"/><path d="M206.09 69.23 206.01 68.36 205.69 68.44 205.42 68.55 205.23 68.68 205.15 68.83"/><path d="M206.01 68.36 208.48 67.94 208.76 71.04"/><path d="M206.94 79.72 207.39 79.84 207.93 79.89 208.51 79.88 209.09 79.82 209.38 82.91"/><path d="M206.7 71.33 206.79 71.18 206.97 71.05 207.24 70.94 207.57 70.86"/><path d="M208.48 67.94 208.85 67.9 209.17 67.91 209.47 67.96 209.7 68.05 209.83 68.17 209.86 68.31"/><path d="M209.09 79.82 212.97 79.15 213.25 82.25"/><path d="M213.58 76.93 213.49 76.69 213.2 76.49 212.74 76.36 212.17 76.3 211.54 76.32 210.93 76.42 210.4 76.6 210 76.83 209.79 77.08 209.78 77.33"/><path d="M210.11 71.35 210.03 70.44 209 68.77"/><path d="M210.03 70.44 210.4 70.4 210.72 70.41 211.02 70.46 211.25 70.55 211.39 70.67 211.41 70.81"/><path d="M212.97 79.15 214.6 78.76 215.94 78.2 216.86 77.54 217.28 76.82"/></g><g stroke="#000000" stroke-width="0.353"><path d="M143.93 84.45 144.1 84.7 144.46 84.9 144.99 85.04 145.6 85.1 148.11 85.02 149.77 85.21 151.08 85.62 151.91 86.21 152.17 86.92 152.45 90.02 152.11 90.76 151.2 91.47 149.82 92.06 148.12 92.48 102.68 100.25 102.13 100.38 101.65 100.55 101.28 100.76 100.8 101.23 100.43 101.44 99.95 101.61 99.4 101.74 90.06 103.34 88.3 103.52 86.59 103.49 85.09 103.24 83.95 102.79 83.29 102.19 68.26 78.03 68.13 77.34 67.85 74.25 68.26 73.53 69.19 72.86 70.53 72.31 72.16 71.92 81.51 70.32 82.09 70.25 82.67 70.24 83.21 70.3 84.12 70.52 84.66 70.58 85.24 70.57 85.82 70.5 131.26 62.72 132.61 62.58"/><path d="M71.54 74.13 71.64 74.37 71.93 74.57 72.38 74.71 72.96 74.77 73.58 74.75 74.2 74.64 74.73 74.47 75.12 74.24 75.34 73.99 75.35 73.74"/><path d="M72.99 77.05 73.01 77.18 73.64 78.19 73.8 78.35 74.02 78.44 74.32 78.49 74.67 78.49 75.02 78.45 107.32 72.93 108.05 72.75 108.66 72.5 109.07 72.2 109.26 71.88"/><path d="M116.55 73.86 116.36 74.18 115.94 74.48 115.34 74.73 114.61 74.9 76.83 81.37 76.48 81.41 76.13 81.4 75.84 81.35 75.61 81.26 75.47 81.14 74.83 80.1 74.8 79.96"/><path d="M76.61 82.88 76.64 83.02 77.29 84.06 77.42 84.18 77.65 84.27 77.95 84.32 78.29 84.32 78.64 84.29 120.8 77.07 121.53 76.89 122.14 76.64 122.55 76.34 122.74 76.02"/><path d="M76.05 72.99 76.63 73.39 77.04 73.51 77.53 73.66 78.65 73.78 79.89 73.73 81.1 73.52 82.15 73.18 82.92 72.73"/><path d="M127.29 78.48 127.11 78.79 126.69 79.09 126.08 79.34 125.35 79.52 80.46 87.2 80.1 87.24 79.76 87.23 79.46 87.18 79.23 87.09 79.1 86.97 78.45 85.93 78.43 85.79"/><path d="M126.37 81.85 126.17 82.18 125.76 82.47 125.16 82.72 124.43 82.9 82.27 90.12 81.92 90.15 81.57 90.15 81.28 90.1 81.05 90.01 80.91 89.89 80.27 88.85 80.24 88.71"/><path d="M82.05 91.62 82.08 91.76 82.73 92.8 82.86 92.92 83.09 93.01 83.39 93.06 83.74 93.07 84.08 93.03 121.86 86.57 122.59 86.39 123.2 86.14 123.61 85.84 123.8 85.52"/><path d="M120.14 89.37 119.95 89.69 119.53 89.99 118.93 90.24 118.2 90.42 85.89 95.95 85.54 95.99 85.2 95.98 84.9 95.93 84.67 95.84 84.54 95.72 84.06 94.95 83.89 94.68 83.87 94.54"/><path d="M86.59 98.41 86.78 98.64 87.16 98.81 87.68 98.91 88.29 98.93 88.92 98.86 89.5 98.72 89.97 98.52 90.28 98.28 90.39 98.02"/><path d="M92.09 98.61 92.84 98.94 93.87 99.14 95.07 99.18 96.31 99.05 97.45 98.77 98.38 98.37 98.98 97.89"/><path d="M106.36 69.52 106.27 69.67 106.07 69.81 105.82 69.91 105.49 69.99 105.14 70.03 104.8 70.02 104.5 69.97 104.27 69.88 104.14 69.76 103.56 68.82 103.53 68.69"/><path d="M106.34 69.54 106.33 69.39 110.71 68.64 110.84 68.76 111.07 68.84 111.37 68.9 111.71 68.9 112.06 68.87 112.39 68.79 112.66 68.68 112.84 68.54 112.92 68.4"/><path d="M110.1 67.56 110.22 68.72"/><path d="M114.64 68.71 115.22 69.11 116.12 69.38 117.24 69.5 118.48 69.45 119.68 69.24 120.73 68.9 121.51 68.45"/><path d="M117.2 70.75 117.3 70.96 117.57 71.14 121.01 72.61 121.35 72.71 121.78 72.77 122.24 72.77 122.72 72.72 132.23 71.09 132.75 70.96 133.17 70.78 133.44 70.56 133.53 70.33"/><path d="M118 91.95 118.02 92.08 118.61 93.02 118.74 93.14 118.97 93.23 119.27 93.28 119.61 93.29 119.96 93.25 120.29 93.17 120.55 93.06 120.74 92.93 120.82 92.78"/><path d="M127.39 91.66 127.31 91.8 127.12 91.94 126.86 92.05 126.53 92.13 126.18 92.16 125.84 92.16 125.54 92.11 125.31 92.02 125.18 91.9 120.8 92.65 120.81 92.81"/><path d="M129.79 71.5 129.67 71.47 129.24 71.41 128.77 71.41 128.3 71.46 121.22 72.68"/><path d="M124.69 91.98 124.57 90.82"/><path d="M126.9 75.13 126.39 74.91 126.12 74.74 126.03 74.52"/><path d="M134.96 89.41 134.35 89.89 133.42 90.29 132.28 90.57 131.04 90.7 129.85 90.66 128.81 90.46 128.07 90.13"/><path d="M141.28 82.73 141.26 82.96 140.14 85.21 139.98 85.4 139.7 85.57 139.32 85.72 138.87 85.82 129.36 87.45 128.8 87.51 128.25 87.49 127.79 87.4 127.46 87.24 127.3 87.04"/><path d="M140 85.37 139.5 85.42 129.99 87.05 129.54 87.15 129.17 87.3 128.86 87.5"/><path d="M132.96 66.26 132.81 66.28 131.58 66.33 130.45 66.21 129.55 65.94 128.97 65.55"/><path d="M132.41 81.64 133.62 81.41 134.08 81.25 134.36 81.07 134.52 80.88 134.91 80.11 135.39 79.54 136.24 79.01 137.37 78.57 138.7 78.26 143.02 77.52 143.46 77.42 143.84 77.28 144.12 77.1 144.28 76.91 145.03 75.4 145.06 75.21"/><path d="M143.58 77.37 142.69 76.99 142.34 76.89 141.92 76.83 141.45 76.83 140.98 76.89 136.66 77.62 135.23 77.78 133.83 77.78 132.56 77.62 132.03 77.46"/><path d="M137.57 73.63 136.67 73.92 135.46 74.13 134.23 74.18 133.2 74.07"/><path d="M137.15 68.95 136.71 68.95 135.86 68.84 135.17 68.63 133.98 68.12 133.65 67.91 133.5 67.66"/><path d="M138.14 64.31 138.11 64.02 137.53 63.37 136.41 62.87 136.01 62.8"/><path d="M136.52 81.09 137.27 81.43 138.3 81.62 139.5 81.66 140.68 81.54 141.88 81.25 142.81 80.85 143.41 80.37"/><path d="M140.49 68.52 150.37 66.82"/><path d="M158.87 70.24 158.75 70.45 158.47 70.65 158.06 70.82 157.57 70.94 146.48 72.84 146 72.89 145.53 72.89 145.11 72.84 144.76 72.73 140.72 71"/><path d="M143.2 88.25 143.95 88.58 144.98 88.78 146.17 88.82 147.41 88.69 148.56 88.41 149.48 88.01 150.09 87.53"/><path d="M144.07 72.43 155.63 70.45 156.16 70.4 156.67 70.41 157.12 70.48 157.46 70.62 157.66 70.8 157.73 70.9"/><path d="M146.06 80.16 146.23 80.37 146.56 80.52 147.02 80.61 147.56 80.63 148.12 80.57 162.08 78.18 162.57 78.07 162.97 77.9 163.25 77.7 163.38 77.48"/><path d="M148.4 85.05 167.07 81.86 168.02 81.75 168.49 81.75"/><path d="M147.56 80.63 147.78 80.22 147.94 80.02 148.22 79.85 148.6 79.7 149.04 79.6 160.14 77.7 160.66 77.64 161.18 77.65 161.63 77.73 161.97 77.86 162.17 78.04 162.23 78.15"/><path d="M155.98 74.28 155.2 74.73 154.15 75.07 152.94 75.28 151.71 75.33 150.59 75.21 149.68 74.94 149.11 74.54"/><path d="M161.45 63.15 161.42 63.42 161.03 64.2 160.71 64.58 160.15 64.94 159.39 65.23 158.5 65.43 153.7 66.25"/><path d="M157.26 65.64 155.9 65.49 154.59 65.08 153.75 64.49 153.5 63.78 153.24 60.91"/><path d="M154.59 59.18 155.85 58.64 157.54 58.22 162.21 57.42"/><path d="M155.26 61.05 155.83 61.44 156.32 61.59 156.73 61.71 157.86 61.83 159.09 61.79 160.3 61.58 161.35 61.23 162.13 60.79"/><path d="M161.21 68 161.79 68.4 162.69 68.67 163.81 68.79 165.05 68.74 166.26 68.53 167.31 68.19 167.46 68.1"/><path d="M162.65 70.18 162.69 70.39 164.07 72.61 166.25 72.23 167.58 71.92 168.7 71.49 169.55 70.96 170.04 70.39 170.43 69.61 170.59 69.42 170.87 69.24 171.25 69.1 171.69 69 173.61 68.67 174.16 68.61"/><path d="M164.07 72.61 164.6 73.47 164.8 73.65 165.14 73.78 165.59 73.86 166.11 73.87 166.63 73.81 168.66 73.46 170.08 73.3 171.49 73.3 172.76 73.47 173.8 73.78 174.98 74.29 175.32 74.39 175.75 74.45 176.22 74.45 176.69 74.39 178.61 74.07 179.12 73.94 179.54 73.76 179.81 73.54 179.9 73.31"/><path d="M167.16 64.78 166.34 64.92 165.78 64.98 165.24 64.96 164.78 64.87 164.6 64.79 164.45 64.71 164.28 64.51"/><path d="M171.88 79.94 171.82 80.22 171.62 80.43 171.55 80.5 171.12 80.73 169.01 81.44 167.88 82.11 167.28 82.85 167.27 83.58 167.56 86.68 168.14 87.33 169.26 87.83 170.79 88.12 172.57 88.17 174.41 87.98 205.07 82.73 205.65 82.66 206.23 82.65 206.77 82.71 207.68 82.93 208.21 82.99 208.79 82.98 209.38 82.91 213.25 82.25 214.88 81.86 216.22 81.3 217.15 80.63 217.56 79.92 217.28 76.82 217.15 76.13 202.12 51.98 201.46 51.38 200.32 50.93 198.82 50.68 197.11 50.64 195.35 50.83 191.48 51.49 190.93 51.62 190.45 51.79 190.08 52 189.6 52.47 189.23 52.68 188.75 52.85 188.21 52.98 165.55 56.85"/><path d="M173.37 75.58 172.76 76.05 171.83 76.45 170.69 76.73 169.45 76.86 168.25 76.82 167.23 76.63 166.48 76.29"/><path d="M176.37 83.03 175.77 83.51 174.84 83.91 173.7 84.19 172.46 84.32 171.26 84.28 170.23 84.09 169.48 83.75"/><path d="M170.49 64.21 175.86 63.29 176.3 63.19 176.68 63.04 176.96 62.87 177.12 62.68 178.07 60.78 178.09 60.56"/><path d="M177.26 58.91 176.48 59.36 175.43 59.7 174.23 59.91 172.99 59.95 171.86 59.83 170.97 59.56 170.39 59.17"/><path d="M172.4 77.5 172.49 77.72 172.76 77.89 175.66 79.13 176 79.23 176.41 79.29 176.89 79.29 177.37 79.23 186.88 77.61 187.4 77.48 187.82 77.3 188.09 77.08 188.18 76.85"/><path d="M176.14 74.45 175.57 74.2 174.59 73.6 174.14 72.88 173.86 69.78 173.97 68.99 175.36 66.2 175.38 65.98"/><path d="M184.53 69.39 180.65 70.05 179.86 70.14 179.09 70.12 178.42 70.01 177.91 69.81 177.61 69.54 177.55 69.23"/><path d="M177.92 65.94 177.98 66.25 178.28 66.52 178.8 66.72 179.47 66.83 180.24 66.85 181.03 66.76 183.29 66.37"/><path d="M177.99 55.94 178.02 56.08 178.6 57.02 178.74 57.14 178.96 57.22 179.26 57.28 179.61 57.28 179.96 57.24 180.28 57.17 180.55 57.06 180.74 56.92 180.82 56.78"/><path d="M179.4 62.46 179.45 62.77 179.76 63.04 180.27 63.24 180.94 63.35 181.71 63.37 182.5 63.28 187.43 62.44 188.16 62.26 188.76 62.01 189.18 61.71 189.37 61.39"/><path d="M187.39 55.65 187.31 55.8 187.12 55.93 186.85 56.04 186.53 56.12 186.18 56.16 185.83 56.15 185.53 56.1 185.31 56.01 185.17 55.89 180.79 56.64 180.81 56.8"/><path d="M184.82 72.56 183.87 72.68 183.1 72.66 182.42 72.55 181.91 72.35 181.61 72.08 181.55 71.77"/><path d="M183.82 80.58 184.57 80.92 185.59 81.12 186.79 81.16 188.03 81.03 189.17 80.75 190.1 80.35 190.71 79.87"/><path d="M191.89 58 191.11 58.44 190.06 58.79 188.86 58.99 187.62 59.04 186.5 58.92 185.6 58.65 185.02 58.26"/><path d="M184.56 54.82 184.68 55.97"/><path d="M196.62 73.05 196.43 73.38 196.02 73.68 195.41 73.93 194.68 74.1 192.05 74.55 189.75 74.95 188.96 75.03 188.19 75.01 187.52 74.9 187.01 74.7 186.71 74.43 186.65 74.12"/><path d="M188.15 71.99 201.08 69.78 201.81 69.61 202.42 69.35 202.83 69.05 203.02 68.73"/><path d="M187.86 68.82 191.6 68.18 192.33 68 192.94 67.75 193.36 67.45 193.54 67.13"/><path d="M199.39 62.9 199.21 63.22 198.79 63.52 198.19 63.77 197.45 63.95 188.96 65.4"/><path d="M190.56 60.97 191.03 61.3 191.77 61.52 192.7 61.62 193.71 61.58 194.7 61.41 195.56 61.13 196.2 60.76"/><path d="M192.46 79.2 192.49 79.34 193.07 80.28 193.2 80.4 193.43 80.49 193.73 80.54 194.07 80.54 194.42 80.51 194.75 80.43 195.02 80.32 195.2 80.18 195.28 80.04"/><path d="M201.86 78.92 201.77 79.06 201.59 79.19 201.32 79.3 200.98 79.38 200.64 79.42 200.3 79.41 200 79.36 199.77 79.27 199.64 79.15 195.26 79.9 195.27 80.06"/><path d="M198.54 52.65 198.53 52.91 198.32 53.16 197.92 53.38 197.39 53.56 196.78 53.66 196.15 53.69 195.58 53.63 195.12 53.49 194.83 53.29 194.73 53.05"/><path d="M203.55 76.08 202.94 76.56 202.09 76.92 200.87 77.24 199.63 77.37 198.44 77.33 197.41 77.13 196.66 76.79"/><path d="M203.45 72.42 202.81 72.79 201.95 73.07 200.96 73.24 199.95 73.28 199.02 73.18 198.28 72.96 197.81 72.63"/><path d="M199.03 78.08 199.15 79.24"/><path d="M201.43 61.73 201.35 60.86 200.32 59.2 199.96 59.24 199.62 59.23 199.32 59.18 199.09 59.09 198.96 58.97 198.93 58.83"/><path d="M205.2 60.81 205.11 60.95 204.93 61.09 204.66 61.2 204.33 61.28 201.87 61.7 201.52 61.73 201.18 61.73 200.88 61.68 200.65 61.59 200.51 61.47 200.49 61.33"/><path d="M201.38 61.24 202.54 61.04 202.98 61.01"/><path d="M203.64 58.31 203.56 58.45 203.37 58.59 203.1 58.7 202.78 58.78 203.03 61.5"/><path d="M207.65 71.73 207.57 70.86 206.53 69.19 206.18 69.23 205.84 69.22 205.54 69.17 205.31 69.08 205.18 68.96 205.15 68.83"/><path d="M206.7 71.33 206.73 71.46 206.86 71.58 207.09 71.67 207.39 71.72 207.73 71.73 208.09 71.69 210.55 71.27 210.87 71.19 211.14 71.08 211.33 70.95 211.41 70.81"/><path d="M207.6 71.24 208.76 71.04 209.2 71"/><path d="M213.58 76.93 213.47 77.19 213.16 77.43 212.69 77.64 212.11 77.78 211.48 77.84 210.87 77.82 210.35 77.72 209.97 77.55 209.78 77.33"/><path d="M209.24 71.49 209 68.77 209.32 68.69 209.59 68.58 209.78 68.45 209.86 68.31"/></g></g><g id="Actor_.5"><g stroke="#000000" stroke-width="0.353"><path d="M121.9 149.18 121.8 148.14 120.57 147.68 119.87 147.04 119.81 146.63"/><path d="M121.8 148.14 129.04 149.94 129.14 150.97"/><path d="M122.02 146.59 122.36 146.98 123.03 147.29 123.95 147.46 125.03 147.5 126.14 147.38 127.16 147.13 127.99 146.77 128.53 146.34 128.73 145.89"/><path d="M128.55 143.83 128.35 144.28 127.8 144.71 126.97 145.07 125.95 145.32 124.84 145.43 123.77 145.4 122.85 145.22 122.18 144.92 121.84 144.53"/><path d="M126.79 144.3 127 144.06 127.01 143.81 126.82 143.6 126.45 143.43 125.94 143.33 125.35 143.32 124.74 143.38 124.18 143.52 123.72 143.71 123.42 143.95 123.31 144.2 123.4 144.43"/><path d="M126.6 144.29 126.46 144.12 126.18 144 125.79 143.92 125.35 143.91 124.88 143.96 124.46 144.06 124.11 144.21 123.88 144.39 123.8 144.58"/><path d="M139.8 157.98 139.02 155.52 136.89 153.3 133.51 151.41 129.04 149.94"/><path d="M143.41 169.19 143.31 168.16 142.07 168.81 140.44 169.3 138.6 169.57 138.45 169.58 136.76 169.6 135.11 169.38 133.84 168.93 133.09 168.3 132.94 167.57"/><path d="M135.02 165.73 135.36 166.12 136.03 166.43 136.95 166.6 138.03 166.64 139.13 166.52 140.16 166.27 140.99 165.91 141.53 165.48 141.73 165.03"/><path d="M141.92 167.1 141.72 167.55 141.18 167.98 140.35 168.34 139.32 168.59 138.21 168.7 137.14 168.67 136.22 168.49 135.55 168.19 135.21 167.79"/><path d="M136.59 165.64 136.5 165.4 136.61 165.15 136.91 164.92 137.37 164.72 137.93 164.58 138.54 164.52 139.13 164.54 139.64 164.64 140 164.8 140.19 165.02 140.18 165.26 139.98 165.51"/><path d="M136.99 165.78 137.07 165.6 137.3 165.42 137.64 165.27 138.07 165.16 138.53 165.12 138.98 165.13 139.36 165.2 139.64 165.33 139.79 165.49"/><path d="M145.72 150.58 145.52 151.03 144.98 151.45 144.15 151.81 144.03 151.84 143.12 152.06 142.02 152.18 140.94 152.15 140.02 151.97 139.35 151.67 139.01 151.27"/><path d="M138.82 149.21 139.16 149.6 139.83 149.9 140.75 150.08 141.83 150.11 142.94 150 143.96 149.75 144.79 149.39 145.33 148.96 145.53 148.51"/><path d="M143.78 148.99 143.99 148.74 143.99 148.5 143.81 148.28 143.44 148.11 142.93 148.02 142.34 148 141.73 148.06 141.17 148.2 140.71 148.4 140.41 148.63 140.3 148.88 140.39 149.11"/><path d="M143.59 148.97 143.44 148.81 143.17 148.68 142.78 148.61 142.33 148.59 141.87 148.64 141.45 148.75 141.1 148.89 140.87 149.07 140.79 149.26"/><path d="M143.31 168.16 146.64 165.19 148.47 162.12 148.56 163.16"/><path d="M150.38 158.06 150.18 158.51 149.63 158.94 148.8 159.3 148.5 159.37 147.78 159.55 146.67 159.66 145.6 159.63 144.68 159.45 144.01 159.15 143.66 158.76"/><path d="M143.48 156.69 143.82 157.09 144.49 157.39 145.41 157.57 146.48 157.6 147.59 157.48 148.62 157.23 149.44 156.88 149.62 156.74 149.99 156.45 150.19 156"/><path d="M145.05 156.6 144.96 156.37 145.07 156.12 145.37 155.88 145.82 155.68 146.39 155.55 147 155.48 147.59 155.5 148.09 155.6 148.46 155.77 148.65 155.98 148.64 156.23 148.43 156.47"/><path d="M145.44 156.75 145.53 156.56 145.75 156.38 146.1 156.23 146.53 156.13 146.99 156.08 147.44 156.09 147.82 156.17 148.1 156.29 148.24 156.46"/><path d="M148.47 162.12 149.04 161.31 150.16 160.55 151.73 159.92 153.6 159.48 153.69 160.51"/><path d="M153.6 159.48 173.31 156.11 173.4 157.14"/><path d="M156.3 150.35 156.65 150.75 157.31 151.05 158.23 151.23 159.31 151.26 160.42 151.15 161.44 150.9 162.27 150.54 162.82 150.11 163.01 149.66"/><path d="M156.49 152.42 156.83 152.81 157.5 153.12 158.42 153.29 159.5 153.33 160.6 153.21 161.63 152.96 162.46 152.6 163 152.18 163.2 151.72"/><path d="M157.87 150.26 157.78 150.03 157.89 149.78 158.19 149.55 158.65 149.35 159.21 149.21 159.82 149.15 160.41 149.17 160.92 149.26 161.29 149.43 161.48 149.65 161.47 149.89 161.26 150.14"/><path d="M158.27 150.41 158.35 150.22 158.58 150.04 158.93 149.89 159.35 149.79 159.82 149.74 160.26 149.76 160.65 149.83 160.92 149.96 161.07 150.12"/><path d="M168.6 145.88 168.94 146.27 169.61 146.58 170.53 146.75 171.6 146.79 172.71 146.67 173.74 146.42 174.56 146.06 175.11 145.63 175.31 145.18"/><path d="M168.41 143.81 168.75 144.21 169.42 144.51 170.34 144.69 171.41 144.72 172.52 144.61 173.55 144.36 174.38 144 174.92 143.57 175.12 143.12"/><path d="M169.98 143.72 169.89 143.49 170 143.24 170.3 143 170.75 142.81 171.32 142.67 171.93 142.61 172.52 142.62 173.02 142.72 173.39 142.89 173.58 143.1 173.57 143.35 173.36 143.59"/><path d="M170.38 143.87 170.46 143.68 170.69 143.5 171.03 143.35 171.46 143.25 171.92 143.2 172.37 143.21 172.75 143.29 173.03 143.41 173.17 143.58"/><path d="M173.31 156.11 175.32 155.89 177.29 155.91 179.05 156.17 180.43 156.65 180.52 157.69"/><path d="M180.33 153.26 180.13 153.71 179.59 154.14 178.76 154.5 177.74 154.75 176.63 154.87 175.55 154.83 174.63 154.65 173.96 154.35 173.62 153.96"/><path d="M180.14 151.2 179.94 151.65 179.4 152.08 178.57 152.43 177.55 152.68 176.44 152.8 175.36 152.77 174.44 152.59 173.78 152.29 173.43 151.89"/><path d="M175 151.8 174.91 151.57 175.02 151.32 175.32 151.08 175.78 150.89 176.34 150.75 176.95 150.68 177.54 150.7 178.05 150.8 178.42 150.97 178.61 151.18 178.6 151.43 178.39 151.67"/><path d="M175.4 151.95 175.48 151.76 175.71 151.58 176.06 151.43 176.48 151.33 176.94 151.28 177.39 151.29 177.78 151.37 178.05 151.49 178.2 151.66"/><path d="M178.01 145.06 177.91 144.03 177.59 144.11 177.32 144.22 177.13 144.35 177.05 144.49"/><path d="M177.91 144.03 179.64 143.73 179.73 144.77"/><path d="M184.49 136.35 184.28 136.8 183.74 137.23 182.91 137.59 181.89 137.84 180.88 137.94 180.78 137.95 179.7 137.92 178.78 137.74 178.12 137.44 177.77 137.05"/><path d="M177.58 134.98 177.93 135.38 178.6 135.68 179.52 135.86 180.59 135.89 181.7 135.77 182.72 135.52 183.55 135.16 184.1 134.74 184.3 134.29"/><path d="M180.57 144.36 180.48 143.33 180.37 143.45 180.18 143.57 179.93 143.67 179.64 143.73"/><path d="M179.16 134.89 179.06 134.66 179.18 134.41 179.47 134.17 179.93 133.97 180.49 133.84 181.1 133.77 181.69 133.79 182.2 133.89 182.57 134.06 182.76 134.27 182.75 134.52 182.54 134.76"/><path d="M179.55 135.04 179.64 134.85 179.86 134.67 180.21 134.52 180.63 134.42 181.1 134.37 181.54 134.38 181.93 134.46 182.21 134.58 182.35 134.75"/><path d="M180.43 156.65 185.35 158.57 191.37 159.93 191.47 160.97"/><path d="M180.48 143.33 182.42 140.81 182.51 141.84"/><path d="M182.42 140.81 186.24 137.11 186.34 138.15"/><path d="M186.71 136.36 186.24 137.11"/><path d="M190.77 156.19 191.11 156.58 191.78 156.88 192.7 157.06 193.78 157.09 194.89 156.98 195.91 156.73 196.74 156.37 197.28 155.94 197.48 155.49"/><path d="M191.37 159.93 193.11 160.08 194.98 159.97 196.77 159.62 198.29 159.07 199.37 158.38 199.89 157.62"/><path d="M197.67 157.56 197.47 158.01 196.93 158.44 196.1 158.79 195.07 159.04 193.97 159.16 192.89 159.13 191.97 158.95 191.3 158.65 190.96 158.25"/><path d="M192.34 156.09 192.25 155.86 192.36 155.61 192.66 155.38 193.12 155.18 193.68 155.04 194.29 154.98 194.88 155 195.39 155.1 195.76 155.27 195.94 155.48 195.94 155.72 195.73 155.97"/><path d="M195.54 155.95 195.39 155.79 195.12 155.66 194.73 155.59 194.28 155.57 193.82 155.62 193.4 155.73 193.05 155.88 192.82 156.05 192.74 156.24"/></g><g stroke="#000000" stroke-width="0.353"><path d="M139.71 158.41 139.12 156.56 136.98 154.33 133.61 152.44 129.14 150.97 121.9 149.18 120.66 148.71 119.96 148.07 119.86 147.34 119.8 146.65"/><path d="M121.6 144.78 121.85 144.68"/><path d="M122.02 146.59 121.83 144.53"/><path d="M123.8 144.58 123.84 144.67"/><path d="M123.41 144.43 123.69 144.63 124.13 144.76 124.69 144.82 125.29 144.79 125.89 144.69 126.41 144.52 126.79 144.3"/><path d="M128.73 145.89 128.55 143.83 128.38 143.4 127.87 143.05 127.06 142.81 126.05 142.7 124.94 142.74 124.39 142.82 123.86 142.93 123.49 143.05"/><path d="M126.6 144.29 126.59 144.42"/><path d="M140.51 147.72 139.23 147.27 134.3 145.36 128.57 144.06"/><path d="M135.21 165.08 133.41 166.81 132.94 167.57 133.04 168.6 133.18 169.33 133.93 169.96 135.2 170.41 136.85 170.63 138.45 170.61 138.7 170.61 140.54 170.33 142.17 169.85 143.41 169.19 146.73 166.23 148.56 163.16 149.13 162.34 150.25 161.59 151.82 160.96 153.69 160.51 163.02 158.92 173.4 157.14 175.42 156.92 177.39 156.94 179.14 157.2 180.52 157.69 185.45 159.6 191.47 160.97 193.2 161.11 195.07 161 196.86 160.65 198.38 160.1 199.46 159.41 199.98 158.65 199.89 157.62 199.79 156.89 199.09 156.25 197.85 155.78 197.5 155.7"/><path d="M135.21 167.79 135.02 165.73 135.04 165.28 135.41 164.84 136.11 164.44 137.05 164.13 137.58 164.02 138.13 163.95 139.24 163.9 140.25 164.01 141.05 164.25 141.57 164.61 141.73 165.03 141.92 167.1"/><path d="M135.53 164.77 137.24 163.12 139.2 160.56 139.8 157.98"/><path d="M136.99 165.78 137.02 165.88"/><path d="M136.59 165.64 136.87 165.83 137.32 165.96 137.87 166.02 138.48 166 139.08 165.9 139.59 165.73 139.98 165.51"/><path d="M139.01 151.27 138.82 149.21 138.84 148.76 139.21 148.32 139.91 147.92 140.85 147.61 141.38 147.5 141.93 147.42 143.04 147.38 144.05 147.49 144.85 147.73 145.37 148.08 145.53 148.51 145.72 150.58"/><path d="M139.79 165.49 139.78 165.62"/><path d="M140.39 149.11 140.68 149.31 141.12 149.44 141.68 149.5 142.28 149.48 142.88 149.38 143.39 149.21 143.78 148.99"/><path d="M140.79 149.26 140.83 149.35"/><path d="M143.66 158.76 143.48 156.69 143.49 156.25 143.87 155.8 144.57 155.4 145.51 155.09 146.04 154.98 146.59 154.91 147.69 154.87 148.7 154.97 149.51 155.22 150.02 155.57 150.19 156 150.38 158.06"/><path d="M143.59 148.97 143.58 149.1"/><path d="M148.43 156.47 148.05 156.69 147.53 156.86 146.94 156.96 146.33 156.99 145.77 156.93 145.33 156.79 145.05 156.6"/><path d="M145.44 156.75 145.48 156.84"/><path d="M168.6 145.88 168.41 143.81 167.93 144 166.06 144.45 146.35 147.82 145.17 147.95"/><path d="M148.24 156.46 148.24 156.58"/><path d="M156.49 152.42 156.3 150.35 156.32 149.91 156.7 149.46 157.39 149.07 158.33 148.76 158.86 148.65 159.41 148.57 160.52 148.53 161.53 148.64 162.34 148.88 162.85 149.23 163.02 149.67 163.2 151.72"/><path d="M157.87 150.26 158.16 150.46 158.6 150.59 159.16 150.65 159.76 150.63 160.36 150.52 160.87 150.35 161.26 150.14"/><path d="M158.27 150.41 158.31 150.5"/><path d="M161.07 150.12 161.06 150.25"/><path d="M168.41 143.81 168.42 143.37 168.8 142.92 169.5 142.53 170.44 142.22 170.97 142.11 171.52 142.03 172.63 141.99 173.64 142.1 174.44 142.34 174.95 142.69 175.12 143.12 175.31 145.18"/><path d="M173.36 143.59 172.98 143.81 172.46 143.98 171.87 144.09 171.26 144.11 170.71 144.05 170.26 143.92 169.98 143.72"/><path d="M170.38 143.87 170.41 143.96"/><path d="M170.98 142.11 171.19 141.8 173.02 138.73 176.34 135.77 177.59 135.11"/><path d="M173.62 153.96 173.43 151.89 173.45 151.45 173.83 151 174.52 150.6 175.46 150.3 175.99 150.19 176.54 150.11 177.65 150.07 178.66 150.18 179.47 150.42 179.98 150.77 180.14 151.2 180.33 153.26"/><path d="M173.17 143.58 173.17 143.71"/><path d="M175 151.8 175.29 151.99 175.73 152.13 176.29 152.19 176.89 152.16 177.49 152.06 178.01 151.89 178.39 151.67"/><path d="M175.4 151.95 175.44 152.04"/><path d="M192.93 154.56 190.61 153.99 186.48 152.66 183.26 150.98 181.05 149 180.88 148.87 180.61 148.79 179.99 148.73 179.76 148.67 179.58 148.59 179.47 148.48 177.08 144.63 177.05 144.49"/><path d="M177.45 145.24 177.68 145.14 178.01 145.06 179.73 144.77 180.02 144.7 180.28 144.6 180.46 144.49 182.51 141.84 186.34 138.15 186.81 137.39 186.71 136.36 186.57 135.62 185.82 135 184.55 134.55 184.32 134.52"/><path d="M178.2 151.66 178.19 151.79"/><path d="M177.77 137.05 177.58 134.98 177.6 134.54 177.98 134.09 178.67 133.69 179.61 133.38 180.14 133.27 180.7 133.2 181.8 133.16 182.81 133.26 183.62 133.51 184.13 133.86 184.3 134.29 184.49 136.35"/><path d="M179.16 134.89 179.44 135.08 179.88 135.22 180.44 135.28 181.05 135.25 181.64 135.15 182.16 134.98 182.54 134.76"/><path d="M179.55 135.04 179.59 135.13"/><path d="M182.34 134.87 182.35 134.75"/><path d="M190.96 158.25 190.77 156.19 190.79 155.74 191.17 155.3 191.86 154.9 192.8 154.59 193.33 154.48 193.88 154.4 194.99 154.36 196 154.47 196.8 154.71 197.32 155.07 197.48 155.49 197.67 157.56"/><path d="M192.34 156.09 192.63 156.29 193.07 156.42 193.63 156.48 194.23 156.46 194.83 156.36 195.34 156.19 195.73 155.97"/><path d="M192.74 156.24 192.78 156.33"/><path d="M195.54 155.95 195.53 156.08"/></g></g><g id="Actor_.6"><g stroke="#000000" stroke-width="0.353"><path d="M72.7 184.05 72.32 179.92 69.53 177.82 67.6 175.51 66.56 173.05"/><path d="M69.98 171.38 71.02 169.74 73.04 168.19 73.39 172"/><path d="M72.32 179.92 73.72 180.5 75.61 180.82 77.76 180.85 79.97 180.59 80.35 184.72"/><path d="M72.22 176.52 72.29 176.25 72.57 175.97 73.02 175.73 73.6 175.55 73.82 177.92"/><path d="M73.6 175.55 78.76 174.3 79.13 178.43"/><path d="M74.58 174.13 74.45 172.72 73.94 172.88 73.55 173.09 73.32 173.33 73.28 173.57"/><path d="M73.04 168.19 73.62 167.94 74.34 167.76 75.12 167.69 75.86 167.73 76.48 167.87 76.9 168.1 77.12 170.52"/><path d="M74.45 172.72 76.01 172.34 76.16 173.96"/><path d="M76.01 172.34 76.59 172.24 77.19 172.21 77.74 172.26 78.2 172.38 78.51 172.56 78.65 172.78"/><path d="M76.9 168.1 77.93 169.01 77.99 169.61"/><path d="M77.93 169.01 78.1 169.27"/><path d="M78.76 174.3 79.43 174.18 80.12 174.15 80.76 174.2 81.14 178.33"/><path d="M79.05 167.56 79.1 167.32 79.32 167.08 79.71 166.87 80.22 166.71 80.8 166.61 81.4 166.58 81.96 166.63 82.41 166.75 82.72 166.93 82.86 168.4"/><path d="M79.97 180.59 86.05 179.27 91.77 177.63 96.99 175.72 97.37 179.85"/><path d="M90.12 170.62 89.87 169.98 89.1 169.45 87.89 169.08 86.38 168.92 84.72 168.99 83.89 169.1 83.1 169.26 81.69 169.73 80.64 170.32 80.08 170.99 80.05 171.66"/><path d="M80.76 174.2 82.97 174.39 83.34 178.41"/><path d="M82.97 174.39 83.61 174.45 84.13 174.59 84.49 174.8 84.79 178.09"/><path d="M83.42 168.01 83.37 167.5 82.72 166.93"/><path d="M83.51 167.72 83.37 167.5"/><path d="M84.49 174.8 86.63 176.69 86.69 177.29"/><path d="M86.63 176.69 86.79 176.94"/><path d="M86.6 174.23 86.65 173.99 86.88 173.75 87.27 173.54 87.78 173.37 88.36 173.27 88.95 173.25 89.51 173.29 89.96 173.41 90.28 173.59 90.41 175.07"/><path d="M86.42 166.2 86.66 165.78 86.76 166.85"/><path d="M86.66 165.78 91.82 160.41 92.19 164.54"/><path d="M90.28 173.59 90.92 174.16 90.97 174.67"/><path d="M91.06 174.38 90.92 174.16"/><path d="M92.77 169.72 92.64 168.31 92.13 168.47 91.74 168.69 91.51 168.92 91.46 169.17"/><path d="M92.42 173.14 92.32 172.13 92.07 172.4 92.02 172.68"/><path d="M92.32 172.13 93.23 171.18 93.49 174"/><path d="M92.64 168.31 94.2 167.93 94.34 169.55"/><path d="M98.3 160.53 98.22 160.11 97.82 159.75 97.14 159.49 96.23 159.34 95.2 159.32 94.15 159.43 93.17 159.67 92.37 160 91.82 160.41"/><path d="M93.23 171.18 93.5 170.9 93.79 170.75 93.96 170.66 94.55 170.47 94.9 174.25"/><path d="M94.55 170.47 97.03 169.87 97.37 173.53"/><path d="M94.2 167.93 94.78 167.83 95.37 167.8 95.93 167.85 96.38 167.97 96.7 168.15 96.84 168.37"/><path d="M103.55 168.91 103.41 170.69 102.21 172.49 100.03 174.2 96.99 175.72"/><path d="M97.03 169.87 97.79 169.74 98.57 169.72 99.26 169.81 99.79 170 100.09 170.26 100.13 170.57"/><path d="M103.67 163.45 103.29 159.32 101.48 162.04 101.26 164.73"/><path d="M103.29 159.32 121.79 140.05 122.17 144.18"/><path d="M121.79 140.05 125.09 137.22 125.47 141.35"/><path d="M125.09 137.22 142.87 124.38 144.63 122.85 145.76 121.26 146.13 125.39"/><path d="M131.01 124.1 130.99 123.63 131.36 123.14 132.08 122.71 133.07 122.37 133.31 125"/><path d="M132.71 114.46 131.98 112.34"/><path d="M133.07 122.37 133.56 122.21 133.95 122.01 134.23 121.79 134.53 124.99"/><path d="M134.23 121.79 139.67 115.99 140.02 119.82"/><path d="M138.15 123.21 137.89 122.77 137.98 123.72"/><path d="M137.89 122.77 137.74 122.56"/><path d="M139.41 114.87 139.55 114.39 140.07 113.92 140.92 113.52 141.99 113.23 143.18 113.08 144.35 113.09 145.37 113.26 146.13 113.57 146.54 113.98"/><path d="M139.67 115.99 139.81 115.76 139.81 115.53"/><path d="M142.87 124.38 143.25 128.51"/><path d="M145.76 121.26 147.49 117.79 147.87 121.92"/><path d="M150.4 120.69 150.02 116.55 149.14 116.76 148.38 117.05 147.82 117.4 147.49 117.79"/><path d="M150.02 116.55 159.81 114.88"/></g><g stroke="#000000" stroke-width="0.353"><path d="M101.26 164.73 103.55 168.91 103.93 173.04 103.78 174.82 102.59 176.62 100.41 178.33 97.37 179.85 92.14 181.76 86.43 183.4 80.35 184.72 78.14 184.98 75.98 184.95 74.1 184.63 72.7 184.05 69.91 181.95 67.97 179.64 66.94 177.18 66.56 173.05 66.7 171.27 67.89 169.48 70.06 167.76 73.09 166.24 82.42 163.08 87 160.77 90.29 158.18 118.58 128.71 121.88 125.88 128.54 121.07 130.96 118.91 132.37 116.68 132.71 114.46"/><path d="M78.1 169.27 78.05 169.54 76.61 171.05 76.15 171.29 75.56 171.48 73.08 172.08 72.32 172.21 71.55 172.23 70.85 172.14 70.32 171.95 70.02 171.68 69.98 171.38"/><path d="M86.79 176.94 86.75 177.22 86.5 177.49 86.07 177.74 85.5 177.93 79.08 179.36 77.97 179.49 76.89 179.48 75.95 179.31 75.25 179.03 72.36 176.78 72.22 176.52"/><path d="M78.65 172.78 78.6 173.02 78.37 173.26 77.99 173.47 77.48 173.64 75.92 174.01 75.34 174.11 74.74 174.14 74.19 174.09 73.73 173.97 73.42 173.79 73.28 173.57"/><path d="M75.77 179.24 79.13 178.43 79.81 178.31 80.5 178.28 82.99 178.49"/><path d="M79.05 167.56 79.19 167.78 79.84 168.35 80.15 168.53 80.61 168.65 81.16 168.7 81.75 168.67 82.34 168.57 82.85 168.41 83.24 168.2 83.46 167.96 83.51 167.72"/><path d="M90.12 170.62 89.82 171.29 89 171.93 88.1 172.32 87.76 172.47 86.22 172.85 84.56 173.02 82.95 172.97 81.57 172.7 80.57 172.25 80.05 171.66"/><path d="M91.06 174.38 91.02 174.63 90.79 174.86 90.4 175.08 89.89 175.24 89.31 175.34 88.71 175.37 88.16 175.32 87.7 175.2 87.39 175.02 86.74 174.45 86.6 174.23"/><path d="M98.3 160.53 98.06 160.95 92.9 166.32 92.35 166.73 91.55 167.06 90.57 167.3 89.52 167.41 88.49 167.39 87.59 167.24 86.91 166.98 86.5 166.62 86.42 166.2"/><path d="M89.44 167.41 92.19 164.54 92.75 164.14 93.55 163.8 94.52 163.56 95.66 163.45"/><path d="M91.46 169.17 91.6 169.39 91.92 169.56 92.37 169.69 92.93 169.73 93.52 169.71 94.1 169.61 95.66 169.23 96.17 169.06 96.56 168.85 96.79 168.61 96.84 168.37"/><path d="M100.13 170.57 99.1 172.2 97.07 173.75 96.49 174.01 95.77 174.18 94.99 174.25 94.25 174.22 93.63 174.08 93.21 173.85 92.18 172.94 92.02 172.68"/><path d="M132.39 116.57 132.36 116.47 131.98 112.34 152.37 108.85 152.81 109.2 152.97 109.26 153.51 109.46 154.41 109.62 155.44 109.64 156.5 109.55 159.81 114.88 160.19 119.01 150.4 120.69 149.51 120.89 148.76 121.18 148.2 121.53 147.87 121.92 146.13 125.39 145.01 126.98 143.25 128.51 125.47 141.35 122.17 144.18 103.67 163.45 101.97 166.01"/><path d="M138.15 123.21 138.01 123.7 137.49 124.17 136.64 124.57 135.56 124.86 134.38 125.01 133.21 125 132.19 124.83 131.43 124.52 131.01 124.1"/><path d="M137.75 122.57 135.62 124.84"/><path d="M137.86 123.83 137.74 122.56 137.74 122.33 137.89 122.1 143.32 116.29 143.6 116.07 144 115.88 145.48 115.38 146.2 114.94 146.57 114.46 146.54 113.98"/><path d="M140.19 119.64 139.81 115.53 139.67 115.32 139.41 114.87"/><path d="M142.31 117.37 141.29 117.65 140.45 118.05 140.07 118.39"/></g></g><g id="Actor_.7"><g stroke="#000000" stroke-width="0.353"><path d="M137.01 58.5 136.57 58.92 135.99 59.2 135.84 59.28 134.9 59.54 133.86 59.69 132.82 59.69 131.9 59.56 131.2 59.3"/><path d="M130.69 58.16 130.76 58.58 131.17 58.94 131.87 59.2 131.92 59.2 132.79 59.33 133.83 59.33 134.87 59.18 135.81 58.92 136.54 58.56 136.97 58.14 137.08 57.71"/><path d="M135.7 59.82 135.46 60.04 135.07 60.24 134.57 60.38 134.01 60.46 133.45 60.46 132.96 60.39 132.58 60.25"/><path d="M132.4 60.12 132.62 60.31 132.98 60.45 133.47 60.52 134.02 60.52 134.57 60.44 135.06 60.3 135.44 60.11 135.67 59.89 135.69 59.84"/><path d="M132.62 57.99 133.58 57.56 134.83 57.61 134.89 58.21"/><path d="M135.54 66.5 135.13 66.62 134.58 66.69 134.03 66.69 133.55 66.62 133.18 66.49"/><path d="M133.66 58.51 133.58 57.56"/><path d="M134.83 57.61 135.14 58.1"/></g><g stroke="#000000" stroke-width="0.353"><path d="M135.67 59.87 135.68 59.84 135.7 59.82 137.01 58.5 137.11 58.07 137.08 57.71 136.84 57.32 136.27 57.01 135.45 56.81 134.46 56.74 133.4 56.82 132.4 57.02 131.55 57.34 130.96 57.74 130.69 58.16 130.72 58.53 130.79 58.94 131.2 59.3 132.58 60.25"/><path d="M135.61 66.61 135.46 66.68 135.06 66.79 134.61 66.85 134.17 66.86 133.77 66.8 133.47 66.69 133.18 66.49 132.96 66.3 132.93 66.08 132.38 60.11"/><path d="M135.14 58.1 134.18 58.53 132.92 58.48 132.62 57.99"/><path d="M135.74 59.78 136.2 64.86"/></g></g><g id="Actor_.8"><g stroke="#000000" stroke-width="0.353"><path d="M135.61 66.61 136.17 66.93 137 67.13 137.99 67.19 138.1 67.19 139.04 67.12 140.05 66.91 140.89 66.59 141.48 66.2"/><path d="M135.33 65.86 135.58 66.25 136.14 66.57 136.96 66.77 137.96 66.83 139.01 66.76 140.02 66.55 140.86 66.23 141.35 65.9 141.45 65.84 141.73 65.41"/><path d="M137.1 67.64 137.41 67.81 137.85 67.92 138.38 67.95 138.95 67.91 139.49 67.8 139.94 67.63 140.26 67.42"/><path d="M140.32 67.36 140.23 67.49 139.92 67.7 139.48 67.87 138.95 67.97 138.39 68.01 137.87 67.98 137.44 67.87 137.14 67.71 137.1 67.64"/><path d="M137.28 65.48 138.23 65.04 138.32 65.99"/><path d="M140.8 73.66 140.49 73.87 140.04 74.04 139.51 74.15 138.96 74.19 138.43 74.15 138 74.05 137.71 73.88"/><path d="M138.23 65.04 139.49 65.1 139.54 65.7"/><path d="M139.49 65.1 139.79 65.58"/></g><g stroke="#000000" stroke-width="0.353"><path d="M137.12 67.66 137.1 67.64 135.61 66.61 135.37 66.22 135.33 65.86 135.44 65.44 135.88 65.02 136.6 64.66 137.54 64.39 138.58 64.25 139.62 64.24 140.54 64.38 141.25 64.64 141.65 65 141.73 65.41 141.76 65.77 141.48 66.2 140.26 67.42 140.24 67.44"/><path d="M140.38 67.3 140.94 73.44 140.8 73.66 140.54 73.92 140.28 74.09 139.92 74.23 139.49 74.32 139.04 74.35 138.62 74.32 138.26 74.23 138.02 74.1 137.71 73.88 137.58 73.68 137.02 67.59"/><path d="M137.28 65.48 137.58 65.96 138.84 66.02 139.79 65.58"/></g></g><g id="Actor_.9"><g stroke="#000000" stroke-width="0.353"><path d="M160.52 118.95 160.14 114.82 156.82 109.49"/><path d="M159.41 108.07 159.37 107.65"/><path d="M160.14 114.82 169.93 113.15 170.31 117.28"/><path d="M169.36 109.98 169.58 109.49 170.17 109.03 171.07 108.65 172.18 108.39 173.37 108.27 174.52 108.31 175.5 108.51 176.19 108.85 176.54 109.28 176.76 111.68"/><path d="M169.93 113.15 170.88 113.04 171.82 113.04 172.66 113.15 173.36 113.36 173.73 117.49"/><path d="M173.36 113.36 178.67 115.63 179.04 119.76"/><path d="M177.54 111.87 177.35 109.8 176.95 109.66 176.68 109.49 176.54 109.28"/><path d="M177.35 109.8 188.4 112.54 188.66 115.42"/><path d="M178.67 115.63 181.36 116.56 184.5 117.25 184.88 121.39"/><path d="M202.7 124.4 202.32 120.27 184.5 117.25"/><path d="M188.4 112.54 188.89 112.62 189.43 112.64 190.01 112.61 190.26 115.44"/><path d="M190.01 112.61 191.2 112.56 192.29 112.67 193.16 112.93 193.72 113.31 193.9 113.76"/><path d="M202.32 120.27 208.23 121.55 213.36 123.25 217.56 125.33 217.94 129.46"/><path d="M217.56 125.33 241.59 139.91 241.97 144.04"/><path d="M241.59 139.91 244.26 142.16 245.39 144.72"/><path d="M253.62 158.57 253.25 154.44 249.8 153.59 247.11 152.39 245.35 150.9 244.6 149.21"/><path d="M246.75 139.64 247.02 139.21 247.59 138.81 248.41 138.48 249.39 138.25 250.45 138.15 251.47 138.18 252.36 138.34 253.03 138.61 253.4 142.74"/><path d="M248.4 149.81 248.6 149.49 249.05 149.2 249.69 148.98 250.44 148.84 251.22 148.8 251.52 152.13"/><path d="M251.22 148.8 253.81 148.88 254.16 152.68"/><path d="M250.9 147.32 250.95 147.09 251.2 146.84 251.6 146.63 252.11 146.47 252.7 146.38 253.29 146.36 253.44 147.94"/><path d="M253.25 154.44 258.94 155.22 265.01 155.63 271.32 155.66 271.7 159.79"/><path d="M253.29 146.36 254.93 146.4 255.06 147.85"/><path d="M253.03 138.61 259.83 142.74 259.94 143.98"/><path d="M253.81 148.88 254.45 148.94 254.97 149.08 255.33 149.29 255.6 152.32"/><path d="M255.33 149.29 256.53 150.02 256.64 151.25"/><path d="M254.93 146.4 255.47 146.46 255.92 146.58 256.22 146.76 256.35 146.99"/><path d="M256.53 150.02 256.87 150.23 257.01 150.49"/><path d="M258.61 152.11 258.57 151.7 258.51 151.94"/><path d="M258.57 151.7 259 151.01 259.13 152.4"/><path d="M259 151.01 259.25 150.77 259.64 150.57 260.16 150.41 260.74 150.31 261.34 150.29 261.89 150.35 262.33 150.47 262.63 150.65 262.76 150.88"/><path d="M258.14 148.11 258.16 147.45 258.73 146.77 259.77 146.17 261.18 145.71 261.98 145.55 262.81 145.43 264.46 145.37 265.98 145.53 267.13 145.88 267.19 145.9 267.96 146.43 268.21 147.06"/><path d="M260.27 143.52 260.21 143.1 259.83 142.74"/><path d="M263.62 153.75 263.57 153.26 263.5 153.53"/><path d="M265.29 154.23 264.99 151 263.57 153.26"/><path d="M264.14 144.42 264.02 143.04 263.59 143.72 263.63 144.14"/><path d="M263.59 143.72 263.53 143.97"/><path d="M264.02 143.04 264.26 142.8 264.66 142.59 265.17 142.43 265.76 142.34 265.95 142.33 266.36 142.32 266.9 142.37 267.35 142.5 267.65 142.68 267.78 142.9"/><path d="M266.68 154.24 266.32 150.29 265.74 150.48 265.27 150.72 264.99 151"/><path d="M268.76 153.79 268.38 149.66 266.32 150.29"/><path d="M268.38 149.66 268.99 149.47 269.66 149.36 270.35 149.34 270.73 153.47"/><path d="M269.94 147.86 270 147.61 270.24 147.38 270.64 147.17 271.16 147.01 271.74 146.91 272.34 146.89 272.48 148.47"/><path d="M269.28 144.35 269.35 144.1 269.39 144.56"/><path d="M269.35 144.1 269.35 144.07 270.03 142.98 270.23 145.11"/><path d="M270.03 142.98 270.36 142.68 270.91 142.41 271.61 142.23 272.39 142.14 273.14 142.16 273.79 142.28 274.13 146.01"/><path d="M270.35 149.34 275.75 149.49 276 152.29"/><path d="M271.32 155.66 273.55 155.46 275.61 154.99 277.32 154.29 278.47 153.45 278.85 157.58"/><path d="M272.34 146.89 273.97 146.94 274.1 148.38"/><path d="M273.97 146.94 274.52 146.99 274.96 147.12 275.26 147.3 275.39 147.52"/><path d="M273.79 142.28 276.27 143.36 277.82 144.73 277.85 145.09"/><path d="M275.75 149.49 276.38 149.55 276.9 149.7 277.25 149.9 277.41 150.15"/><path d="M277.82 144.73 277.89 145.04"/><path d="M278.47 153.45 280.45 150.85 281.53 148.23 281.69 145.65"/></g><g stroke="#000000" stroke-width="0.353"><path d="M245.39 144.72 244.6 149.21 244.98 153.34 245.73 155.03 247.49 156.52 250.18 157.72 253.62 158.57 259.32 159.35 265.38 159.76 271.7 159.79 273.92 159.59 275.99 159.12 277.7 158.42 278.85 157.58 280.83 154.98 281.91 152.36 282.07 149.78 281.69 145.65 280.95 143.96 279.2 142.47 276.52 141.26 273.08 140.41 263 139.27 257.8 137.98 253.75 136.15 223.72 117.94 219.52 115.86 214.4 114.16 208.48 112.88 192.36 110.15 187.97 109.16 184.33 107.79 181.58 106.12 179.76 104.16 159.37 107.65 159.41 108.07 159.14 108.5 158.58 108.9 157.79 109.24 156.82 109.49 156.89 110.18"/><path d="M244.98 147.06 244.64 146.29 241.97 144.04 217.94 129.46 213.73 127.38 208.61 125.68 202.7 124.4 184.88 121.39 181.73 120.69 179.04 119.76 173.73 117.49 173.04 117.28 172.19 117.17 171.26 117.17 170.31 117.28 160.52 118.95 160.13 118.33"/><path d="M169.36 109.98 169.54 110.44 170.1 110.82 170.97 111.07 172.06 111.18 173.83 111.1 174.38 111.12 174.86 111.21 185.91 113.94 186.31 114.08 186.59 114.26 186.73 114.47 187.07 114.9 187.77 115.23 188.74 115.43 189.89 115.48 191.09 115.36 192.19 115.09 193.09 114.71 193.68 114.25 193.9 113.76"/><path d="M246.75 139.64 246.81 140.05 247.19 140.41 253.99 144.54 254.66 144.82 255.65 144.98 256.57 145 257.63 144.9 258.61 144.67 259.43 144.34 260 143.94 260.27 143.52"/><path d="M248.4 149.81 248.47 150.11 250.02 151.48 252.5 152.56 253.14 152.69 253.9 152.71 254.68 152.62 255.38 152.43 255.93 152.17 256.26 151.86 256.94 150.77 257.01 150.49"/><path d="M250.9 147.32 251.02 147.54 251.32 147.73 251.77 147.85 252.32 147.91 253.95 147.95 254.55 147.93 255.13 147.83 255.65 147.67 256.05 147.47 256.29 147.23 256.35 146.99"/><path d="M257.05 144.96 253.4 142.74 252.74 142.47 251.85 142.31 250.83 142.28 250.35 142.33"/><path d="M258.51 151.94 258.64 152.16 258.94 152.35 259.39 152.47 259.93 152.53 260.34 152.51 260.53 152.5 261.11 152.41 261.63 152.25 262.03 152.04 262.27 151.8 262.7 151.12 262.76 150.88"/><path d="M258.14 148.11 258.65 148.7 259.66 149.15 261.04 149.42 262.65 149.47 264.31 149.3 265.85 148.92 267.09 148.38 267.91 147.74 268.21 147.06"/><path d="M263.5 153.54 263.64 153.79 263.97 154.01 264.47 154.15 265.09 154.23 271.77 154.29 272.88 154.19 273.91 153.95 274.77 153.61 275.34 153.19 277.37 150.43 277.41 150.15"/><path d="M263.53 143.97 263.66 144.19 263.96 144.37 264.4 144.5 264.95 144.55 265.55 144.53 266.13 144.43 266.65 144.27 267.05 144.06 267.29 143.83 267.72 143.14 267.78 142.9"/><path d="M274.8 153.59 270.73 153.47 270.04 153.5 269.36 153.6 267.27 154.25"/><path d="M269.94 147.86 270.07 148.08 270.37 148.26 270.81 148.39 271.52 148.45 272.99 148.49 273.59 148.46 274.17 148.37 274.69 148.21 275.09 148 275.33 147.76 275.39 147.52"/><path d="M269.28 144.35 269.42 144.61 271.32 145.76 271.84 145.91 272.47 145.97 275.07 146.04 275.85 146.01 276.6 145.87 277.24 145.64 277.69 145.35 277.89 145.04"/></g></g><g id="Actor_.10"><g stroke="#000000" stroke-width="0.353"><path d="M171.44 61.4 170.85 61.79 170 62.11 169 62.32 167.94 62.39 166.95 62.33 166.13 62.13 165.57 61.81"/><path d="M171.68 60.61 171.41 61.04 170.81 61.43 169.97 61.75 168.97 61.96 168.6 61.98 167.91 62.03 166.92 61.97 166.1 61.77 165.53 61.45 165.29 61.06"/><path d="M167.06 62.84 167.36 63.01 167.8 63.12 168.34 63.16 168.9 63.12 169.44 63 169.89 62.83 170.21 62.62"/><path d="M167.05 62.84 167.1 62.91 167.39 63.07 167.83 63.18 168.35 63.21 168.9 63.18 169.43 63.07 169.88 62.9 170.19 62.69 170.27 62.56"/><path d="M169.75 60.78 169.44 60.3 168.19 60.25 167.23 60.68"/><path d="M170.75 68.87 170.44 69.07 170 69.24 169.47 69.35 168.91 69.39 168.39 69.35 167.96 69.25 167.66 69.08"/><path d="M168.27 61.19 168.19 60.25"/><path d="M169.5 60.9 169.44 60.3"/></g><g stroke="#000000" stroke-width="0.353"><path d="M167.08 62.86 167.06 62.84 165.57 61.81 165.32 61.42 165.29 61.06 165.39 60.64 165.83 60.22 166.56 59.86 167.5 59.59 168.54 59.45 169.58 59.45 170.5 59.58 171.2 59.84 171.61 60.2 171.68 60.61 171.71 60.97 171.44 61.4 170.21 62.62 170.2 62.64"/><path d="M166.98 62.79 167.53 68.88 167.66 69.08 167.98 69.3 168.22 69.44 168.57 69.52 168.6 69.52 169 69.55 169.45 69.52 169.88 69.43 170.24 69.29 170.49 69.12 170.75 68.87 170.9 68.64 170.34 62.5"/><path d="M167.23 60.68 167.53 61.16 168.79 61.22 169.75 60.78"/></g></g><g id="Actor_.11"><g stroke="#000000" stroke-width="0.353"><path d="M120.09 53.03 119.99 53.46 119.55 53.87 119.47 53.91 118.82 54.24 117.88 54.5 116.84 54.64 115.8 54.65 115 54.53 114.88 54.51 114.18 54.25 113.77 53.9 113.7 53.48"/><path d="M120.02 53.82 119.58 54.24 118.85 54.6 117.92 54.86 116.87 55.01 115.83 55.01 114.91 54.87 114.21 54.61"/><path d="M115.59 55.57 115.97 55.71 116.46 55.78 117.02 55.78 117.24 55.75 117.58 55.7 118.08 55.56 118.47 55.36 118.71 55.14"/><path d="M118.7 55.15 118.68 55.21 118.45 55.43 118.07 55.62 117.58 55.76 117.03 55.84 116.48 55.84 116 55.77 115.63 55.63 115.41 55.44"/><path d="M118.15 53.42 117.85 52.93 116.59 52.88 115.63 53.31"/><path d="M119.25 61.38 119.02 61.6 118.63 61.79 118.14 61.93 117.59 62.01 117.04 62.01 116.56 61.94 116.19 61.8"/><path d="M116.67 53.83 116.59 52.88"/><path d="M117.85 52.93 117.9 53.53"/></g><g stroke="#000000" stroke-width="0.353"><path d="M115.59 55.57 114.21 54.61 113.8 54.26 113.73 53.84 113.7 53.48 113.97 53.05 114.57 52.66 115.41 52.34 116.41 52.14 117.47 52.06 118.46 52.13 119.28 52.33 119.85 52.64 120.09 53.03 120.12 53.39 120.02 53.82 118.71 55.14 118.69 55.16 118.69 55.18"/><path d="M115.39 55.43 115.94 61.4 115.98 61.62 116.19 61.8 116.48 62.01 116.78 62.12 117.18 62.17 117.62 62.17 118.07 62.11 118.35 62.03 118.47 62 118.78 61.84 118.97 61.67 119.25 61.38 119.3 61.16 118.75 55.1"/><path d="M115.63 53.31 115.94 53.79 117.19 53.85 118.15 53.42"/></g></g><g id="Actor_.12"><g stroke="#000000" stroke-width="0.353"><path d="M169.45 43.94 169.52 44.35 169.93 44.71 170.63 44.97 171.55 45.11 172.59 45.1 173.63 44.96 174.57 44.69 175.3 44.33 175.74 43.92 175.84 43.49"/><path d="M169.96 45.07 170.66 45.33 171.59 45.47 172.62 45.46 173.67 45.32 174.6 45.05 175.3 44.71 175.33 44.69 175.77 44.28"/><path d="M171.94 52.26 172.31 52.4 172.8 52.47 173.34 52.47 173.89 52.39 174.38 52.25 174.77 52.06 175 51.84"/><path d="M171.34 46.02 171.72 46.16 171.74 46.17 172.21 46.24 172.77 46.23 173.33 46.16 173.83 46.01 174.22 45.82 174.46 45.6"/><path d="M171.16 45.9 171.38 46.09 171.75 46.22 172.23 46.3 172.78 46.29 173.33 46.22 173.82 46.08 174.2 45.89 174.43 45.67 174.45 45.61"/><path d="M172.43 44.28 172.34 43.33 171.38 43.77"/><path d="M172.34 43.33 173.6 43.39 173.9 43.87"/><path d="M173.6 43.39 173.65 43.99"/></g><g stroke="#000000" stroke-width="0.353"><path d="M171.34 46.02 169.96 45.07 169.55 44.72 169.48 44.3 169.45 43.94 169.72 43.51 170.32 43.12 171.16 42.8 172.16 42.59 173.22 42.52 174.21 42.59 175.03 42.79 175.6 43.1 175.84 43.49 175.87 43.85 175.77 44.28 174.46 45.6 174.44 45.62 174.44 45.64"/><path d="M174.5 45.56 175.05 51.62 175 51.84 174.72 52.12 174.53 52.3 174.22 52.46 174.18 52.47 173.82 52.57 173.37 52.63 172.93 52.63 172.54 52.57 172.23 52.46 171.94 52.26 171.73 52.07 171.69 51.86 171.14 45.89"/><path d="M171.38 43.77 171.69 44.25 172.94 44.31 173.9 43.87"/></g></g><g id="Actor_.13"><g stroke="#000000" stroke-width="0.353"><path d="M188.78 65.69 188.19 66.09 187.34 66.41 186.34 66.61 185.28 66.69 184.29 66.62 184.23 66.61 183.47 66.42 182.9 66.11"/><path d="M189.02 64.91 188.74 65.33 188.15 65.73 187.31 66.04 186.31 66.25 185.35 66.32 185.25 66.33 184.26 66.26 183.44 66.06 182.87 65.75 182.63 65.36"/><path d="M185 73.38 185.3 73.54 185.73 73.65 186.25 73.68 186.81 73.64 187.34 73.53 187.78 73.37 188.09 73.16"/><path d="M184.4 67.14 184.7 67.31 185.14 67.41 185.68 67.45 185.7 67.45 186.24 67.41 186.78 67.3 187.23 67.13 187.55 66.92"/><path d="M187.61 66.86 187.53 66.99 187.22 67.19 186.77 67.36 186.24 67.47 185.69 67.51 185.17 67.47 184.73 67.37 184.44 67.2 184.39 67.13"/><path d="M184.57 64.97 185.53 64.54 185.61 65.49"/><path d="M185.53 64.54 186.78 64.59 187.09 65.08"/><path d="M186.78 64.59 186.84 65.19"/></g><g stroke="#000000" stroke-width="0.353"><path d="M187.54 66.94 187.55 66.92 188.78 65.69 189.05 65.27 189.02 64.91 188.95 64.49 188.54 64.13 187.84 63.87 186.92 63.74 185.88 63.74 184.84 63.89 183.9 64.15 183.17 64.51 182.73 64.93 182.63 65.36 182.66 65.72 182.9 66.11 184.4 67.14 184.42 67.16"/><path d="M184.32 67.08 184.87 73.17 185 73.38 185.32 73.6 185.56 73.73 185.91 73.82 186.34 73.84 186.79 73.81 187.22 73.72 187.58 73.59 187.83 73.42 188.09 73.16 188.24 72.93 187.68 66.79"/><path d="M187.09 65.08 186.13 65.51 185.35 65.48 184.87 65.46 184.57 64.97"/></g></g><g id="Actor_.14"><g stroke="#000000" stroke-width="0.353"><path d="M133.03 75.24 132.44 75.63 131.59 75.95 130.59 76.16 129.53 76.23 128.54 76.16 127.72 75.96 127.15 75.65"/><path d="M126.88 74.9 127.12 75.29 127.68 75.6 128.51 75.8 129.5 75.87 129.52 75.87 130.56 75.79 131.56 75.59 132.4 75.27 132.99 74.87 133.27 74.45"/><path d="M132.34 82.7 132.03 82.91 131.59 83.08 131.06 83.19 130.5 83.22 129.98 83.19 129.55 83.08 129.25 82.92"/><path d="M128.65 76.68 128.95 76.85 129.39 76.96 129.93 76.99 130.49 76.95 131.03 76.84 131.48 76.67 131.8 76.46"/><path d="M128.64 76.68 128.69 76.75 128.98 76.91 129.42 77.02 129.94 77.05 130.49 77.01 131.02 76.9 131.47 76.73 131.78 76.53 131.86 76.4"/><path d="M128.82 74.51 129.78 74.08 129.86 75.03"/><path d="M129.78 74.08 131.03 74.14 131.33 74.62"/><path d="M131.03 74.14 131.09 74.73"/></g><g stroke="#000000" stroke-width="0.353"><path d="M128.67 76.7 128.65 76.68 127.15 75.65 126.91 75.26 126.88 74.9 126.98 74.47 127.42 74.06 128.15 73.69 129.08 73.43 130.13 73.29 131.17 73.28 132.09 73.42 132.79 73.68 133.2 74.03 133.27 74.45 133.3 74.81 133.03 75.24 131.8 76.46 131.79 76.48"/><path d="M128.57 76.62 129.12 82.71 129.25 82.92 129.57 83.14 129.81 83.27 130.16 83.36 130.58 83.39 131.04 83.35 131.47 83.27 131.83 83.13 132.08 82.96 132.34 82.7 132.49 82.48 131.92 76.33"/><path d="M131.33 74.62 130.38 75.05 129.12 75 128.82 74.51"/></g></g><g><g><path d="M173.42 52.62 174.09 59.91" stroke="#000000" stroke-width="0.353" stroke-dasharray="3.1 2.1 1 2.1"/><path d="M175.41 74.4 175.38 74.09" stroke="#000000" stroke-width="0.353" stroke-dasharray="3.1 2.1 1 2.1"/><path d="M177.17 93.67 176.62 87.6" stroke="#000000" stroke-width="0.353" stroke-dasharray="3.1 2.1 1 2.1"/></g><g><path d="M177.67 93.67 177.67 93.63 177.66 93.58 177.65 93.53 177.63 93.48 177.61 93.44 177.59 93.4 177.56 93.36 177.52 93.32 177.49 93.29 177.45 93.26 177.41 93.23 177.36 93.21 177.32 93.2 177.27 93.18 177.22 93.18 177.17 93.17 177.12 93.18 177.07 93.18 177.03 93.2 176.98 93.21 176.93 93.23 176.89 93.26 176.85 93.29 176.82 93.32 176.78 93.36 176.75 93.4 176.73 93.44 176.71 93.48 176.69 93.53 176.68 93.58 176.67 93.63 176.67 93.67 176.67 93.72 176.68 93.77 176.69 93.82 176.71 93.87 176.73 93.91 176.75 93.95 176.78 93.99 176.82 94.03 176.85 94.06 176.89 94.09 176.93 94.12 176.98 94.14 177.03 94.15 177.07 94.17 177.12 94.17 177.17 94.17 177.22 94.17 177.27 94.17 177.32 94.15 177.36 94.14 177.41 94.12 177.45 94.09 177.49 94.06 177.52 94.03 177.56 93.99 177.59 93.95 177.61 93.91 177.63 93.87 177.65 93.82 177.66 93.77 177.67 93.72Z" fill="#000000"/></g></g><g><g><path d="M117.67 62.17 118.34 69.45" stroke="#000000" stroke-width="0.353" stroke-dasharray="3.1 2.1 1 2.1"/><path d="M121.42 103.22 120.87 97.14" stroke="#000000" stroke-width="0.353" stroke-dasharray="3.1 2.1 1 2.1"/></g><g><path d="M121.92 103.22 121.92 103.17 121.91 103.12 121.9 103.07 121.88 103.03 121.86 102.98 121.84 102.94 121.81 102.9 121.77 102.86 121.74 102.83 121.7 102.8 121.66 102.78 121.61 102.76 121.56 102.74 121.52 102.73 121.47 102.72 121.42 102.72 121.37 102.72 121.32 102.73 121.27 102.74 121.23 102.76 121.18 102.78 121.14 102.8 121.1 102.83 121.07 102.86 121.03 102.9 121 102.94 120.98 102.98 120.96 103.03 120.94 103.07 120.93 103.12 120.92 103.17 120.92 103.22 120.92 103.27 120.93 103.31 120.94 103.36 120.96 103.41 120.98 103.45 121 103.49 121.03 103.53 121.07 103.57 121.1 103.6 121.14 103.63 121.18 103.66 121.23 103.68 121.27 103.7 121.32 103.71 121.37 103.71 121.42 103.72 121.47 103.71 121.52 103.71 121.56 103.7 121.61 103.68 121.66 103.66 121.7 103.63 121.74 103.6 121.77 103.57 121.81 103.53 121.84 103.49 121.86 103.45 121.88 103.41 121.9 103.36 121.91 103.31 121.92 103.27Z" fill="#000000"/></g></g><g><g><path d="M159.71 150.63 156.87 119.58" stroke="#000000" stroke-width="0.353" stroke-dasharray="3.1 2.1 1 2.1"/></g></g><g><g><path d="M165.38 73.82 165.25 72.4" stroke="#000000" stroke-width="0.353" stroke-dasharray="3.1 2.1 1 2.1"/><path d="M164.91 68.74 164.25 61.46" stroke="#000000" stroke-width="0.353" stroke-dasharray="3.1 2.1 1 2.1"/><path d="M167.99 102.51 166.12 82.02" stroke="#000000" stroke-width="0.353" stroke-dasharray="3.1 2.1 1 2.1"/></g><g><path d="M168.49 102.51 168.49 102.46 168.48 102.41 168.47 102.36 168.46 102.32 168.44 102.27 168.41 102.23 168.38 102.19 168.35 102.15 168.31 102.12 168.27 102.09 168.23 102.07 168.19 102.05 168.14 102.03 168.09 102.02 168.04 102.01 167.99 102.01 167.95 102.01 167.9 102.02 167.85 102.03 167.8 102.05 167.76 102.07 167.72 102.09 167.68 102.12 167.64 102.15 167.61 102.19 167.58 102.23 167.55 102.27 167.53 102.32 167.52 102.36 167.5 102.41 167.5 102.46 167.49 102.51 167.5 102.56 167.5 102.6 167.52 102.65 167.53 102.7 167.55 102.74 167.58 102.78 167.61 102.82 167.64 102.86 167.68 102.89 167.72 102.92 167.76 102.95 167.8 102.97 167.85 102.99 167.9 103 167.95 103 167.99 103.01 168.04 103 168.09 103 168.14 102.99 168.19 102.97 168.23 102.95 168.27 102.92 168.31 102.89 168.35 102.86 168.38 102.82 168.41 102.78 168.44 102.74 168.46 102.7 168.47 102.65 168.48 102.6 168.49 102.56Z" fill="#000000"/></g></g><g><g></g></g><g><g></g></g><g><g></g></g><g><g></g></g><g><g></g></g><g><g></g></g><g><g></g></g><g><g></g></g><g><g></g></g><g><g><path d="M135.39 74.13 134.73 66.84" stroke="#000000" stroke-width="0.353" stroke-dasharray="3.1 2.1 1 2.1"/><path d="M135.86 79.24 135.72 77.73" stroke="#000000" stroke-width="0.353" stroke-dasharray="3.1 2.1 1 2.1"/><path d="M138.49 107.99 137.24 94.34" stroke="#000000" stroke-width="0.353" stroke-dasharray="3.1 2.1 1 2.1"/><path d="M136.5 86.23 136.47 85.94" stroke="#000000" stroke-width="0.353" stroke-dasharray="3.1 2.1 1 2.1"/></g><g><path d="M138.99 107.99 138.98 107.95 138.98 107.9 138.96 107.85 138.95 107.8 138.93 107.76 138.9 107.72 138.87 107.68 138.84 107.64 138.8 107.61 138.76 107.58 138.72 107.55 138.68 107.53 138.63 107.52 138.58 107.5 138.53 107.5 138.49 107.49 138.44 107.5 138.39 107.5 138.34 107.52 138.29 107.53 138.25 107.55 138.21 107.58 138.17 107.61 138.13 107.64 138.1 107.68 138.07 107.72 138.04 107.76 138.02 107.8 138.01 107.85 138 107.9 137.99 107.95 137.99 107.99 137.99 108.04 138 108.09 138.01 108.14 138.02 108.19 138.04 108.23 138.07 108.27 138.1 108.31 138.13 108.35 138.17 108.38 138.21 108.41 138.25 108.44 138.29 108.46 138.34 108.47 138.39 108.49 138.44 108.49 138.49 108.49 138.53 108.49 138.58 108.49 138.63 108.47 138.68 108.46 138.72 108.44 138.76 108.41 138.8 108.38 138.84 108.35 138.87 108.31 138.9 108.27 138.93 108.23 138.95 108.19 138.96 108.14 138.98 108.09 138.98 108.04Z" fill="#000000"/></g></g><g><g><path d="M152.14 68 152.81 75.29" stroke="#000000" stroke-width="0.353" stroke-dasharray="3.1 2.1 1 2.1"/><path d="M155.89 109.05 153.62 84.16" stroke="#000000" stroke-width="0.353" stroke-dasharray="3.1 2.1 1 2.1"/><path d="M153.14 78.9 153.21 79.7" stroke="#000000" stroke-width="0.353" stroke-dasharray="3.1 2.1 1 2.1"/></g><g><path d="M156.39 109.05 156.39 109 156.38 108.95 156.37 108.9 156.35 108.86 156.33 108.81 156.3 108.77 156.28 108.73 156.24 108.69 156.21 108.66 156.17 108.63 156.12 108.61 156.08 108.59 156.03 108.57 155.99 108.56 155.94 108.55 155.89 108.55 155.84 108.55 155.79 108.56 155.74 108.57 155.7 108.59 155.65 108.61 155.61 108.63 155.57 108.66 155.54 108.69 155.5 108.73 155.47 108.77 155.45 108.81 155.43 108.86 155.41 108.9 155.4 108.95 155.39 109 155.39 109.05 155.39 109.1 155.4 109.15 155.41 109.19 155.43 109.24 155.45 109.28 155.47 109.33 155.5 109.37 155.54 109.4 155.57 109.43 155.61 109.46 155.65 109.49 155.7 109.51 155.74 109.53 155.79 109.54 155.84 109.55 155.89 109.55 155.94 109.55 155.99 109.54 156.03 109.53 156.08 109.51 156.12 109.49 156.17 109.46 156.21 109.43 156.24 109.4 156.28 109.37 156.3 109.33 156.33 109.28 156.35 109.24 156.37 109.19 156.38 109.15 156.39 109.1Z" fill="#000000"/></g></g><g><g><path d="M169.98 76.81 169.31 69.53" stroke="#000000" stroke-width="0.353" stroke-dasharray="3.1 2.1 1 2.1"/><path d="M173.06 110.58 171.01 88.12" stroke="#000000" stroke-width="0.353" stroke-dasharray="3.1 2.1 1 2.1"/></g><g><path d="M173.56 110.58 173.56 110.53 173.55 110.48 173.54 110.43 173.52 110.39 173.5 110.34 173.48 110.3 173.45 110.26 173.41 110.23 173.38 110.19 173.34 110.16 173.3 110.14 173.25 110.12 173.21 110.1 173.16 110.09 173.11 110.08 173.06 110.08 173.01 110.08 172.96 110.09 172.92 110.1 172.87 110.12 172.83 110.14 172.78 110.16 172.74 110.19 172.71 110.23 172.67 110.26 172.65 110.3 172.62 110.34 172.6 110.39 172.58 110.43 172.57 110.48 172.56 110.53 172.56 110.58 172.56 110.63 172.57 110.68 172.58 110.72 172.6 110.77 172.62 110.81 172.65 110.86 172.67 110.9 172.71 110.93 172.74 110.97 172.78 110.99 172.83 111.02 172.87 111.04 172.92 111.06 172.96 111.07 173.01 111.08 173.06 111.08 173.11 111.08 173.16 111.07 173.21 111.06 173.25 111.04 173.3 111.02 173.34 110.99 173.38 110.97 173.41 110.93 173.45 110.9 173.48 110.86 173.5 110.81 173.52 110.77 173.54 110.72 173.55 110.68 173.56 110.63Z" fill="#000000"/></g></g><g><g><path d="M140.02 81.61 139.36 74.33" stroke="#000000" stroke-width="0.353" stroke-dasharray="3.1 2.1 1 2.1"/><path d="M143.11 115.38 141.12 93.67" stroke="#000000" stroke-width="0.353" stroke-dasharray="3.1 2.1 1 2.1"/></g><g><path d="M143.61 115.38 143.6 115.33 143.6 115.28 143.58 115.23 143.57 115.19 143.55 115.14 143.52 115.1 143.49 115.06 143.46 115.02 143.42 114.99 143.38 114.96 143.34 114.94 143.3 114.92 143.25 114.9 143.2 114.89 143.15 114.88 143.11 114.88 143.06 114.88 143.01 114.89 142.96 114.9 142.91 114.92 142.87 114.94 142.83 114.96 142.79 114.99 142.75 115.02 142.72 115.06 142.69 115.1 142.66 115.14 142.64 115.19 142.63 115.23 142.62 115.28 142.61 115.33 142.61 115.38 142.61 115.43 142.62 115.48 142.63 115.52 142.64 115.57 142.66 115.61 142.69 115.66 142.72 115.69 142.75 115.73 142.79 115.76 142.83 115.79 142.87 115.82 142.91 115.84 142.96 115.86 143.01 115.87 143.06 115.88 143.11 115.88 143.15 115.88 143.2 115.87 143.25 115.86 143.3 115.84 143.34 115.82 143.38 115.79 143.42 115.76 143.46 115.73 143.49 115.69 143.52 115.66 143.55 115.61 143.57 115.57 143.58 115.52 143.6 115.48 143.6 115.43Z" fill="#000000"/></g></g><g><g><path d="M186.65 73.82 187.32 81.1" stroke="#000000" stroke-width="0.353" stroke-dasharray="3.1 2.1 1 2.1"/><path d="M190.4 114.87 187.74 85.7" stroke="#000000" stroke-width="0.353" stroke-dasharray="3.1 2.1 1 2.1"/></g><g><path d="M190.9 114.87 190.9 114.82 190.89 114.77 190.88 114.73 190.86 114.68 190.84 114.64 190.82 114.59 190.79 114.56 190.75 114.52 190.72 114.49 190.68 114.46 190.64 114.43 190.59 114.41 190.55 114.39 190.5 114.38 190.45 114.37 190.4 114.37 190.35 114.37 190.3 114.38 190.26 114.39 190.21 114.41 190.16 114.43 190.12 114.46 190.08 114.49 190.05 114.52 190.01 114.56 189.98 114.59 189.96 114.64 189.94 114.68 189.92 114.73 189.91 114.77 189.9 114.82 189.9 114.87 189.9 114.92 189.91 114.97 189.92 115.02 189.94 115.06 189.96 115.11 189.98 115.15 190.01 115.19 190.05 115.23 190.08 115.26 190.12 115.29 190.16 115.31 190.21 115.33 190.26 115.35 190.3 115.36 190.35 115.37 190.4 115.37 190.45 115.37 190.5 115.36 190.55 115.35 190.59 115.33 190.64 115.31 190.68 115.29 190.72 115.26 190.75 115.23 190.79 115.19 190.82 115.15 190.84 115.11 190.86 115.06 190.88 115.02 190.89 114.97 190.9 114.92Z" fill="#000000"/></g></g><g><g><path d="M130.9 83.36 131.57 90.64" stroke="#000000" stroke-width="0.353" stroke-dasharray="3.1 2.1 1 2.1"/><path d="M134.65 124.41 131.99 95.24" stroke="#000000" stroke-width="0.353" stroke-dasharray="3.1 2.1 1 2.1"/></g><g><path d="M135.15 124.41 135.15 124.37 135.14 124.32 135.13 124.27 135.11 124.22 135.09 124.18 135.07 124.14 135.04 124.1 135 124.06 134.97 124.03 134.93 124 134.89 123.97 134.84 123.95 134.79 123.94 134.75 123.92 134.7 123.92 134.65 123.91 134.6 123.92 134.55 123.92 134.5 123.94 134.46 123.95 134.41 123.97 134.37 124 134.33 124.03 134.3 124.06 134.26 124.1 134.23 124.14 134.21 124.18 134.19 124.22 134.17 124.27 134.16 124.32 134.15 124.37 134.15 124.41 134.15 124.46 134.16 124.51 134.17 124.56 134.19 124.61 134.21 124.65 134.23 124.69 134.26 124.73 134.3 124.77 134.33 124.8 134.37 124.83 134.41 124.86 134.46 124.88 134.5 124.89 134.55 124.9 134.6 124.91 134.65 124.91 134.7 124.91 134.75 124.9 134.79 124.89 134.84 124.88 134.89 124.86 134.93 124.83 134.97 124.8 135 124.77 135.04 124.73 135.07 124.69 135.09 124.65 135.11 124.61 135.13 124.56 135.14 124.51 135.15 124.46Z" fill="#000000"/></g></g><g></g><g id="paperID" visibility="hidden" opacity="0" transform="scale(0.0001 0.0001)"><path d="M-2000-2000 2297-2000 2297 2210-2000 2210ZM0 0 297 0 297 210 0 210Z" stroke="#000000" stroke-width="0.5" fill="#E6E6E6"/><path d="M3 210 297 210 297 3 300 3 300 213 3 213Z" fill="#000000" fill-opacity="0.118"/></g><g id="ToolTip" visibility="hidden" opacity="0"><rect x="0" y="0" width="30" height="8" id="ToolTipShadow" fill="#000000" opacity="0.2"/><rect x="0" y="0" width="30" height="8" id="ToolTipBG" stroke="#000000" fill="#FFFFE1"/><text id="ToolTipText" fill="#000000" xml:space="preserve" x="0" y="0">tooltip</text></g></g></svg>