<svg width="640" height="360" viewBox="0 0 640 360" fill="none" xmlns="http://www.w3.org/2000/svg">
<rect width="640" height="360" fill="#E5E5E5"/>
<path d="M239.05 42.0469V52H237.341V43.4141H232.918V52H231.209V42.0469H239.05ZM244.211 52.1367C243.664 52.1367 243.17 52.0479 242.728 51.8701C242.29 51.6878 241.916 51.4349 241.606 51.1113C241.301 50.7878 241.066 50.4072 240.902 49.9697C240.738 49.5322 240.656 49.0605 240.656 48.5547V48.2812C240.656 47.7025 240.741 47.1784 240.909 46.709C241.078 46.2396 241.312 45.8385 241.613 45.5059C241.914 45.1686 242.27 44.9111 242.68 44.7334C243.09 44.5557 243.534 44.4668 244.013 44.4668C244.541 44.4668 245.004 44.5557 245.4 44.7334C245.797 44.9111 246.125 45.1618 246.385 45.4854C246.649 45.8044 246.845 46.1849 246.973 46.627C247.105 47.069 247.171 47.5566 247.171 48.0898V48.7939H241.456V47.6113H245.544V47.4814C245.535 47.1852 245.476 46.9072 245.366 46.6475C245.261 46.3877 245.1 46.1781 244.881 46.0186C244.662 45.859 244.37 45.7793 244.006 45.7793C243.732 45.7793 243.489 45.8385 243.274 45.957C243.065 46.071 242.889 46.2373 242.748 46.4561C242.607 46.6748 242.497 46.9391 242.42 47.249C242.347 47.5544 242.311 47.8984 242.311 48.2812V48.5547C242.311 48.8783 242.354 49.179 242.44 49.457C242.532 49.7305 242.664 49.9697 242.837 50.1748C243.01 50.3799 243.22 50.5417 243.466 50.6602C243.712 50.7741 243.992 50.8311 244.307 50.8311C244.703 50.8311 245.056 50.7513 245.366 50.5918C245.676 50.4323 245.945 50.2067 246.173 49.915L247.041 50.7559C246.882 50.9883 246.674 51.2116 246.419 51.4258C246.164 51.6354 245.852 51.8063 245.482 51.9385C245.118 52.0706 244.694 52.1367 244.211 52.1367ZM250.11 46.0254V54.8438H248.463V44.6035H249.98L250.11 46.0254ZM254.93 48.2334V48.377C254.93 48.9147 254.866 49.4137 254.738 49.874C254.615 50.3298 254.431 50.7285 254.185 51.0703C253.943 51.4076 253.645 51.6696 253.289 51.8564C252.934 52.0433 252.523 52.1367 252.059 52.1367C251.598 52.1367 251.195 52.0524 250.849 51.8838C250.507 51.7106 250.217 51.4668 249.98 51.1523C249.743 50.8379 249.552 50.4688 249.406 50.0449C249.265 49.6165 249.165 49.1471 249.105 48.6367V48.083C249.165 47.5407 249.265 47.0485 249.406 46.6064C249.552 46.1644 249.743 45.7839 249.98 45.4648C250.217 45.1458 250.507 44.8997 250.849 44.7266C251.19 44.5534 251.589 44.4668 252.045 44.4668C252.51 44.4668 252.922 44.5579 253.282 44.7402C253.642 44.918 253.945 45.1732 254.191 45.5059C254.438 45.834 254.622 46.2305 254.745 46.6953C254.868 47.1556 254.93 47.6683 254.93 48.2334ZM253.282 48.377V48.2334C253.282 47.8916 253.25 47.5749 253.187 47.2832C253.123 46.987 253.022 46.7272 252.886 46.5039C252.749 46.2806 252.574 46.1074 252.359 45.9844C252.15 45.8568 251.897 45.793 251.601 45.793C251.309 45.793 251.058 45.8431 250.849 45.9434C250.639 46.0391 250.464 46.1735 250.322 46.3467C250.181 46.5199 250.072 46.7227 249.994 46.9551C249.917 47.1829 249.862 47.4313 249.83 47.7002V49.0264C249.885 49.3545 249.978 49.6553 250.11 49.9287C250.243 50.2021 250.429 50.4209 250.671 50.585C250.917 50.7445 251.231 50.8242 251.614 50.8242C251.91 50.8242 252.163 50.7604 252.373 50.6328C252.583 50.5052 252.754 50.3298 252.886 50.1064C253.022 49.8786 253.123 49.6165 253.187 49.3203C253.25 49.0241 253.282 48.7096 253.282 48.377ZM259.592 52.1367C259.045 52.1367 258.55 52.0479 258.108 51.8701C257.671 51.6878 257.297 51.4349 256.987 51.1113C256.682 50.7878 256.447 50.4072 256.283 49.9697C256.119 49.5322 256.037 49.0605 256.037 48.5547V48.2812C256.037 47.7025 256.121 47.1784 256.29 46.709C256.459 46.2396 256.693 45.8385 256.994 45.5059C257.295 45.1686 257.65 44.9111 258.061 44.7334C258.471 44.5557 258.915 44.4668 259.394 44.4668C259.922 44.4668 260.385 44.5557 260.781 44.7334C261.178 44.9111 261.506 45.1618 261.766 45.4854C262.03 45.8044 262.226 46.1849 262.354 46.627C262.486 47.069 262.552 47.5566 262.552 48.0898V48.7939H256.837V47.6113H260.925V47.4814C260.916 47.1852 260.856 46.9072 260.747 46.6475C260.642 46.3877 260.48 46.1781 260.262 46.0186C260.043 45.859 259.751 45.7793 259.387 45.7793C259.113 45.7793 258.869 45.8385 258.655 45.957C258.446 46.071 258.27 46.2373 258.129 46.4561C257.988 46.6748 257.878 46.9391 257.801 47.249C257.728 47.5544 257.691 47.8984 257.691 48.2812V48.5547C257.691 48.8783 257.735 49.179 257.821 49.457C257.912 49.7305 258.045 49.9697 258.218 50.1748C258.391 50.3799 258.601 50.5417 258.847 50.6602C259.093 50.7741 259.373 50.8311 259.688 50.8311C260.084 50.8311 260.437 50.7513 260.747 50.5918C261.057 50.4323 261.326 50.2067 261.554 49.915L262.422 50.7559C262.262 50.9883 262.055 51.2116 261.8 51.4258C261.545 51.6354 261.232 51.8063 260.863 51.9385C260.499 52.0706 260.075 52.1367 259.592 52.1367ZM265.095 44.6035L266.503 47.0576L267.938 44.6035H269.75L267.508 48.2334L269.839 52H268.027L266.523 49.4434L265.02 52H263.201L265.525 48.2334L263.29 44.6035H265.095ZM270.372 48.3838V48.2266C270.372 47.6934 270.45 47.1989 270.604 46.7432C270.759 46.2829 270.983 45.8841 271.274 45.5469C271.571 45.2051 271.931 44.9408 272.354 44.7539C272.783 44.5625 273.266 44.4668 273.804 44.4668C274.346 44.4668 274.829 44.5625 275.253 44.7539C275.681 44.9408 276.044 45.2051 276.34 45.5469C276.636 45.8841 276.862 46.2829 277.017 46.7432C277.172 47.1989 277.249 47.6934 277.249 48.2266V48.3838C277.249 48.917 277.172 49.4115 277.017 49.8672C276.862 50.3229 276.636 50.7217 276.34 51.0635C276.044 51.4007 275.684 51.665 275.26 51.8564C274.836 52.0433 274.355 52.1367 273.817 52.1367C273.275 52.1367 272.79 52.0433 272.361 51.8564C271.938 51.665 271.577 51.4007 271.281 51.0635C270.985 50.7217 270.759 50.3229 270.604 49.8672C270.45 49.4115 270.372 48.917 270.372 48.3838ZM272.02 48.2266V48.3838C272.02 48.7165 272.054 49.0309 272.122 49.3271C272.19 49.6234 272.298 49.8831 272.443 50.1064C272.589 50.3298 272.776 50.5052 273.004 50.6328C273.232 50.7604 273.503 50.8242 273.817 50.8242C274.123 50.8242 274.387 50.7604 274.61 50.6328C274.838 50.5052 275.025 50.3298 275.171 50.1064C275.317 49.8831 275.424 49.6234 275.492 49.3271C275.565 49.0309 275.602 48.7165 275.602 48.3838V48.2266C275.602 47.8984 275.565 47.5885 275.492 47.2969C275.424 47.0007 275.314 46.7386 275.164 46.5107C275.018 46.2829 274.831 46.1051 274.604 45.9775C274.38 45.8454 274.114 45.7793 273.804 45.7793C273.494 45.7793 273.225 45.8454 272.997 45.9775C272.774 46.1051 272.589 46.2829 272.443 46.5107C272.298 46.7386 272.19 47.0007 272.122 47.2969C272.054 47.5885 272.02 47.8984 272.02 48.2266ZM279.478 44.6035H281.125L281.043 47.208C281.02 47.9645 280.934 48.6139 280.783 49.1562C280.633 49.6986 280.437 50.1566 280.195 50.5303C279.954 50.8994 279.68 51.2025 279.375 51.4395C279.074 51.6764 278.757 51.8633 278.425 52H277.939V50.7012L278.172 50.6875C278.368 50.4779 278.536 50.2682 278.678 50.0586C278.824 49.8444 278.947 49.6097 279.047 49.3545C279.147 49.0947 279.225 48.7917 279.279 48.4453C279.339 48.099 279.377 47.6865 279.396 47.208L279.478 44.6035ZM279.915 44.6035H284.604V52H282.964V45.998H279.915V44.6035ZM277.563 50.6875H285.616V54.2012H283.969V52H279.231V54.2012H277.557L277.563 50.6875ZM293.874 48.835H291.509L291.495 47.6729H293.437C293.756 47.6729 294.018 47.641 294.223 47.5771C294.432 47.5133 294.587 47.4176 294.688 47.29C294.788 47.1579 294.838 46.9984 294.838 46.8115C294.838 46.6566 294.808 46.5221 294.749 46.4082C294.69 46.2897 294.599 46.194 294.476 46.1211C294.357 46.0436 294.207 45.9889 294.024 45.957C293.847 45.9206 293.639 45.9023 293.402 45.9023H292.056V52H290.408V44.6035H293.402C293.876 44.6035 294.302 44.6445 294.681 44.7266C295.063 44.8086 295.389 44.9339 295.658 45.1025C295.927 45.2712 296.132 45.4854 296.273 45.7451C296.419 46.0003 296.492 46.3011 296.492 46.6475C296.492 46.8753 296.442 47.0895 296.342 47.29C296.246 47.4906 296.103 47.6683 295.911 47.8232C295.72 47.9782 295.485 48.1058 295.207 48.2061C294.929 48.3018 294.61 48.361 294.25 48.3838L293.874 48.835ZM293.874 52H291.03L291.687 50.7012H293.874C294.166 50.7012 294.407 50.6647 294.599 50.5918C294.79 50.5189 294.931 50.4141 295.022 50.2773C295.118 50.1361 295.166 49.9697 295.166 49.7783C295.166 49.5824 295.12 49.4137 295.029 49.2725C294.938 49.1312 294.797 49.0241 294.605 48.9512C294.419 48.8737 294.175 48.835 293.874 48.835H291.994L292.008 47.6729H294.243L294.715 48.124C295.184 48.1559 295.574 48.2562 295.884 48.4248C296.194 48.5934 296.426 48.8053 296.581 49.0605C296.736 49.3158 296.813 49.5938 296.813 49.8945C296.813 50.2409 296.747 50.5462 296.615 50.8105C296.488 51.0749 296.296 51.2959 296.041 51.4736C295.79 51.6468 295.483 51.779 295.118 51.8701C294.754 51.9567 294.339 52 293.874 52ZM303.376 46.0254V54.8438H301.729V44.6035H303.246L303.376 46.0254ZM308.195 48.2334V48.377C308.195 48.9147 308.132 49.4137 308.004 49.874C307.881 50.3298 307.696 50.7285 307.45 51.0703C307.209 51.4076 306.91 51.6696 306.555 51.8564C306.199 52.0433 305.789 52.1367 305.324 52.1367C304.864 52.1367 304.461 52.0524 304.114 51.8838C303.772 51.7106 303.483 51.4668 303.246 51.1523C303.009 50.8379 302.818 50.4688 302.672 50.0449C302.531 49.6165 302.43 49.1471 302.371 48.6367V48.083C302.43 47.5407 302.531 47.0485 302.672 46.6064C302.818 46.1644 303.009 45.7839 303.246 45.4648C303.483 45.1458 303.772 44.8997 304.114 44.7266C304.456 44.5534 304.855 44.4668 305.311 44.4668C305.775 44.4668 306.188 44.5579 306.548 44.7402C306.908 44.918 307.211 45.1732 307.457 45.5059C307.703 45.834 307.888 46.2305 308.011 46.6953C308.134 47.1556 308.195 47.6683 308.195 48.2334ZM306.548 48.377V48.2334C306.548 47.8916 306.516 47.5749 306.452 47.2832C306.388 46.987 306.288 46.7272 306.151 46.5039C306.015 46.2806 305.839 46.1074 305.625 45.9844C305.415 45.8568 305.162 45.793 304.866 45.793C304.575 45.793 304.324 45.8431 304.114 45.9434C303.905 46.0391 303.729 46.1735 303.588 46.3467C303.447 46.5199 303.337 46.7227 303.26 46.9551C303.182 47.1829 303.128 47.4313 303.096 47.7002V49.0264C303.15 49.3545 303.244 49.6553 303.376 49.9287C303.508 50.2021 303.695 50.4209 303.937 50.585C304.183 50.7445 304.497 50.8242 304.88 50.8242C305.176 50.8242 305.429 50.7604 305.639 50.6328C305.848 50.5052 306.019 50.3298 306.151 50.1064C306.288 49.8786 306.388 49.6165 306.452 49.3203C306.516 49.0241 306.548 48.7096 306.548 48.377ZM312.857 52.1367C312.311 52.1367 311.816 52.0479 311.374 51.8701C310.937 51.6878 310.563 51.4349 310.253 51.1113C309.948 50.7878 309.713 50.4072 309.549 49.9697C309.385 49.5322 309.303 49.0605 309.303 48.5547V48.2812C309.303 47.7025 309.387 47.1784 309.556 46.709C309.724 46.2396 309.959 45.8385 310.26 45.5059C310.561 45.1686 310.916 44.9111 311.326 44.7334C311.736 44.5557 312.181 44.4668 312.659 44.4668C313.188 44.4668 313.65 44.5557 314.047 44.7334C314.443 44.9111 314.771 45.1618 315.031 45.4854C315.296 45.8044 315.492 46.1849 315.619 46.627C315.751 47.069 315.817 47.5566 315.817 48.0898V48.7939H310.103V47.6113H314.19V47.4814C314.181 47.1852 314.122 46.9072 314.013 46.6475C313.908 46.3877 313.746 46.1781 313.527 46.0186C313.309 45.859 313.017 45.7793 312.652 45.7793C312.379 45.7793 312.135 45.8385 311.921 45.957C311.711 46.071 311.536 46.2373 311.395 46.4561C311.253 46.6748 311.144 46.9391 311.066 47.249C310.993 47.5544 310.957 47.8984 310.957 48.2812V48.5547C310.957 48.8783 311 49.179 311.087 49.457C311.178 49.7305 311.31 49.9697 311.483 50.1748C311.657 50.3799 311.866 50.5417 312.112 50.6602C312.358 50.7741 312.639 50.8311 312.953 50.8311C313.35 50.8311 313.703 50.7513 314.013 50.5918C314.323 50.4323 314.591 50.2067 314.819 49.915L315.688 50.7559C315.528 50.9883 315.321 51.2116 315.065 51.4258C314.81 51.6354 314.498 51.8063 314.129 51.9385C313.764 52.0706 313.34 52.1367 312.857 52.1367ZM319.557 49.0127L316.604 44.6035H318.627L320.35 47.5156H321.792L321.58 49.0127H319.557ZM320.391 48.7734L318.497 52H316.474L319.153 47.8369L320.391 48.7734ZM322.783 44.6035V52H321.143V44.6035H322.783ZM327.343 44.6035L324.39 49.0127H322.359L322.141 47.5156H323.59L325.312 44.6035H327.343ZM325.442 52L323.542 48.7734L324.82 47.8369L327.486 52H325.442ZM330.234 49.5938L333.14 44.6035H334.787V52H333.14V47.0029L330.234 52H328.587V44.6035H330.234V49.5938ZM340.926 50.0039L343.127 44.6035H344.556L341.486 52H340.365L337.303 44.6035H338.731L340.926 50.0039ZM338.308 44.6035V52H336.66V44.6035H338.308ZM343.544 52V44.6035H345.198V52H343.544ZM355.172 41.3633H356.505C356.505 41.7689 356.448 42.1038 356.334 42.3682C356.225 42.6279 356.061 42.8421 355.842 43.0107C355.628 43.1748 355.361 43.307 355.042 43.4072C354.728 43.5075 354.363 43.5986 353.948 43.6807C353.565 43.7627 353.219 43.8926 352.909 44.0703C352.604 44.2435 352.346 44.4873 352.137 44.8018C351.932 45.1117 351.784 45.5104 351.692 45.998C351.601 46.4857 351.574 47.0804 351.61 47.7822V48.2471L350.305 48.3633V47.8984C350.305 47.028 350.384 46.2692 350.544 45.6221C350.703 44.9749 350.929 44.4303 351.221 43.9883C351.517 43.5417 351.868 43.1862 352.273 42.9219C352.684 42.6576 353.139 42.4753 353.641 42.375C353.982 42.3021 354.267 42.2292 354.495 42.1562C354.723 42.0788 354.892 41.9808 355.001 41.8623C355.115 41.7393 355.172 41.5729 355.172 41.3633ZM354.017 45.0205C354.509 45.0205 354.946 45.1071 355.329 45.2803C355.712 45.4489 356.035 45.6859 356.3 45.9912C356.564 46.2965 356.765 46.6566 356.901 47.0713C357.043 47.486 357.113 47.9372 357.113 48.4248V48.5752C357.113 49.0856 357.038 49.5573 356.888 49.9902C356.737 50.4232 356.516 50.8014 356.225 51.125C355.933 51.444 355.575 51.6947 355.151 51.877C354.732 52.0547 354.251 52.1436 353.709 52.1436C353.171 52.1436 352.69 52.0501 352.267 51.8633C351.843 51.6764 351.485 51.4167 351.193 51.084C350.902 50.7467 350.681 50.3525 350.53 49.9014C350.38 49.4502 350.305 48.958 350.305 48.4248V48.2744C350.3 48.1787 350.325 48.0853 350.38 47.9941C350.439 47.903 350.51 47.805 350.592 47.7002C350.674 47.5954 350.747 47.4746 350.811 47.3379C351.038 46.8776 351.307 46.4743 351.617 46.1279C351.927 45.7816 352.28 45.5104 352.677 45.3145C353.078 45.1185 353.524 45.0205 354.017 45.0205ZM353.695 46.3262C353.285 46.3262 352.95 46.4242 352.69 46.6201C352.435 46.8115 352.246 47.0667 352.123 47.3857C352.005 47.7048 351.945 48.0511 351.945 48.4248V48.5752C351.945 48.8805 351.979 49.1699 352.048 49.4434C352.116 49.7168 352.219 49.9583 352.355 50.168C352.497 50.373 352.679 50.5348 352.902 50.6533C353.13 50.7718 353.399 50.8311 353.709 50.8311C354.023 50.8311 354.29 50.7718 354.509 50.6533C354.732 50.5348 354.912 50.373 355.049 50.168C355.19 49.9583 355.293 49.7168 355.356 49.4434C355.425 49.1699 355.459 48.8805 355.459 48.5752V48.4248C355.459 48.1423 355.425 47.8757 355.356 47.625C355.293 47.3743 355.19 47.1533 355.049 46.9619C354.908 46.766 354.725 46.611 354.502 46.4971C354.279 46.3831 354.01 46.3262 353.695 46.3262ZM363.375 44.6035V45.916H359.766V44.6035H363.375ZM364.667 44.6035V52H363.02V44.6035H364.667ZM359.362 44.6035H360.989L360.791 48.2607C360.764 48.8031 360.709 49.2816 360.627 49.6963C360.549 50.1064 360.445 50.4596 360.312 50.7559C360.18 51.0475 360.019 51.2845 359.827 51.4668C359.636 51.6491 359.412 51.7835 359.157 51.8701C358.902 51.9567 358.615 52 358.296 52H357.783L357.776 50.6465L358.036 50.626C358.205 50.6123 358.351 50.569 358.474 50.4961C358.597 50.4186 358.701 50.3092 358.788 50.168C358.879 50.0267 358.952 49.8444 359.007 49.6211C359.066 49.3978 359.112 49.1335 359.144 48.8281C359.18 48.5228 359.207 48.1673 359.226 47.7617L359.362 44.6035ZM366.103 48.3838V48.2266C366.103 47.6934 366.18 47.1989 366.335 46.7432C366.49 46.2829 366.713 45.8841 367.005 45.5469C367.301 45.2051 367.661 44.9408 368.085 44.7539C368.513 44.5625 368.996 44.4668 369.534 44.4668C370.076 44.4668 370.56 44.5625 370.983 44.7539C371.412 44.9408 371.774 45.2051 372.07 45.5469C372.367 45.8841 372.592 46.2829 372.747 46.7432C372.902 47.1989 372.979 47.6934 372.979 48.2266V48.3838C372.979 48.917 372.902 49.4115 372.747 49.8672C372.592 50.3229 372.367 50.7217 372.07 51.0635C371.774 51.4007 371.414 51.665 370.99 51.8564C370.566 52.0433 370.086 52.1367 369.548 52.1367C369.006 52.1367 368.52 52.0433 368.092 51.8564C367.668 51.665 367.308 51.4007 367.012 51.0635C366.715 50.7217 366.49 50.3229 366.335 49.8672C366.18 49.4115 366.103 48.917 366.103 48.3838ZM367.75 48.2266V48.3838C367.75 48.7165 367.784 49.0309 367.853 49.3271C367.921 49.6234 368.028 49.8831 368.174 50.1064C368.32 50.3298 368.507 50.5052 368.734 50.6328C368.962 50.7604 369.233 50.8242 369.548 50.8242C369.853 50.8242 370.118 50.7604 370.341 50.6328C370.569 50.5052 370.756 50.3298 370.901 50.1064C371.047 49.8831 371.154 49.6234 371.223 49.3271C371.296 49.0309 371.332 48.7165 371.332 48.3838V48.2266C371.332 47.8984 371.296 47.5885 371.223 47.2969C371.154 47.0007 371.045 46.7386 370.895 46.5107C370.749 46.2829 370.562 46.1051 370.334 45.9775C370.111 45.8454 369.844 45.7793 369.534 45.7793C369.224 45.7793 368.955 45.8454 368.728 45.9775C368.504 46.1051 368.32 46.2829 368.174 46.5107C368.028 46.7386 367.921 47.0007 367.853 47.2969C367.784 47.5885 367.75 47.8984 367.75 48.2266ZM380.301 44.6035V52H378.653V44.6035H380.301ZM379.604 47.8779V49.1836C379.403 49.2702 379.177 49.3499 378.927 49.4229C378.681 49.4912 378.421 49.5482 378.147 49.5938C377.874 49.6348 377.598 49.6553 377.32 49.6553C376.669 49.6553 376.106 49.555 375.632 49.3545C375.162 49.154 374.8 48.8464 374.545 48.4316C374.294 48.0124 374.169 47.4814 374.169 46.8389V44.5967H375.81V46.8389C375.81 47.208 375.864 47.502 375.974 47.7207C376.088 47.9395 376.256 48.0967 376.479 48.1924C376.703 48.2881 376.983 48.3359 377.32 48.3359C377.603 48.3359 377.869 48.3177 378.12 48.2812C378.371 48.2402 378.619 48.1855 378.865 48.1172C379.111 48.0488 379.357 47.9691 379.604 47.8779ZM387.109 47.6934V48.9922H383.281V47.6934H387.109ZM383.76 44.6035V52H382.112V44.6035H383.76ZM388.299 44.6035V52H386.651V44.6035H388.299ZM389.741 48.3838V48.2266C389.741 47.6934 389.819 47.1989 389.974 46.7432C390.129 46.2829 390.352 45.8841 390.644 45.5469C390.94 45.2051 391.3 44.9408 391.724 44.7539C392.152 44.5625 392.635 44.4668 393.173 44.4668C393.715 44.4668 394.198 44.5625 394.622 44.7539C395.05 44.9408 395.413 45.2051 395.709 45.5469C396.005 45.8841 396.231 46.2829 396.386 46.7432C396.541 47.1989 396.618 47.6934 396.618 48.2266V48.3838C396.618 48.917 396.541 49.4115 396.386 49.8672C396.231 50.3229 396.005 50.7217 395.709 51.0635C395.413 51.4007 395.053 51.665 394.629 51.8564C394.205 52.0433 393.724 52.1367 393.187 52.1367C392.644 52.1367 392.159 52.0433 391.73 51.8564C391.307 51.665 390.947 51.4007 390.65 51.0635C390.354 50.7217 390.129 50.3229 389.974 49.8672C389.819 49.4115 389.741 48.917 389.741 48.3838ZM391.389 48.2266V48.3838C391.389 48.7165 391.423 49.0309 391.491 49.3271C391.56 49.6234 391.667 49.8831 391.812 50.1064C391.958 50.3298 392.145 50.5052 392.373 50.6328C392.601 50.7604 392.872 50.8242 393.187 50.8242C393.492 50.8242 393.756 50.7604 393.979 50.6328C394.207 50.5052 394.394 50.3298 394.54 50.1064C394.686 49.8831 394.793 49.6234 394.861 49.3271C394.934 49.0309 394.971 48.7165 394.971 48.3838V48.2266C394.971 47.8984 394.934 47.5885 394.861 47.2969C394.793 47.0007 394.684 46.7386 394.533 46.5107C394.387 46.2829 394.201 46.1051 393.973 45.9775C393.749 45.8454 393.483 45.7793 393.173 45.7793C392.863 45.7793 392.594 45.8454 392.366 45.9775C392.143 46.1051 391.958 46.2829 391.812 46.5107C391.667 46.7386 391.56 47.0007 391.491 47.2969C391.423 47.5885 391.389 47.8984 391.389 48.2266ZM402.921 44.6035V45.916H399.694V52H398.047V44.6035H402.921ZM403.427 48.3838V48.2266C403.427 47.6934 403.504 47.1989 403.659 46.7432C403.814 46.2829 404.037 45.8841 404.329 45.5469C404.625 45.2051 404.985 44.9408 405.409 44.7539C405.838 44.5625 406.321 44.4668 406.858 44.4668C407.401 44.4668 407.884 44.5625 408.308 44.7539C408.736 44.9408 409.098 45.2051 409.395 45.5469C409.691 45.8841 409.916 46.2829 410.071 46.7432C410.226 47.1989 410.304 47.6934 410.304 48.2266V48.3838C410.304 48.917 410.226 49.4115 410.071 49.8672C409.916 50.3229 409.691 50.7217 409.395 51.0635C409.098 51.4007 408.738 51.665 408.314 51.8564C407.891 52.0433 407.41 52.1367 406.872 52.1367C406.33 52.1367 405.844 52.0433 405.416 51.8564C404.992 51.665 404.632 51.4007 404.336 51.0635C404.04 50.7217 403.814 50.3229 403.659 49.8672C403.504 49.4115 403.427 48.917 403.427 48.3838ZM405.074 48.2266V48.3838C405.074 48.7165 405.108 49.0309 405.177 49.3271C405.245 49.6234 405.352 49.8831 405.498 50.1064C405.644 50.3298 405.831 50.5052 406.059 50.6328C406.286 50.7604 406.558 50.8242 406.872 50.8242C407.177 50.8242 407.442 50.7604 407.665 50.6328C407.893 50.5052 408.08 50.3298 408.226 50.1064C408.371 49.8831 408.479 49.6234 408.547 49.3271C408.62 49.0309 408.656 48.7165 408.656 48.3838V48.2266C408.656 47.8984 408.62 47.5885 408.547 47.2969C408.479 47.0007 408.369 46.7386 408.219 46.5107C408.073 46.2829 407.886 46.1051 407.658 45.9775C407.435 45.8454 407.168 45.7793 406.858 45.7793C406.549 45.7793 406.28 45.8454 406.052 45.9775C405.828 46.1051 405.644 46.2829 405.498 46.5107C405.352 46.7386 405.245 47.0007 405.177 47.2969C405.108 47.5885 405.074 47.8984 405.074 48.2266ZM261.697 60.6035V61.916H258.047V60.6035H261.697ZM258.437 60.6035V68H256.789V60.6035H258.437ZM262.989 60.6035V68H261.335V60.6035H262.989ZM266.387 62.0254V70.8438H264.739V60.6035H266.257L266.387 62.0254ZM271.206 64.2334V64.377C271.206 64.9147 271.142 65.4137 271.015 65.874C270.892 66.3298 270.707 66.7285 270.461 67.0703C270.219 67.4076 269.921 67.6696 269.565 67.8564C269.21 68.0433 268.8 68.1367 268.335 68.1367C267.875 68.1367 267.471 68.0524 267.125 67.8838C266.783 67.7106 266.494 67.4668 266.257 67.1523C266.02 66.8379 265.828 66.4688 265.683 66.0449C265.541 65.6165 265.441 65.1471 265.382 64.6367V64.083C265.441 63.5407 265.541 63.0485 265.683 62.6064C265.828 62.1644 266.02 61.7839 266.257 61.4648C266.494 61.1458 266.783 60.8997 267.125 60.7266C267.467 60.5534 267.866 60.4668 268.321 60.4668C268.786 60.4668 269.199 60.5579 269.559 60.7402C269.919 60.918 270.222 61.1732 270.468 61.5059C270.714 61.834 270.898 62.2305 271.021 62.6953C271.145 63.1556 271.206 63.6683 271.206 64.2334ZM269.559 64.377V64.2334C269.559 63.8916 269.527 63.5749 269.463 63.2832C269.399 62.987 269.299 62.7272 269.162 62.5039C269.025 62.2806 268.85 62.1074 268.636 61.9844C268.426 61.8568 268.173 61.793 267.877 61.793C267.585 61.793 267.335 61.8431 267.125 61.9434C266.915 62.0391 266.74 62.1735 266.599 62.3467C266.457 62.5199 266.348 62.7227 266.271 62.9551C266.193 63.1829 266.138 63.4313 266.106 63.7002V65.0264C266.161 65.3545 266.255 65.6553 266.387 65.9287C266.519 66.2021 266.706 66.4209 266.947 66.585C267.193 66.7445 267.508 66.8242 267.891 66.8242C268.187 66.8242 268.44 66.7604 268.649 66.6328C268.859 66.5052 269.03 66.3298 269.162 66.1064C269.299 65.8786 269.399 65.6165 269.463 65.3203C269.527 65.0241 269.559 64.7096 269.559 64.377ZM272.293 64.3838V64.2266C272.293 63.6934 272.37 63.1989 272.525 62.7432C272.68 62.2829 272.904 61.8841 273.195 61.5469C273.492 61.2051 273.852 60.9408 274.275 60.7539C274.704 60.5625 275.187 60.4668 275.725 60.4668C276.267 60.4668 276.75 60.5625 277.174 60.7539C277.602 60.9408 277.965 61.2051 278.261 61.5469C278.557 61.8841 278.783 62.2829 278.938 62.7432C279.092 63.1989 279.17 63.6934 279.17 64.2266V64.3838C279.17 64.917 279.092 65.4115 278.938 65.8672C278.783 66.3229 278.557 66.7217 278.261 67.0635C277.965 67.4007 277.604 67.665 277.181 67.8564C276.757 68.0433 276.276 68.1367 275.738 68.1367C275.196 68.1367 274.711 68.0433 274.282 67.8564C273.858 67.665 273.498 67.4007 273.202 67.0635C272.906 66.7217 272.68 66.3229 272.525 65.8672C272.37 65.4115 272.293 64.917 272.293 64.3838ZM273.94 64.2266V64.3838C273.94 64.7165 273.975 65.0309 274.043 65.3271C274.111 65.6234 274.218 65.8831 274.364 66.1064C274.51 66.3298 274.697 66.5052 274.925 66.6328C275.153 66.7604 275.424 66.8242 275.738 66.8242C276.044 66.8242 276.308 66.7604 276.531 66.6328C276.759 66.5052 276.946 66.3298 277.092 66.1064C277.238 65.8831 277.345 65.6234 277.413 65.3271C277.486 65.0309 277.522 64.7165 277.522 64.3838V64.2266C277.522 63.8984 277.486 63.5885 277.413 63.2969C277.345 63.0007 277.235 62.7386 277.085 62.5107C276.939 62.2829 276.752 62.1051 276.524 61.9775C276.301 61.8454 276.035 61.7793 275.725 61.7793C275.415 61.7793 275.146 61.8454 274.918 61.9775C274.695 62.1051 274.51 62.2829 274.364 62.5107C274.218 62.7386 274.111 63.0007 274.043 63.2969C273.975 63.5885 273.94 63.8984 273.94 64.2266ZM285.473 60.6035V61.916H282.246V68H280.599V60.6035H285.473ZM288.084 62.0254V70.8438H286.437V60.6035H287.954L288.084 62.0254ZM292.903 64.2334V64.377C292.903 64.9147 292.84 65.4137 292.712 65.874C292.589 66.3298 292.404 66.7285 292.158 67.0703C291.917 67.4076 291.618 67.6696 291.263 67.8564C290.907 68.0433 290.497 68.1367 290.032 68.1367C289.572 68.1367 289.169 68.0524 288.822 67.8838C288.48 67.7106 288.191 67.4668 287.954 67.1523C287.717 66.8379 287.526 66.4688 287.38 66.0449C287.239 65.6165 287.138 65.1471 287.079 64.6367V64.083C287.138 63.5407 287.239 63.0485 287.38 62.6064C287.526 62.1644 287.717 61.7839 287.954 61.4648C288.191 61.1458 288.48 60.8997 288.822 60.7266C289.164 60.5534 289.563 60.4668 290.019 60.4668C290.483 60.4668 290.896 60.5579 291.256 60.7402C291.616 60.918 291.919 61.1732 292.165 61.5059C292.411 61.834 292.596 62.2305 292.719 62.6953C292.842 63.1556 292.903 63.6683 292.903 64.2334ZM291.256 64.377V64.2334C291.256 63.8916 291.224 63.5749 291.16 63.2832C291.096 62.987 290.996 62.7272 290.859 62.5039C290.723 62.2806 290.547 62.1074 290.333 61.9844C290.123 61.8568 289.87 61.793 289.574 61.793C289.283 61.793 289.032 61.8431 288.822 61.9434C288.613 62.0391 288.437 62.1735 288.296 62.3467C288.155 62.5199 288.045 62.7227 287.968 62.9551C287.89 63.1829 287.836 63.4313 287.804 63.7002V65.0264C287.858 65.3545 287.952 65.6553 288.084 65.9287C288.216 66.2021 288.403 66.4209 288.645 66.585C288.891 66.7445 289.205 66.8242 289.588 66.8242C289.884 66.8242 290.137 66.7604 290.347 66.6328C290.556 66.5052 290.727 66.3298 290.859 66.1064C290.996 65.8786 291.096 65.6165 291.16 65.3203C291.224 65.0241 291.256 64.7096 291.256 64.377ZM298.475 66.5166V62.9893C298.475 62.7249 298.427 62.4971 298.331 62.3057C298.235 62.1143 298.09 61.9661 297.894 61.8613C297.702 61.7565 297.461 61.7041 297.169 61.7041C296.9 61.7041 296.668 61.7497 296.472 61.8408C296.276 61.932 296.123 62.055 296.014 62.21C295.904 62.3649 295.85 62.5404 295.85 62.7363H294.209C294.209 62.4447 294.28 62.1621 294.421 61.8887C294.562 61.6152 294.767 61.3714 295.036 61.1572C295.305 60.943 295.626 60.7744 296 60.6514C296.374 60.5283 296.793 60.4668 297.258 60.4668C297.814 60.4668 298.306 60.5602 298.734 60.7471C299.167 60.9339 299.507 61.2165 299.753 61.5947C300.004 61.9684 300.129 62.4378 300.129 63.0029V66.291C300.129 66.6283 300.152 66.9313 300.197 67.2002C300.247 67.4645 300.318 67.6947 300.409 67.8906V68H298.721C298.643 67.8223 298.582 67.5967 298.536 67.3232C298.495 67.0452 298.475 66.7764 298.475 66.5166ZM298.714 63.502L298.728 64.5205H297.545C297.24 64.5205 296.971 64.5501 296.738 64.6094C296.506 64.6641 296.312 64.7461 296.157 64.8555C296.002 64.9648 295.886 65.097 295.809 65.252C295.731 65.4069 295.692 65.5824 295.692 65.7783C295.692 65.9743 295.738 66.1543 295.829 66.3184C295.92 66.4779 296.052 66.6032 296.226 66.6943C296.403 66.7855 296.618 66.8311 296.868 66.8311C297.205 66.8311 297.499 66.7627 297.75 66.626C298.005 66.4847 298.206 66.3138 298.352 66.1133C298.497 65.9082 298.575 65.7145 298.584 65.5322L299.117 66.2637C299.062 66.4505 298.969 66.651 298.837 66.8652C298.705 67.0794 298.532 67.2845 298.317 67.4805C298.108 67.6719 297.855 67.8291 297.559 67.9521C297.267 68.0752 296.93 68.1367 296.547 68.1367C296.064 68.1367 295.633 68.041 295.255 67.8496C294.877 67.6536 294.58 67.3916 294.366 67.0635C294.152 66.7308 294.045 66.3548 294.045 65.9355C294.045 65.5436 294.118 65.1973 294.264 64.8965C294.414 64.5911 294.633 64.3359 294.92 64.1309C295.212 63.9258 295.567 63.7708 295.986 63.666C296.406 63.5566 296.884 63.502 297.422 63.502H298.714ZM306.247 66.0039L308.448 60.6035H309.877L306.808 68H305.687L302.624 60.6035H304.053L306.247 66.0039ZM303.629 60.6035V68H301.981V60.6035H303.629ZM308.865 68V60.6035H310.52V68H308.865ZM316.761 66.0039L318.962 60.6035H320.391L317.321 68H316.2L313.138 60.6035H314.566L316.761 66.0039ZM314.143 60.6035V68H312.495V60.6035H314.143ZM319.379 68V60.6035H321.033V68H319.379ZM324.581 65.5938L327.486 60.6035H329.134V68H327.486V63.0029L324.581 68H322.934V60.6035H324.581V65.5938ZM332.531 62.0254V70.8438H330.884V60.6035H332.401L332.531 62.0254ZM337.351 64.2334V64.377C337.351 64.9147 337.287 65.4137 337.159 65.874C337.036 66.3298 336.852 66.7285 336.605 67.0703C336.364 67.4076 336.065 67.6696 335.71 67.8564C335.354 68.0433 334.944 68.1367 334.479 68.1367C334.019 68.1367 333.616 68.0524 333.27 67.8838C332.928 67.7106 332.638 67.4668 332.401 67.1523C332.164 66.8379 331.973 66.4688 331.827 66.0449C331.686 65.6165 331.586 65.1471 331.526 64.6367V64.083C331.586 63.5407 331.686 63.0485 331.827 62.6064C331.973 62.1644 332.164 61.7839 332.401 61.4648C332.638 61.1458 332.928 60.8997 333.27 60.7266C333.611 60.5534 334.01 60.4668 334.466 60.4668C334.931 60.4668 335.343 60.5579 335.703 60.7402C336.063 60.918 336.366 61.1732 336.612 61.5059C336.858 61.834 337.043 62.2305 337.166 62.6953C337.289 63.1556 337.351 63.6683 337.351 64.2334ZM335.703 64.377V64.2334C335.703 63.8916 335.671 63.5749 335.607 63.2832C335.544 62.987 335.443 62.7272 335.307 62.5039C335.17 62.2806 334.994 62.1074 334.78 61.9844C334.571 61.8568 334.318 61.793 334.021 61.793C333.73 61.793 333.479 61.8431 333.27 61.9434C333.06 62.0391 332.884 62.1735 332.743 62.3467C332.602 62.5199 332.493 62.7227 332.415 62.9551C332.338 63.1829 332.283 63.4313 332.251 63.7002V65.0264C332.306 65.3545 332.399 65.6553 332.531 65.9287C332.663 66.2021 332.85 66.4209 333.092 66.585C333.338 66.7445 333.652 66.8242 334.035 66.8242C334.331 66.8242 334.584 66.7604 334.794 66.6328C335.004 66.5052 335.174 66.3298 335.307 66.1064C335.443 65.8786 335.544 65.6165 335.607 65.3203C335.671 65.0241 335.703 64.7096 335.703 64.377ZM338.438 64.3838V64.2266C338.438 63.6934 338.515 63.1989 338.67 62.7432C338.825 62.2829 339.048 61.8841 339.34 61.5469C339.636 61.2051 339.996 60.9408 340.42 60.7539C340.848 60.5625 341.331 60.4668 341.869 60.4668C342.411 60.4668 342.895 60.5625 343.318 60.7539C343.747 60.9408 344.109 61.2051 344.405 61.5469C344.701 61.8841 344.927 62.2829 345.082 62.7432C345.237 63.1989 345.314 63.6934 345.314 64.2266V64.3838C345.314 64.917 345.237 65.4115 345.082 65.8672C344.927 66.3229 344.701 66.7217 344.405 67.0635C344.109 67.4007 343.749 67.665 343.325 67.8564C342.901 68.0433 342.421 68.1367 341.883 68.1367C341.34 68.1367 340.855 68.0433 340.427 67.8564C340.003 67.665 339.643 67.4007 339.347 67.0635C339.05 66.7217 338.825 66.3229 338.67 65.8672C338.515 65.4115 338.438 64.917 338.438 64.3838ZM340.085 64.2266V64.3838C340.085 64.7165 340.119 65.0309 340.188 65.3271C340.256 65.6234 340.363 65.8831 340.509 66.1064C340.655 66.3298 340.841 66.5052 341.069 66.6328C341.297 66.7604 341.568 66.8242 341.883 66.8242C342.188 66.8242 342.452 66.7604 342.676 66.6328C342.904 66.5052 343.09 66.3298 343.236 66.1064C343.382 65.8831 343.489 65.6234 343.558 65.3271C343.631 65.0309 343.667 64.7165 343.667 64.3838V64.2266C343.667 63.8984 343.631 63.5885 343.558 63.2969C343.489 63.0007 343.38 62.7386 343.229 62.5107C343.084 62.2829 342.897 62.1051 342.669 61.9775C342.446 61.8454 342.179 61.7793 341.869 61.7793C341.559 61.7793 341.29 61.8454 341.062 61.9775C340.839 62.1051 340.655 62.2829 340.509 62.5107C340.363 62.7386 340.256 63.0007 340.188 63.2969C340.119 63.5885 340.085 63.8984 340.085 64.2266ZM350.291 64.835H347.926L347.912 63.6729H349.854C350.173 63.6729 350.435 63.641 350.64 63.5771C350.849 63.5133 351.004 63.4176 351.104 63.29C351.205 63.1579 351.255 62.9984 351.255 62.8115C351.255 62.6566 351.225 62.5221 351.166 62.4082C351.107 62.2897 351.016 62.194 350.893 62.1211C350.774 62.0436 350.624 61.9889 350.441 61.957C350.264 61.9206 350.056 61.9023 349.819 61.9023H348.473V68H346.825V60.6035H349.819C350.293 60.6035 350.719 60.6445 351.098 60.7266C351.48 60.8086 351.806 60.9339 352.075 61.1025C352.344 61.2712 352.549 61.4854 352.69 61.7451C352.836 62.0003 352.909 62.3011 352.909 62.6475C352.909 62.8753 352.859 63.0895 352.759 63.29C352.663 63.4906 352.52 63.6683 352.328 63.8232C352.137 63.9782 351.902 64.1058 351.624 64.2061C351.346 64.3018 351.027 64.361 350.667 64.3838L350.291 64.835ZM350.291 68H347.447L348.104 66.7012H350.291C350.583 66.7012 350.824 66.6647 351.016 66.5918C351.207 66.5189 351.348 66.4141 351.439 66.2773C351.535 66.1361 351.583 65.9697 351.583 65.7783C351.583 65.5824 351.537 65.4137 351.446 65.2725C351.355 65.1312 351.214 65.0241 351.022 64.9512C350.836 64.8737 350.592 64.835 350.291 64.835H348.411L348.425 63.6729H350.66L351.132 64.124C351.601 64.1559 351.991 64.2562 352.301 64.4248C352.611 64.5934 352.843 64.8053 352.998 65.0605C353.153 65.3158 353.23 65.5938 353.23 65.8945C353.23 66.2409 353.164 66.5462 353.032 66.8105C352.905 67.0749 352.713 67.2959 352.458 67.4736C352.207 67.6468 351.9 67.779 351.535 67.8701C351.171 67.9567 350.756 68 350.291 68ZM358.822 66.5166V62.9893C358.822 62.7249 358.774 62.4971 358.679 62.3057C358.583 62.1143 358.437 61.9661 358.241 61.8613C358.05 61.7565 357.808 61.7041 357.517 61.7041C357.248 61.7041 357.015 61.7497 356.819 61.8408C356.623 61.932 356.471 62.055 356.361 62.21C356.252 62.3649 356.197 62.5404 356.197 62.7363H354.557C354.557 62.4447 354.627 62.1621 354.769 61.8887C354.91 61.6152 355.115 61.3714 355.384 61.1572C355.653 60.943 355.974 60.7744 356.348 60.6514C356.721 60.5283 357.141 60.4668 357.605 60.4668C358.161 60.4668 358.654 60.5602 359.082 60.7471C359.515 60.9339 359.854 61.2165 360.101 61.5947C360.351 61.9684 360.477 62.4378 360.477 63.0029V66.291C360.477 66.6283 360.499 66.9313 360.545 67.2002C360.595 67.4645 360.666 67.6947 360.757 67.8906V68H359.068C358.991 67.8223 358.929 67.5967 358.884 67.3232C358.843 67.0452 358.822 66.7764 358.822 66.5166ZM359.062 63.502L359.075 64.5205H357.893C357.587 64.5205 357.318 64.5501 357.086 64.6094C356.854 64.6641 356.66 64.7461 356.505 64.8555C356.35 64.9648 356.234 65.097 356.156 65.252C356.079 65.4069 356.04 65.5824 356.04 65.7783C356.04 65.9743 356.086 66.1543 356.177 66.3184C356.268 66.4779 356.4 66.6032 356.573 66.6943C356.751 66.7855 356.965 66.8311 357.216 66.8311C357.553 66.8311 357.847 66.7627 358.098 66.626C358.353 66.4847 358.553 66.3138 358.699 66.1133C358.845 65.9082 358.923 65.7145 358.932 65.5322L359.465 66.2637C359.41 66.4505 359.317 66.651 359.185 66.8652C359.052 67.0794 358.879 67.2845 358.665 67.4805C358.455 67.6719 358.202 67.8291 357.906 67.9521C357.615 68.0752 357.277 68.1367 356.895 68.1367C356.411 68.1367 355.981 68.041 355.603 67.8496C355.224 67.6536 354.928 67.3916 354.714 67.0635C354.5 66.7308 354.393 66.3548 354.393 65.9355C354.393 65.5436 354.465 65.1973 354.611 64.8965C354.762 64.5911 354.98 64.3359 355.268 64.1309C355.559 63.9258 355.915 63.7708 356.334 63.666C356.753 63.5566 357.232 63.502 357.77 63.502H359.062ZM367.251 63.6934V64.9922H363.423V63.6934H367.251ZM363.901 60.6035V68H362.254V60.6035H363.901ZM368.44 60.6035V68H366.793V60.6035H368.44ZM371.899 65.5938L374.805 60.6035H376.452V68H374.805V63.0029L371.899 68H370.252V60.6035H371.899V65.5938ZM379.754 64.3838H381.463L379.364 68H377.662L379.754 64.3838ZM380.957 60.6035H384.129V68H382.488V61.9023H380.957C380.647 61.9023 380.392 61.957 380.191 62.0664C379.991 62.1712 379.843 62.3102 379.747 62.4834C379.651 62.652 379.604 62.8252 379.604 63.0029C379.604 63.1807 379.647 63.3516 379.733 63.5156C379.825 63.6797 379.964 63.8141 380.15 63.9189C380.342 64.0238 380.581 64.0762 380.868 64.0762H383.042V65.2793H380.868C380.412 65.2793 380.005 65.2223 379.645 65.1084C379.285 64.9899 378.979 64.8281 378.729 64.623C378.478 64.4134 378.286 64.1696 378.154 63.8916C378.022 63.609 377.956 63.3014 377.956 62.9688C377.956 62.627 378.024 62.3125 378.161 62.0254C378.298 61.7383 378.494 61.4876 378.749 61.2734C379.009 61.0592 379.323 60.8952 379.692 60.7812C380.066 60.6628 380.488 60.6035 380.957 60.6035Z" fill="#3C3C3C"/>
<rect x="217.25" y="34.25" width="206.5" height="41.5" rx="6.75" stroke="#3C3C3C" stroke-width="1.5"/>
<path d="M64 55C64 52.7909 62.2091 51 60 51C57.7909 51 56 52.7909 56 55C56 57.2091 57.7909 59 60 59C62.2091 59 64 57.2091 64 55ZM218 54.25L60 54.25V55.75L218 55.75V54.25Z" fill="#3C3C3C"/>
<path fill-rule="evenodd" clip-rule="evenodd" d="M625.123 22.936C625.159 22.636 625.183 22.324 625.183 22C625.183 21.676 625.159 21.364 625.111 21.064L627.139 19.48C627.319 19.336 627.367 19.072 627.259 18.868L625.339 15.544C625.219 15.328 624.967 15.256 624.751 15.328L622.363 16.288C621.859 15.904 621.331 15.592 620.743 15.352L620.383 12.808C620.347 12.568 620.143 12.4 619.903 12.4H616.063C615.823 12.4 615.631 12.568 615.595 12.808L615.235 15.352C614.647 15.592 614.107 15.916 613.615 16.288L611.227 15.328C611.011 15.244 610.759 15.328 610.639 15.544L608.719 18.868C608.599 19.084 608.647 19.336 608.839 19.48L610.867 21.064C610.819 21.364 610.783 21.688 610.783 22C610.783 22.312 610.807 22.636 610.855 22.936L608.827 24.52C608.647 24.664 608.599 24.928 608.707 25.132L610.627 28.456C610.747 28.672 610.999 28.744 611.215 28.672L613.603 27.712C614.107 28.096 614.635 28.408 615.223 28.648L615.583 31.192C615.631 31.432 615.823 31.6 616.063 31.6H619.903C620.143 31.6 620.347 31.432 620.371 31.192L620.731 28.648C621.319 28.408 621.859 28.084 622.351 27.712L624.739 28.672C624.955 28.756 625.207 28.672 625.327 28.456L627.247 25.132C627.367 24.916 627.319 24.664 627.127 24.52L625.123 22.936V22.936ZM617.983 25.6C616.003 25.6 614.383 23.98 614.383 22C614.383 20.02 616.003 18.4 617.983 18.4C619.963 18.4 621.583 20.02 621.583 22C621.583 23.98 619.963 25.6 617.983 25.6Z" fill="#3C3C3C"/>
<g clip-path="url(#clip0_504_4187)">
<path d="M579.159 16.3759C578.244 16.3759 577.503 17.1171 577.503 18.0316V21.3431C577.503 22.2573 578.244 22.9989 579.159 22.9989H584.126C585.041 22.9989 585.782 22.2577 585.782 21.3431V18.0316C585.782 17.1171 585.041 16.3759 584.126 16.3759H579.159ZM587.421 17.7044L589.093 16.0325C589.404 15.722 589.825 15.548 590.264 15.548H590.749C591.664 15.548 592.404 16.2896 592.404 17.2038V22.171C592.404 23.0855 591.664 23.8267 590.749 23.8267H590.264C589.825 23.8267 589.403 23.6521 589.093 23.3417L587.421 21.6697C587.253 23.3636 585.828 24.6546 584.126 24.6546H579.159C577.33 24.6546 575.847 23.1719 575.847 21.3431V18.0316C575.847 16.2029 577.33 14.7202 579.159 14.7202H584.126C585.828 14.7202 587.253 16.0105 587.421 17.7044ZM590.265 22.171H590.749V17.2038H590.264L587.78 19.6874L590.264 22.171H590.265ZM579.986 21.3431C579.529 21.3431 579.159 20.9719 579.159 20.5153C579.159 20.0577 579.529 19.6874 579.986 19.6874C580.444 19.6874 580.814 20.0577 580.814 20.5153C580.814 20.9722 580.444 21.3431 579.986 21.3431Z" fill="#3C3C3C"/>
<path d="M581.538 31.9616C581.531 31.9021 581.519 31.5999 581.511 31.29C581.504 30.9802 581.491 30.6256 581.483 30.5022L581.469 30.2778L581.257 30.2491C579.548 30.0179 577.739 29.4856 576.342 28.803C574.643 27.9722 573.255 26.7157 572.594 25.4111C571.803 23.8483 571.918 22.0167 572.897 20.5589C573.192 20.1193 573.384 19.8907 573.83 19.4456C574.263 19.013 574.518 18.7986 575.022 18.4423L575.338 18.2185L575.354 18.4466C575.363 18.5721 575.372 19.2709 575.375 19.9996L575.381 21.3244L575.185 21.5761C574.68 22.2236 574.496 22.7102 574.525 23.3273C574.54 23.6583 574.576 23.8132 574.712 24.1275C575.355 25.6188 577.605 26.9981 580.378 27.5999C581.123 27.7617 581.423 27.8111 581.457 27.7774C581.478 27.7561 581.49 27.4993 581.499 26.8428L581.511 25.9375L583.054 27.4809L584.597 29.0242L583.075 30.5469L581.552 32.0697L581.538 31.9616ZM586.286 30.1639C585.999 30.021 585.668 29.6778 585.6 29.4531C585.468 29.0175 585.583 28.499 585.883 28.1823C586.095 27.9575 586.223 27.9134 587.28 27.7013C588.721 27.4121 589.584 27.1328 590.648 26.6115C592.413 25.7468 593.465 24.6428 593.625 23.4863C593.7 22.9436 593.531 22.3894 593.089 21.7305L592.889 21.432V20.1513C592.889 18.8715 592.905 18.3196 592.94 18.3196C592.978 18.3196 593.329 18.5695 593.649 18.8247C595.1 19.9838 595.901 21.2945 596.048 22.7498C596.141 23.6655 595.969 24.6043 595.564 25.4053C595.267 25.9909 594.917 26.4549 594.356 27.0082C593.815 27.5417 593.269 27.9636 592.612 28.3563C591.481 29.0329 590.272 29.5144 588.786 29.8811C587.822 30.1191 587.18 30.2245 586.696 30.2245C586.438 30.2245 586.394 30.218 586.286 30.1639H586.286Z" fill="#3C3C3C"/>
</g>
<circle cx="22" cy="22" r="4" fill="#E8261B"/>
<path d="M54.167 24.1667L54.167 23.4167C53.7528 23.4167 53.417 23.7525 53.417 24.1667L54.167 24.1667ZM54.167 19.8334L53.417 19.8334C53.417 20.2476 53.7528 20.5834 54.167 20.5834L54.167 19.8334ZM52.8924 16.5834L52.8924 15.8334H52.8924L52.8924 16.5834ZM52.8924 28.1667C54.09 28.1667 54.917 27.0919 54.917 25.9759L53.417 25.9759C53.417 26.4415 53.0941 26.6667 52.8924 26.6667L52.8924 28.1667ZM54.917 25.9759L54.917 24.1667L53.417 24.1667L53.417 25.9759L54.917 25.9759ZM54.167 24.9167L55.0837 24.9167L55.0837 23.4167L54.167 23.4167L54.167 24.9167ZM56.8337 23.1667L56.8337 20.8334L55.3337 20.8334L55.3337 23.1667L56.8337 23.1667ZM55.0837 19.0834L54.167 19.0834L54.167 20.5834L55.0837 20.5834L55.0837 19.0834ZM54.917 19.8334L54.917 18.0242L53.417 18.0242L53.417 19.8334L54.917 19.8334ZM54.917 18.0242C54.917 16.9082 54.09 15.8334 52.8924 15.8334L52.8924 17.3334C53.0941 17.3334 53.417 17.5585 53.417 18.0242L54.917 18.0242ZM52.8924 15.8334L38.7693 15.8334L38.7693 17.3334L52.8924 17.3334L52.8924 15.8334ZM36.0193 18.5834L36.0193 25.4167L37.5193 25.4167L37.5193 18.5834L36.0193 18.5834ZM38.7693 28.1667L52.8924 28.1667L52.8924 26.6667L38.7693 26.6667L38.7693 28.1667ZM36.0193 25.4167C36.0193 26.9355 37.2505 28.1667 38.7693 28.1667L38.7693 26.6667C38.079 26.6667 37.5193 26.1071 37.5193 25.4167L36.0193 25.4167ZM56.8337 20.8334C56.8337 19.8669 56.0502 19.0834 55.0837 19.0834L55.0837 20.5834C55.2218 20.5834 55.3337 20.6953 55.3337 20.8334L56.8337 20.8334ZM38.7693 15.8334C37.2505 15.8334 36.0193 17.0646 36.0193 18.5834L37.5193 18.5834C37.5193 17.893 38.079 17.3334 38.7693 17.3334L38.7693 15.8334ZM55.0837 24.9167C56.0502 24.9167 56.8337 24.1332 56.8337 23.1667L55.3337 23.1667C55.3337 23.3048 55.2218 23.4167 55.0837 23.4167L55.0837 24.9167Z" fill="#3C3C3C"/>
<rect x="38.5386" y="19" width="13.2694" height="6" rx="1" fill="#3C3C3C"/>
<path d="M66.6992 17.4512V26H65.0117V19.3965L62.9844 20.041V18.7109L66.5176 17.4512H66.6992ZM75.2188 20.9844V22.4609C75.2188 23.1016 75.1504 23.6543 75.0137 24.1191C74.877 24.5801 74.6797 24.959 74.4219 25.2559C74.168 25.5488 73.8652 25.7656 73.5137 25.9062C73.1621 26.0469 72.7715 26.1172 72.3418 26.1172C71.998 26.1172 71.6777 26.0742 71.3809 25.9883C71.084 25.8984 70.8164 25.7598 70.5781 25.5723C70.3438 25.3848 70.1406 25.1484 69.9688 24.8633C69.8008 24.5742 69.6719 24.2305 69.582 23.832C69.4922 23.4336 69.4473 22.9766 69.4473 22.4609V20.9844C69.4473 20.3438 69.5156 19.7949 69.6523 19.3379C69.793 18.877 69.9902 18.5 70.2441 18.207C70.502 17.9141 70.8066 17.6992 71.1582 17.5625C71.5098 17.4219 71.9004 17.3516 72.3301 17.3516C72.6738 17.3516 72.9922 17.3965 73.2852 17.4863C73.582 17.5723 73.8496 17.707 74.0879 17.8906C74.3262 18.0742 74.5293 18.3105 74.6973 18.5996C74.8652 18.8848 74.9941 19.2266 75.084 19.625C75.1738 20.0195 75.2188 20.4727 75.2188 20.9844ZM73.5254 22.6836V20.7559C73.5254 20.4473 73.5078 20.1777 73.4727 19.9473C73.4414 19.7168 73.3926 19.5215 73.3262 19.3613C73.2598 19.1973 73.1777 19.0645 73.0801 18.9629C72.9824 18.8613 72.8711 18.7871 72.7461 18.7402C72.6211 18.6934 72.4824 18.6699 72.3301 18.6699C72.1387 18.6699 71.9688 18.707 71.8203 18.7812C71.6758 18.8555 71.5527 18.9746 71.4512 19.1387C71.3496 19.2988 71.2715 19.5137 71.2168 19.7832C71.166 20.0488 71.1406 20.373 71.1406 20.7559V22.6836C71.1406 22.9922 71.1562 23.2637 71.1875 23.498C71.2227 23.7324 71.2734 23.9336 71.3398 24.1016C71.4102 24.2656 71.4922 24.4004 71.5859 24.5059C71.6836 24.6074 71.7949 24.6816 71.9199 24.7285C72.0488 24.7754 72.1895 24.7988 72.3418 24.7988C72.5293 24.7988 72.6953 24.7617 72.8398 24.6875C72.9883 24.6094 73.1133 24.4883 73.2148 24.3242C73.3203 24.1562 73.3984 23.9375 73.4492 23.668C73.5 23.3984 73.5254 23.0703 73.5254 22.6836ZM82.1094 20.9844V22.4609C82.1094 23.1016 82.041 23.6543 81.9043 24.1191C81.7676 24.5801 81.5703 24.959 81.3125 25.2559C81.0586 25.5488 80.7559 25.7656 80.4043 25.9062C80.0527 26.0469 79.6621 26.1172 79.2324 26.1172C78.8887 26.1172 78.5684 26.0742 78.2715 25.9883C77.9746 25.8984 77.707 25.7598 77.4688 25.5723C77.2344 25.3848 77.0312 25.1484 76.8594 24.8633C76.6914 24.5742 76.5625 24.2305 76.4727 23.832C76.3828 23.4336 76.3379 22.9766 76.3379 22.4609V20.9844C76.3379 20.3438 76.4062 19.7949 76.543 19.3379C76.6836 18.877 76.8809 18.5 77.1348 18.207C77.3926 17.9141 77.6973 17.6992 78.0488 17.5625C78.4004 17.4219 78.791 17.3516 79.2207 17.3516C79.5645 17.3516 79.8828 17.3965 80.1758 17.4863C80.4727 17.5723 80.7402 17.707 80.9785 17.8906C81.2168 18.0742 81.4199 18.3105 81.5879 18.5996C81.7559 18.8848 81.8848 19.2266 81.9746 19.625C82.0645 20.0195 82.1094 20.4727 82.1094 20.9844ZM80.416 22.6836V20.7559C80.416 20.4473 80.3984 20.1777 80.3633 19.9473C80.332 19.7168 80.2832 19.5215 80.2168 19.3613C80.1504 19.1973 80.0684 19.0645 79.9707 18.9629C79.873 18.8613 79.7617 18.7871 79.6367 18.7402C79.5117 18.6934 79.373 18.6699 79.2207 18.6699C79.0293 18.6699 78.8594 18.707 78.7109 18.7812C78.5664 18.8555 78.4434 18.9746 78.3418 19.1387C78.2402 19.2988 78.1621 19.5137 78.1074 19.7832C78.0566 20.0488 78.0312 20.373 78.0312 20.7559V22.6836C78.0312 22.9922 78.0469 23.2637 78.0781 23.498C78.1133 23.7324 78.1641 23.9336 78.2305 24.1016C78.3008 24.2656 78.3828 24.4004 78.4766 24.5059C78.5742 24.6074 78.6855 24.6816 78.8105 24.7285C78.9395 24.7754 79.0801 24.7988 79.2324 24.7988C79.4199 24.7988 79.5859 24.7617 79.7305 24.6875C79.8789 24.6094 80.0039 24.4883 80.1055 24.3242C80.2109 24.1562 80.2891 23.9375 80.3398 23.668C80.3906 23.3984 80.416 23.0703 80.416 22.6836ZM83.2344 19.5605V19.1094C83.2344 18.7852 83.3047 18.4902 83.4453 18.2246C83.5859 17.959 83.793 17.7461 84.0664 17.5859C84.3398 17.4258 84.6758 17.3457 85.0742 17.3457C85.4844 17.3457 85.8262 17.4258 86.0996 17.5859C86.377 17.7461 86.584 17.959 86.7207 18.2246C86.8613 18.4902 86.9316 18.7852 86.9316 19.1094V19.5605C86.9316 19.877 86.8613 20.168 86.7207 20.4336C86.584 20.6992 86.3789 20.9121 86.1055 21.0723C85.832 21.2324 85.4941 21.3125 85.0918 21.3125C84.6855 21.3125 84.3438 21.2324 84.0664 21.0723C83.793 20.9121 83.5859 20.6992 83.4453 20.4336C83.3047 20.168 83.2344 19.877 83.2344 19.5605ZM84.3535 19.1094V19.5605C84.3535 19.6973 84.3789 19.8281 84.4297 19.9531C84.4844 20.0742 84.5664 20.1738 84.6758 20.252C84.7891 20.3262 84.9258 20.3633 85.0859 20.3633C85.2539 20.3633 85.3906 20.3262 85.4961 20.252C85.6016 20.1738 85.6797 20.0742 85.7305 19.9531C85.7812 19.8281 85.8066 19.6973 85.8066 19.5605V19.1094C85.8066 18.9648 85.7793 18.832 85.7246 18.7109C85.6738 18.5859 85.5938 18.4863 85.4844 18.4121C85.3789 18.334 85.2422 18.2949 85.0742 18.2949C84.918 18.2949 84.7852 18.334 84.6758 18.4121C84.5664 18.4863 84.4844 18.5859 84.4297 18.7109C84.3789 18.832 84.3535 18.9648 84.3535 19.1094ZM87.3125 24.3594V23.9082C87.3125 23.5879 87.3828 23.2949 87.5234 23.0293C87.668 22.7637 87.877 22.5508 88.1504 22.3906C88.4277 22.2305 88.7676 22.1504 89.1699 22.1504C89.5762 22.1504 89.916 22.2305 90.1895 22.3906C90.4629 22.5508 90.6699 22.7637 90.8105 23.0293C90.9512 23.2949 91.0215 23.5879 91.0215 23.9082V24.3594C91.0215 24.6797 90.9512 24.9727 90.8105 25.2383C90.6738 25.5039 90.4688 25.7168 90.1953 25.877C89.9219 26.0371 89.584 26.1172 89.1816 26.1172C88.7754 26.1172 88.4336 26.0371 88.1562 25.877C87.8789 25.7168 87.668 25.5039 87.5234 25.2383C87.3828 24.9727 87.3125 24.6797 87.3125 24.3594ZM88.4375 23.9082V24.3594C88.4375 24.5 88.4688 24.6328 88.5312 24.7578C88.5938 24.8828 88.6797 24.9824 88.7891 25.0566C88.9023 25.1309 89.0332 25.168 89.1816 25.168C89.3691 25.168 89.5156 25.1309 89.6211 25.0566C89.7266 24.9824 89.7988 24.8828 89.8379 24.7578C89.8809 24.6328 89.9023 24.5 89.9023 24.3594V23.9082C89.9023 23.7676 89.875 23.6367 89.8203 23.5156C89.7656 23.3906 89.6836 23.291 89.5742 23.2168C89.4688 23.1387 89.334 23.0996 89.1699 23.0996C89.0059 23.0996 88.8691 23.1387 88.7598 23.2168C88.6543 23.291 88.5742 23.3906 88.5195 23.5156C88.4648 23.6367 88.4375 23.7676 88.4375 23.9082ZM89.5859 18.6875L85.4199 25.3555L84.5996 24.9219L88.7656 18.2539L89.5859 18.6875Z" fill="#3C3C3C"/>
<circle cx="94" cy="272" r="60" fill="white" fill-opacity="0.1"/>
<circle cx="94" cy="272" r="60" fill="url(#paint0_radial_504_4187)"/>
<path fill-rule="evenodd" clip-rule="evenodd" d="M90.2071 228C89.7617 228 89.5386 227.461 89.8536 227.146L93.6464 223.354C93.8417 223.158 94.1583 223.158 94.3536 223.354L98.1464 227.146C98.4614 227.461 98.2383 228 97.7929 228H90.2071Z" fill="#3C3C3C"/>
<path fill-rule="evenodd" clip-rule="evenodd" d="M90.2071 225C89.7617 225 89.5386 224.461 89.8536 224.146L93.6464 220.354C93.8417 220.158 94.1583 220.158 94.3536 220.354L98.1464 224.146C98.4614 224.461 98.2383 225 97.7929 225H90.2071Z" fill="#3C3C3C"/>
<path fill-rule="evenodd" clip-rule="evenodd" d="M97.7929 316C98.2383 316 98.4614 316.539 98.1464 316.854L94.3536 320.646C94.1583 320.842 93.8417 320.842 93.6464 320.646L89.8536 316.854C89.5386 316.539 89.7617 316 90.2071 316L97.7929 316Z" fill="#3C3C3C"/>
<path fill-rule="evenodd" clip-rule="evenodd" d="M97.7929 319C98.2383 319 98.4614 319.539 98.1464 319.854L94.3536 323.646C94.1583 323.842 93.8417 323.842 93.6464 323.646L89.8536 319.854C89.5386 319.539 89.7617 319 90.2071 319L97.7929 319Z" fill="#3C3C3C"/>
<path fill-rule="evenodd" clip-rule="evenodd" d="M50 267C44.48 267 40 269.24 40 272C40 274.24 42.94 276.13 47 276.77V280L51 276L47 272V274.73C43.85 274.17 42 272.83 42 272C42 270.94 45.04 269 50 269C54.96 269 58 270.94 58 272C58 272.73 56.54 273.89 54 274.53V276.58C57.53 275.81 60 274.05 60 272C60 269.24 55.52 267 50 267Z" fill="#3C3C3C"/>
<path fill-rule="evenodd" clip-rule="evenodd" d="M138 267C143.52 267 148 269.24 148 272C148 274.24 145.06 276.13 141 276.77V280L137 276L141 272V274.73C144.15 274.17 146 272.83 146 272C146 270.94 142.96 269 138 269C133.04 269 130 270.94 130 272C130 272.73 131.46 273.89 134 274.53V276.58C130.47 275.81 128 274.05 128 272C128 269.24 132.48 267 138 267Z" fill="#3C3C3C"/>
<circle cx="546" cy="272" r="60" fill="white" fill-opacity="0.1"/>
<circle cx="546" cy="272" r="60" fill="url(#paint1_radial_504_4187)"/>
<path fill-rule="evenodd" clip-rule="evenodd" d="M500 271.207C500 270.762 499.461 270.539 499.146 270.854L495.354 274.646C495.158 274.842 495.158 275.158 495.354 275.354L499.146 279.146C499.461 279.461 500 279.238 500 278.793L500 271.207Z" fill="#3C3C3C"/>
<path fill-rule="evenodd" clip-rule="evenodd" d="M592 271.207C592 270.762 592.539 270.539 592.854 270.854L596.646 274.646C596.842 274.842 596.842 275.158 596.646 275.354L592.854 279.146C592.539 279.461 592 279.238 592 278.793L592 271.207Z" fill="#3C3C3C"/>
<path fill-rule="evenodd" clip-rule="evenodd" d="M542.207 226C541.762 226 541.539 225.461 541.854 225.146L545.646 221.354C545.842 221.158 546.158 221.158 546.354 221.354L550.146 225.146C550.461 225.461 550.238 226 549.793 226L542.207 226Z" fill="#3C3C3C"/>
<path fill-rule="evenodd" clip-rule="evenodd" d="M542.207 318C541.762 318 541.539 318.539 541.854 318.854L545.646 322.646C545.842 322.842 546.158 322.842 546.354 322.646L550.146 318.854C550.461 318.539 550.238 318 549.793 318L542.207 318Z" fill="#3C3C3C"/>
<path d="M627 55C627 59.9706 622.971 64 618 64C613.029 64 609 59.9706 609 55C609 50.0294 613.029 46 618 46C622.971 46 627 50.0294 627 55Z" stroke="#3C3C3C" stroke-width="2"/>
<circle cx="618" cy="55" r="6" fill="#ED4A0F"/>
<rect x="228" y="308.708" width="80" height="36.5833" rx="5" fill="#ED4A0F"/>
<path d="M255.658 328.407H257.702C257.661 329.077 257.477 329.671 257.148 330.191C256.825 330.71 256.371 331.116 255.788 331.408C255.209 331.699 254.512 331.845 253.696 331.845C253.058 331.845 252.486 331.736 251.98 331.517C251.475 331.294 251.042 330.975 250.682 330.56C250.326 330.145 250.055 329.644 249.868 329.056C249.681 328.468 249.588 327.81 249.588 327.08V326.39C249.588 325.661 249.684 325.002 249.875 324.414C250.071 323.822 250.349 323.318 250.709 322.904C251.074 322.489 251.509 322.17 252.015 321.947C252.521 321.723 253.086 321.612 253.71 321.612C254.539 321.612 255.239 321.762 255.809 322.063C256.383 322.364 256.827 322.778 257.142 323.307C257.461 323.836 257.652 324.437 257.716 325.112H255.665C255.642 324.711 255.562 324.371 255.426 324.093C255.289 323.811 255.082 323.599 254.804 323.457C254.53 323.312 254.166 323.239 253.71 323.239C253.368 323.239 253.07 323.302 252.814 323.43C252.559 323.558 252.345 323.751 252.172 324.011C251.999 324.271 251.869 324.599 251.782 324.995C251.7 325.387 251.659 325.848 251.659 326.376V327.08C251.659 327.595 251.698 328.049 251.775 328.441C251.853 328.828 251.971 329.156 252.131 329.425C252.295 329.689 252.505 329.89 252.76 330.027C253.02 330.159 253.332 330.225 253.696 330.225C254.125 330.225 254.478 330.157 254.756 330.02C255.034 329.883 255.246 329.68 255.392 329.411C255.542 329.143 255.631 328.808 255.658 328.407ZM262.692 324.312V331.708H260.717V324.312H262.692ZM265.071 324.312V325.836H258.372V324.312H265.071ZM269.959 330.04V326.745C269.959 326.508 269.92 326.306 269.843 326.137C269.765 325.964 269.645 325.829 269.48 325.734C269.321 325.638 269.114 325.59 268.858 325.59C268.64 325.59 268.451 325.629 268.291 325.706C268.132 325.779 268.008 325.886 267.922 326.028C267.835 326.164 267.792 326.326 267.792 326.513H265.823C265.823 326.199 265.896 325.9 266.042 325.618C266.188 325.335 266.4 325.087 266.678 324.872C266.956 324.654 267.286 324.483 267.669 324.36C268.056 324.237 268.489 324.175 268.968 324.175C269.542 324.175 270.052 324.271 270.499 324.462C270.946 324.654 271.297 324.941 271.552 325.324C271.812 325.706 271.941 326.185 271.941 326.759V329.924C271.941 330.33 271.966 330.662 272.017 330.922C272.067 331.177 272.14 331.401 272.235 331.592V331.708H270.246C270.15 331.508 270.077 331.257 270.027 330.956C269.982 330.651 269.959 330.346 269.959 330.04ZM270.219 327.203L270.232 328.318H269.132C268.872 328.318 268.646 328.347 268.455 328.407C268.264 328.466 268.106 328.55 267.983 328.66C267.86 328.764 267.769 328.887 267.71 329.029C267.655 329.17 267.628 329.325 267.628 329.493C267.628 329.662 267.667 329.815 267.744 329.952C267.822 330.084 267.933 330.188 268.079 330.266C268.225 330.339 268.396 330.375 268.592 330.375C268.888 330.375 269.146 330.316 269.364 330.198C269.583 330.079 269.752 329.933 269.87 329.76C269.993 329.587 270.057 329.423 270.062 329.268L270.581 330.102C270.508 330.289 270.408 330.482 270.28 330.683C270.157 330.883 270 331.073 269.809 331.25C269.617 331.424 269.387 331.567 269.118 331.681C268.849 331.79 268.53 331.845 268.161 331.845C267.692 331.845 267.266 331.752 266.883 331.565C266.505 331.373 266.204 331.111 265.98 330.779C265.762 330.441 265.652 330.059 265.652 329.63C265.652 329.243 265.725 328.899 265.871 328.598C266.017 328.297 266.231 328.044 266.514 327.839C266.801 327.63 267.159 327.472 267.587 327.368C268.015 327.258 268.512 327.203 269.077 327.203H270.219ZM275.428 325.734V334.552H273.459V324.312H275.284L275.428 325.734ZM280.11 327.928V328.072C280.11 328.609 280.047 329.108 279.919 329.569C279.796 330.029 279.614 330.43 279.372 330.772C279.131 331.109 278.83 331.373 278.47 331.565C278.114 331.752 277.704 331.845 277.239 331.845C276.788 331.845 276.396 331.754 276.063 331.572C275.731 331.389 275.451 331.134 275.223 330.806C274.999 330.473 274.819 330.088 274.683 329.651C274.546 329.213 274.441 328.744 274.368 328.243V327.867C274.441 327.329 274.546 326.837 274.683 326.39C274.819 325.939 274.999 325.549 275.223 325.221C275.451 324.888 275.729 324.631 276.057 324.449C276.389 324.266 276.779 324.175 277.226 324.175C277.695 324.175 278.107 324.264 278.463 324.442C278.823 324.619 279.124 324.875 279.365 325.207C279.611 325.54 279.796 325.937 279.919 326.397C280.047 326.857 280.11 327.368 280.11 327.928ZM278.135 328.072V327.928C278.135 327.614 278.107 327.324 278.053 327.06C278.003 326.791 277.921 326.556 277.807 326.356C277.697 326.155 277.551 326 277.369 325.891C277.191 325.777 276.975 325.72 276.72 325.72C276.451 325.72 276.221 325.763 276.029 325.85C275.842 325.937 275.69 326.062 275.571 326.226C275.453 326.39 275.364 326.586 275.305 326.814C275.245 327.042 275.209 327.299 275.195 327.586V328.536C275.218 328.874 275.282 329.177 275.387 329.446C275.492 329.71 275.653 329.92 275.872 330.075C276.091 330.23 276.378 330.307 276.733 330.307C276.993 330.307 277.212 330.25 277.39 330.136C277.567 330.018 277.711 329.856 277.82 329.651C277.934 329.446 278.014 329.209 278.06 328.94C278.11 328.671 278.135 328.382 278.135 328.072ZM284.731 324.312V331.708H282.756V324.312H284.731ZM287.11 324.312V325.836H280.411V324.312H287.11Z" fill="white"/>
<rect x="332" y="308.708" width="80" height="36.5833" rx="5" fill="#3C3C3C"/>
<path d="M362.658 328.407H364.702C364.661 329.077 364.477 329.671 364.148 330.191C363.825 330.71 363.371 331.116 362.788 331.408C362.209 331.699 361.512 331.845 360.696 331.845C360.058 331.845 359.486 331.736 358.98 331.517C358.475 331.294 358.042 330.975 357.682 330.56C357.326 330.145 357.055 329.644 356.868 329.056C356.681 328.468 356.588 327.81 356.588 327.08V326.39C356.588 325.661 356.684 325.002 356.875 324.414C357.071 323.822 357.349 323.318 357.709 322.904C358.074 322.489 358.509 322.17 359.015 321.947C359.521 321.723 360.086 321.612 360.71 321.612C361.539 321.612 362.239 321.762 362.809 322.063C363.383 322.364 363.827 322.778 364.142 323.307C364.461 323.836 364.652 324.437 364.716 325.112H362.665C362.642 324.711 362.562 324.371 362.426 324.093C362.289 323.811 362.082 323.599 361.804 323.457C361.53 323.312 361.166 323.239 360.71 323.239C360.368 323.239 360.07 323.302 359.814 323.43C359.559 323.558 359.345 323.751 359.172 324.011C358.999 324.271 358.869 324.599 358.782 324.995C358.7 325.387 358.659 325.848 358.659 326.376V327.08C358.659 327.595 358.698 328.049 358.775 328.441C358.853 328.828 358.971 329.156 359.131 329.425C359.295 329.689 359.505 329.89 359.76 330.027C360.02 330.159 360.332 330.225 360.696 330.225C361.125 330.225 361.478 330.157 361.756 330.02C362.034 329.883 362.246 329.68 362.392 329.411C362.542 329.143 362.631 328.808 362.658 328.407ZM369.692 324.312V331.708H367.717V324.312H369.692ZM372.071 324.312V325.836H365.372V324.312H372.071ZM372.529 328.085V327.942C372.529 327.399 372.607 326.9 372.762 326.445C372.917 325.984 373.142 325.586 373.438 325.248C373.735 324.911 374.099 324.649 374.532 324.462C374.965 324.271 375.462 324.175 376.022 324.175C376.583 324.175 377.082 324.271 377.52 324.462C377.957 324.649 378.324 324.911 378.62 325.248C378.921 325.586 379.149 325.984 379.304 326.445C379.459 326.9 379.536 327.399 379.536 327.942V328.085C379.536 328.623 379.459 329.122 379.304 329.582C379.149 330.038 378.921 330.437 378.62 330.779C378.324 331.116 377.959 331.378 377.526 331.565C377.093 331.752 376.597 331.845 376.036 331.845C375.476 331.845 374.977 331.752 374.539 331.565C374.106 331.378 373.739 331.116 373.438 330.779C373.142 330.437 372.917 330.038 372.762 329.582C372.607 329.122 372.529 328.623 372.529 328.085ZM374.498 327.942V328.085C374.498 328.395 374.525 328.685 374.58 328.953C374.635 329.222 374.721 329.459 374.84 329.664C374.963 329.865 375.122 330.022 375.318 330.136C375.514 330.25 375.754 330.307 376.036 330.307C376.31 330.307 376.544 330.25 376.74 330.136C376.936 330.022 377.093 329.865 377.212 329.664C377.33 329.459 377.417 329.222 377.472 328.953C377.531 328.685 377.561 328.395 377.561 328.085V327.942C377.561 327.641 377.531 327.358 377.472 327.094C377.417 326.825 377.328 326.588 377.205 326.383C377.087 326.174 376.929 326.009 376.733 325.891C376.537 325.772 376.3 325.713 376.022 325.713C375.744 325.713 375.507 325.772 375.312 325.891C375.12 326.009 374.963 326.174 374.84 326.383C374.721 326.588 374.635 326.825 374.58 327.094C374.525 327.358 374.498 327.641 374.498 327.942ZM385.723 324.312V325.857H382.141V324.312H385.723ZM382.708 324.312V331.708H380.739V324.312H382.708ZM387.158 324.312V331.708H385.183V324.312H387.158Z" fill="white"/>
<rect x="17" y="45" width="8" height="8" rx="2" fill="#3C3C3C"/>
<rect x="29" y="45" width="8" height="8" rx="2" fill="#3C3C3C"/>
<rect x="26" y="47" width="2" height="4" fill="#3C3C3C"/>
<rect x="29" y="57" width="8" height="8" rx="2" fill="#3C3C3C"/>
<rect x="31" y="54" width="4" height="2" fill="#3C3C3C"/>
<rect x="17" y="57" width="8" height="8" rx="2" fill="#3C3C3C"/>
<path d="M20.2988 84.8051L22.2728 82.8311V94.1298C22.2728 94.5714 22.6105 94.909 23.052 94.909C23.4936 94.909 23.8313 94.5714 23.8313 94.1298V82.8311L25.8053 84.8051C25.9611 84.961 26.1689 85.0389 26.3507 85.0389C26.5326 85.0389 26.7404 84.961 26.8962 84.8051C27.2079 84.4935 27.2079 83.9999 26.8962 83.7142L23.6235 80.3896C23.3118 80.0779 22.8183 80.0779 22.5326 80.3896L19.2079 83.7142C18.8962 84.0259 18.8962 84.5194 19.2079 84.8051C19.4936 85.1168 19.9871 85.1168 20.2988 84.8051V84.8051Z" fill="#3C3C3C"/>
<path d="M26.2208 90.5194C25.9091 90.8311 25.9091 91.3246 26.2208 91.6103L29.5455 94.935C29.7013 95.0909 29.9091 95.1688 30.091 95.1688C30.2728 95.1688 30.4806 95.0909 30.6364 94.935L33.9611 91.6103C34.2728 91.2986 34.2728 90.8051 33.9611 90.5194C33.6494 90.2077 33.1559 90.2077 32.8702 90.5194L30.8962 92.4934V81.1947C30.8962 80.7532 30.5585 80.4155 30.1169 80.4155C29.6754 80.4155 29.3377 80.7532 29.3377 81.1947V92.4934L27.3637 90.5194C27 90.2077 26.5065 90.2077 26.2208 90.5194Z" fill="#3C3C3C"/>
<path d="M35.0779 87.4805C34.6883 87.2727 34.2208 87.4285 34.013 87.7922C33.8052 88.1818 33.961 88.6493 34.3247 88.8571C36.2727 89.8961 37.3896 91.3246 37.3896 92.7532C37.3896 95.7662 32.6104 98.2857 26.9481 98.2857C21.2857 98.2857 16.5065 95.7402 16.5065 92.7532C16.5065 91.3246 17.6234 89.922 19.5714 88.8571C19.961 88.6493 20.0909 88.1818 19.8831 87.7922C19.6753 87.4026 19.2078 87.2727 18.8182 87.4805C16.3766 88.8311 15 90.7013 15 92.7532C15 96.7272 20.2727 99.8441 27 99.8441C33.7273 99.8441 39 96.7272 39 92.7532C38.974 90.7013 37.5974 88.8311 35.0779 87.4805Z" fill="#3C3C3C"/>
<defs>
<radialGradient id="paint0_radial_504_4187" cx="0" cy="0" r="1" gradientUnits="userSpaceOnUse" gradientTransform="translate(94 272) rotate(90) scale(60)">
<stop stop-color="white" stop-opacity="0"/>
<stop offset="0.6875" stop-color="#1D1D1D" stop-opacity="0.15"/>
<stop offset="1" stop-color="#1D1D1D" stop-opacity="0.3"/>
</radialGradient>
<radialGradient id="paint1_radial_504_4187" cx="0" cy="0" r="1" gradientUnits="userSpaceOnUse" gradientTransform="translate(546 272) rotate(90) scale(60)">
<stop stop-color="white" stop-opacity="0"/>
<stop offset="0.6875" stop-color="#1D1D1D" stop-opacity="0.15"/>
<stop offset="1" stop-color="#1D1D1D" stop-opacity="0.3"/>
</radialGradient>
<clipPath id="clip0_504_4187">
<rect width="24" height="24" fill="white" transform="translate(572 10)"/>
</clipPath>
</defs>
</svg>
