<svg width="118" height="43" viewBox="0 0 118 43" fill="none" xmlns="http://www.w3.org/2000/svg">
<path d="M0 6C0 2.68629 2.68629 0 6 0H15.8372C17.2536 0 18.6447 0.376067 19.8682 1.08977L28.1318 5.91023C29.3553 6.62393 30.7464 7 32.1628 7H47.8372C49.2536 7 50.6447 6.62393 51.8682 5.91023L60.1318 1.08977C61.3553 0.376066 62.7464 0 64.1628 0H112C115.314 0 118 2.68629 118 6V30C118 33.3137 115.314 36 112 36H64.1628C62.7464 36 61.3553 36.3761 60.1318 37.0898L51.8682 41.9102C50.6447 42.6239 49.2536 43 47.8372 43H32.1628C30.7464 43 29.3553 42.6239 28.1318 41.9102L19.8682 37.0898C18.6447 36.3761 17.2536 36 15.8372 36H6C2.68629 36 0 33.3137 0 30V6Z" fill="#ED4A0F"/>
<path d="M77.7334 21.4004V23H72.7227V21.4004H77.7334ZM73.3857 13.0469V23H71.335V13.0469H73.3857ZM83.0928 14.749L80.3857 23H78.2051L81.9033 13.0469H83.291L83.0928 14.749ZM85.3418 23L82.6279 14.749L82.4092 13.0469H83.8105L87.5293 23H85.3418ZM85.2188 19.2949V20.9014H79.9619V19.2949H85.2188ZM96.5527 13.0469V23H94.502L90.5029 16.3281V23H88.4521V13.0469H90.5029L94.5088 19.7256V13.0469H96.5527ZM101.393 23H99.2256L99.2393 21.4004H101.393C101.93 21.4004 102.384 21.2796 102.753 21.0381C103.122 20.792 103.4 20.4342 103.587 19.9648C103.778 19.4954 103.874 18.9281 103.874 18.2627V17.7773C103.874 17.2669 103.819 16.818 103.71 16.4307C103.605 16.0433 103.448 15.7174 103.238 15.4531C103.029 15.1888 102.771 14.9906 102.466 14.8584C102.16 14.7217 101.81 14.6533 101.413 14.6533H99.1846V13.0469H101.413C102.078 13.0469 102.687 13.1608 103.238 13.3887C103.794 13.612 104.275 13.9333 104.681 14.3525C105.086 14.7718 105.398 15.2731 105.617 15.8564C105.84 16.4352 105.952 17.0801 105.952 17.791V18.2627C105.952 18.9691 105.84 19.6139 105.617 20.1973C105.398 20.7806 105.086 21.2819 104.681 21.7012C104.28 22.1159 103.799 22.4372 103.238 22.665C102.682 22.8883 102.067 23 101.393 23ZM100.388 13.0469V23H98.3369V13.0469H100.388Z" fill="white"/>
</svg>
