<svg width="146" height="43" viewBox="0 0 146 43" fill="none" xmlns="http://www.w3.org/2000/svg">
<path d="M0 6C0 2.68629 2.68629 0 6 0H15.8372C17.2536 0 18.6447 0.376067 19.8682 1.08977L28.1318 5.91023C29.3553 6.62393 30.7464 7 32.1628 7H47.8372C49.2536 7 50.6447 6.62393 51.8682 5.91023L60.1318 1.08977C61.3553 0.376066 62.7464 0 64.1628 0H140C143.314 0 146 2.68629 146 6V30C146 33.3137 143.314 36 140 36H64.1628C62.7464 36 61.3553 36.3761 60.1318 37.0898L51.8682 41.9102C50.6447 42.6239 49.2536 43 47.8372 43H32.1628C30.7464 43 29.3553 42.6239 28.1318 41.9102L19.8682 37.0898C18.6447 36.3761 17.2536 36 15.8372 36H6C2.68629 36 0 33.3137 0 30V6Z" fill="#4D97FF"/>
<path d="M99.998 23H97.8311L97.8447 21.4004H99.998C100.536 21.4004 100.989 21.2796 101.358 21.0381C101.728 20.792 102.006 20.4342 102.192 19.9648C102.384 19.4954 102.479 18.9281 102.479 18.2627V17.7773C102.479 17.2669 102.425 16.818 102.315 16.4307C102.211 16.0433 102.053 15.7174 101.844 15.4531C101.634 15.1888 101.377 14.9906 101.071 14.8584C100.766 14.7217 100.415 14.6533 100.019 14.6533H97.79V13.0469H100.019C100.684 13.0469 101.292 13.1608 101.844 13.3887C102.4 13.612 102.881 13.9333 103.286 14.3525C103.692 14.7718 104.004 15.2731 104.223 15.8564C104.446 16.4352 104.558 17.0801 104.558 17.791V18.2627C104.558 18.9691 104.446 19.6139 104.223 20.1973C104.004 20.7806 103.692 21.2819 103.286 21.7012C102.885 22.1159 102.404 22.4372 101.844 22.665C101.288 22.8883 100.673 23 99.998 23ZM98.9932 13.0469V23H96.9424V13.0469H98.9932ZM114.224 17.791V18.2627C114.224 19.0192 114.121 19.6982 113.916 20.2998C113.711 20.9014 113.422 21.4141 113.048 21.8379C112.674 22.2572 112.228 22.5785 111.708 22.8018C111.193 23.0251 110.621 23.1367 109.992 23.1367C109.368 23.1367 108.796 23.0251 108.276 22.8018C107.761 22.5785 107.315 22.2572 106.937 21.8379C106.558 21.4141 106.264 20.9014 106.055 20.2998C105.85 19.6982 105.747 19.0192 105.747 18.2627V17.791C105.747 17.0299 105.85 16.3509 106.055 15.7539C106.26 15.1523 106.549 14.6396 106.923 14.2158C107.301 13.792 107.748 13.4684 108.263 13.2451C108.782 13.0218 109.354 12.9102 109.979 12.9102C110.607 12.9102 111.179 13.0218 111.694 13.2451C112.214 13.4684 112.66 13.792 113.034 14.2158C113.412 14.6396 113.704 15.1523 113.909 15.7539C114.119 16.3509 114.224 17.0299 114.224 17.791ZM112.152 18.2627V17.7773C112.152 17.2487 112.104 16.7839 112.009 16.3828C111.913 15.9818 111.772 15.6445 111.585 15.3711C111.398 15.0977 111.17 14.8926 110.901 14.7559C110.632 14.6146 110.325 14.5439 109.979 14.5439C109.632 14.5439 109.325 14.6146 109.056 14.7559C108.791 14.8926 108.566 15.0977 108.379 15.3711C108.197 15.6445 108.058 15.9818 107.962 16.3828C107.866 16.7839 107.818 17.2487 107.818 17.7773V18.2627C107.818 18.7868 107.866 19.2516 107.962 19.6572C108.058 20.0583 108.199 20.3978 108.386 20.6758C108.573 20.9492 108.8 21.1566 109.069 21.2979C109.338 21.4391 109.646 21.5098 109.992 21.5098C110.339 21.5098 110.646 21.4391 110.915 21.2979C111.184 21.1566 111.41 20.9492 111.592 20.6758C111.774 20.3978 111.913 20.0583 112.009 19.6572C112.104 19.2516 112.152 18.7868 112.152 18.2627ZM118.1 21.4209L120.082 13.0469H121.189L121.442 14.4414L119.33 23H118.141L118.1 21.4209ZM117.081 13.0469L118.722 21.4209L118.585 23H117.259L115.051 13.0469H117.081ZM123.186 21.3867L124.806 13.0469H126.836L124.635 23H123.309L123.186 21.3867ZM121.812 13.0469L123.808 21.4551L123.753 23H122.563L120.438 14.4346L120.711 13.0469H121.812ZM136.051 13.0469V23H134L130.001 16.3281V23H127.95V13.0469H130.001L134.007 19.7256V13.0469H136.051Z" fill="white"/>
<rect x="52" y="10" width="37" height="16" rx="8" fill="white"/>
<path d="M61.5059 16.9844V18.4609C61.5059 19.1016 61.4375 19.6543 61.3008 20.1191C61.1641 20.5801 60.9668 20.959 60.709 21.2559C60.4551 21.5488 60.1523 21.7656 59.8008 21.9062C59.4492 22.0469 59.0586 22.1172 58.6289 22.1172C58.2852 22.1172 57.9648 22.0742 57.668 21.9883C57.3711 21.8984 57.1035 21.7598 56.8652 21.5723C56.6309 21.3848 56.4277 21.1484 56.2559 20.8633C56.0879 20.5742 55.959 20.2305 55.8691 19.832C55.7793 19.4336 55.7344 18.9766 55.7344 18.4609V16.9844C55.7344 16.3438 55.8027 15.7949 55.9395 15.3379C56.0801 14.877 56.2773 14.5 56.5312 14.207C56.7891 13.9141 57.0938 13.6992 57.4453 13.5625C57.7969 13.4219 58.1875 13.3516 58.6172 13.3516C58.9609 13.3516 59.2793 13.3965 59.5723 13.4863C59.8691 13.5723 60.1367 13.707 60.375 13.8906C60.6133 14.0742 60.8164 14.3105 60.9844 14.5996C61.1523 14.8848 61.2812 15.2266 61.3711 15.625C61.4609 16.0195 61.5059 16.4727 61.5059 16.9844ZM59.8125 18.6836V16.7559C59.8125 16.4473 59.7949 16.1777 59.7598 15.9473C59.7285 15.7168 59.6797 15.5215 59.6133 15.3613C59.5469 15.1973 59.4648 15.0645 59.3672 14.9629C59.2695 14.8613 59.1582 14.7871 59.0332 14.7402C58.9082 14.6934 58.7695 14.6699 58.6172 14.6699C58.4258 14.6699 58.2559 14.707 58.1074 14.7812C57.9629 14.8555 57.8398 14.9746 57.7383 15.1387C57.6367 15.2988 57.5586 15.5137 57.5039 15.7832C57.4531 16.0488 57.4277 16.373 57.4277 16.7559V18.6836C57.4277 18.9922 57.4434 19.2637 57.4746 19.498C57.5098 19.7324 57.5605 19.9336 57.627 20.1016C57.6973 20.2656 57.7793 20.4004 57.873 20.5059C57.9707 20.6074 58.082 20.6816 58.207 20.7285C58.3359 20.7754 58.4766 20.7988 58.6289 20.7988C58.8164 20.7988 58.9824 20.7617 59.127 20.6875C59.2754 20.6094 59.4004 20.4883 59.502 20.3242C59.6074 20.1562 59.6855 19.9375 59.7363 19.668C59.7871 19.3984 59.8125 19.0703 59.8125 18.6836ZM62.8066 21.1855C62.8066 20.9355 62.8926 20.7266 63.0645 20.5586C63.2402 20.3906 63.4727 20.3066 63.7617 20.3066C64.0508 20.3066 64.2812 20.3906 64.4531 20.5586C64.6289 20.7266 64.7168 20.9355 64.7168 21.1855C64.7168 21.4355 64.6289 21.6445 64.4531 21.8125C64.2812 21.9805 64.0508 22.0645 63.7617 22.0645C63.4727 22.0645 63.2402 21.9805 63.0645 21.8125C62.8926 21.6445 62.8066 21.4355 62.8066 21.1855ZM67.7227 18.1152L66.375 17.793L66.8613 13.4688H71.6543V14.834H68.25L68.0391 16.7266C68.1523 16.6602 68.3242 16.5898 68.5547 16.5156C68.7852 16.4375 69.043 16.3984 69.3281 16.3984C69.7422 16.3984 70.1094 16.4629 70.4297 16.5918C70.75 16.7207 71.0215 16.9082 71.2441 17.1543C71.4707 17.4004 71.6426 17.7012 71.7598 18.0566C71.877 18.4121 71.9355 18.8145 71.9355 19.2637C71.9355 19.6426 71.877 20.0039 71.7598 20.3477C71.6426 20.6875 71.4648 20.9922 71.2266 21.2617C70.9883 21.5273 70.6895 21.7363 70.3301 21.8887C69.9707 22.041 69.5449 22.1172 69.0527 22.1172C68.6855 22.1172 68.3301 22.0625 67.9863 21.9531C67.6465 21.8438 67.3398 21.6816 67.0664 21.4668C66.7969 21.252 66.5801 20.9922 66.416 20.6875C66.2559 20.3789 66.1719 20.0273 66.1641 19.6328H67.8398C67.8633 19.875 67.9258 20.084 68.0273 20.2598C68.1328 20.4316 68.2715 20.5645 68.4434 20.6582C68.6152 20.752 68.8164 20.7988 69.0469 20.7988C69.2617 20.7988 69.4453 20.7578 69.5977 20.6758C69.75 20.5938 69.873 20.4805 69.9668 20.3359C70.0605 20.1875 70.1289 20.0156 70.1719 19.8203C70.2188 19.6211 70.2422 19.4062 70.2422 19.1758C70.2422 18.9453 70.2148 18.7363 70.1602 18.5488C70.1055 18.3613 70.0215 18.1992 69.9082 18.0625C69.7949 17.9258 69.6504 17.8203 69.4746 17.7461C69.3027 17.6719 69.1016 17.6348 68.8711 17.6348C68.5586 17.6348 68.3164 17.6836 68.1445 17.7812C67.9766 17.8789 67.8359 17.9902 67.7227 18.1152ZM77.7715 16.9727V22H76.0781V15.6602H77.666L77.7715 16.9727ZM77.5371 18.6074H77.0684C77.0684 18.166 77.1211 17.7598 77.2266 17.3887C77.3359 17.0137 77.4941 16.6895 77.7012 16.416C77.9121 16.1387 78.1719 15.9238 78.4805 15.7715C78.7891 15.6191 79.1465 15.543 79.5527 15.543C79.834 15.543 80.0918 15.5859 80.3262 15.6719C80.5605 15.7539 80.7617 15.8848 80.9297 16.0645C81.1016 16.2402 81.2344 16.4707 81.3281 16.7559C81.4219 17.0371 81.4688 17.375 81.4688 17.7695V22H79.7812V17.957C79.7812 17.668 79.7422 17.4453 79.6641 17.2891C79.5859 17.1328 79.4746 17.0234 79.3301 16.9609C79.1895 16.8984 79.0195 16.8672 78.8203 16.8672C78.6016 16.8672 78.4102 16.9121 78.2461 17.002C78.0859 17.0918 77.9531 17.2168 77.8477 17.377C77.7422 17.5332 77.6641 17.7168 77.6133 17.9277C77.5625 18.1387 77.5371 18.3652 77.5371 18.6074ZM81.3105 18.4141L80.707 18.4902C80.707 18.0762 80.7578 17.6914 80.8594 17.3359C80.9648 16.9805 81.1191 16.668 81.3223 16.3984C81.5293 16.1289 81.7852 15.9199 82.0898 15.7715C82.3945 15.6191 82.7461 15.543 83.1445 15.543C83.4492 15.543 83.7266 15.5879 83.9766 15.6777C84.2266 15.7637 84.4395 15.9023 84.6152 16.0938C84.7949 16.2812 84.9316 16.5273 85.0254 16.832C85.123 17.1367 85.1719 17.5098 85.1719 17.9512V22H83.4785V17.9512C83.4785 17.6582 83.4395 17.4355 83.3613 17.2832C83.2871 17.127 83.1777 17.0195 83.0332 16.9609C82.8926 16.8984 82.7246 16.8672 82.5293 16.8672C82.3262 16.8672 82.1484 16.9082 81.9961 16.9902C81.8438 17.0684 81.7168 17.1777 81.6152 17.3184C81.5137 17.459 81.4375 17.623 81.3867 17.8105C81.3359 17.9941 81.3105 18.1953 81.3105 18.4141Z" fill="#848484"/>
<path d="M12.9941 17.1348V23H11.0186V15.6035H12.8711L12.9941 17.1348ZM12.7207 19.042H12.1738C12.1738 18.527 12.2354 18.0531 12.3584 17.6201C12.486 17.1826 12.6706 16.8044 12.9121 16.4854C13.1582 16.1618 13.4613 15.9111 13.8213 15.7334C14.1813 15.5557 14.5983 15.4668 15.0723 15.4668C15.4004 15.4668 15.7012 15.5169 15.9746 15.6172C16.248 15.7129 16.4827 15.8656 16.6787 16.0752C16.8792 16.2803 17.0342 16.5492 17.1436 16.8818C17.2529 17.21 17.3076 17.6042 17.3076 18.0645V23H15.3389V18.2832C15.3389 17.946 15.2933 17.6862 15.2021 17.5039C15.111 17.3216 14.9811 17.194 14.8125 17.1211C14.6484 17.0482 14.4502 17.0117 14.2178 17.0117C13.9626 17.0117 13.7393 17.0641 13.5479 17.1689C13.361 17.2738 13.2061 17.4196 13.083 17.6064C12.96 17.7887 12.8688 18.0029 12.8096 18.249C12.7503 18.4951 12.7207 18.7594 12.7207 19.042ZM17.123 18.8164L16.4189 18.9053C16.4189 18.4222 16.4782 17.9733 16.5967 17.5586C16.7197 17.1439 16.8997 16.7793 17.1367 16.4648C17.3783 16.1504 17.6768 15.9066 18.0322 15.7334C18.3877 15.5557 18.7979 15.4668 19.2627 15.4668C19.6182 15.4668 19.9417 15.5192 20.2334 15.624C20.5251 15.7243 20.7734 15.8861 20.9785 16.1094C21.1882 16.3281 21.3477 16.6152 21.457 16.9707C21.571 17.3262 21.6279 17.7614 21.6279 18.2764V23H19.6523V18.2764C19.6523 17.9346 19.6068 17.6748 19.5156 17.4971C19.429 17.3148 19.3014 17.1895 19.1328 17.1211C18.9688 17.0482 18.7728 17.0117 18.5449 17.0117C18.3079 17.0117 18.1006 17.0596 17.9229 17.1553C17.7451 17.2464 17.597 17.374 17.4785 17.5381C17.36 17.7021 17.2712 17.8936 17.2119 18.1123C17.1527 18.3265 17.123 18.5612 17.123 18.8164ZM22.8379 19.377V19.2334C22.8379 18.6911 22.9154 18.1921 23.0703 17.7363C23.2253 17.276 23.4508 16.8773 23.7471 16.54C24.0433 16.2028 24.4079 15.9408 24.8408 15.7539C25.2738 15.5625 25.7705 15.4668 26.3311 15.4668C26.8916 15.4668 27.3906 15.5625 27.8281 15.7539C28.2656 15.9408 28.6325 16.2028 28.9287 16.54C29.2295 16.8773 29.4574 17.276 29.6123 17.7363C29.7673 18.1921 29.8447 18.6911 29.8447 19.2334V19.377C29.8447 19.9147 29.7673 20.4137 29.6123 20.874C29.4574 21.3298 29.2295 21.7285 28.9287 22.0703C28.6325 22.4076 28.2679 22.6696 27.835 22.8564C27.402 23.0433 26.9053 23.1367 26.3447 23.1367C25.7842 23.1367 25.2852 23.0433 24.8477 22.8564C24.4147 22.6696 24.0479 22.4076 23.7471 22.0703C23.4508 21.7285 23.2253 21.3298 23.0703 20.874C22.9154 20.4137 22.8379 19.9147 22.8379 19.377ZM24.8066 19.2334V19.377C24.8066 19.6868 24.834 19.9762 24.8887 20.2451C24.9434 20.514 25.0299 20.751 25.1484 20.9561C25.2715 21.1566 25.431 21.3138 25.627 21.4277C25.8229 21.5417 26.0622 21.5986 26.3447 21.5986C26.6182 21.5986 26.8529 21.5417 27.0488 21.4277C27.2448 21.3138 27.402 21.1566 27.5205 20.9561C27.639 20.751 27.7256 20.514 27.7803 20.2451C27.8395 19.9762 27.8691 19.6868 27.8691 19.377V19.2334C27.8691 18.9326 27.8395 18.6501 27.7803 18.3857C27.7256 18.1169 27.6367 17.8799 27.5137 17.6748C27.3952 17.4652 27.238 17.3011 27.042 17.1826C26.846 17.0641 26.609 17.0049 26.3311 17.0049C26.0531 17.0049 25.8161 17.0641 25.6201 17.1826C25.4287 17.3011 25.2715 17.4652 25.1484 17.6748C25.0299 17.8799 24.9434 18.1169 24.8887 18.3857C24.834 18.6501 24.8066 18.9326 24.8066 19.2334ZM33.4609 21.5645L35.1016 15.6035H37.1592L34.6641 23H33.4199L33.4609 21.5645ZM32.333 15.6035L33.9805 21.5713L34.0146 23H32.7637L30.2686 15.6035H32.333ZM41.3496 23.1367C40.7754 23.1367 40.2604 23.0456 39.8047 22.8633C39.349 22.6764 38.9616 22.4189 38.6426 22.0908C38.3281 21.7627 38.0866 21.3822 37.918 20.9492C37.7493 20.5117 37.665 20.0469 37.665 19.5547V19.2812C37.665 18.7207 37.7448 18.208 37.9043 17.7432C38.0638 17.2783 38.2917 16.875 38.5879 16.5332C38.8887 16.1914 39.2533 15.9294 39.6816 15.7471C40.11 15.5602 40.5931 15.4668 41.1309 15.4668C41.6549 15.4668 42.1198 15.5534 42.5254 15.7266C42.931 15.8997 43.2705 16.1458 43.5439 16.4648C43.8219 16.7839 44.0316 17.1667 44.1729 17.6133C44.3141 18.0553 44.3848 18.5475 44.3848 19.0898V19.9102H38.5059V18.5977H42.4502V18.4473C42.4502 18.1738 42.4001 17.93 42.2998 17.7158C42.2041 17.4971 42.0583 17.3239 41.8623 17.1963C41.6663 17.0687 41.4157 17.0049 41.1104 17.0049C40.8506 17.0049 40.6273 17.0618 40.4404 17.1758C40.2536 17.2897 40.1009 17.4492 39.9824 17.6543C39.8685 17.8594 39.7819 18.1009 39.7227 18.3789C39.668 18.6523 39.6406 18.9531 39.6406 19.2812V19.5547C39.6406 19.8509 39.6816 20.1243 39.7637 20.375C39.8503 20.6257 39.971 20.8421 40.126 21.0244C40.2855 21.2067 40.4769 21.348 40.7002 21.4482C40.9281 21.5485 41.1855 21.5986 41.4727 21.5986C41.8281 21.5986 42.1585 21.5303 42.4639 21.3936C42.7738 21.2523 43.0404 21.0404 43.2637 20.7578L44.2207 21.7969C44.0658 22.0202 43.8538 22.2344 43.585 22.4395C43.3206 22.6445 43.0016 22.8132 42.6279 22.9453C42.2542 23.0729 41.8281 23.1367 41.3496 23.1367Z" fill="white"/>
</svg>
