<svg width="152" height="43" viewBox="0 0 152 43" fill="none" xmlns="http://www.w3.org/2000/svg">
<path d="M0 6C0 2.68629 2.68629 0 6 0H15.8372C17.2536 0 18.6447 0.376067 19.8682 1.08977L28.1318 5.91023C29.3553 6.62393 30.7464 7 32.1628 7H47.8372C49.2536 7 50.6447 6.62393 51.8682 5.91023L60.1318 1.08977C61.3553 0.376066 62.7464 0 64.1628 0H145.5C148.814 0 151.5 2.68629 151.5 6V30C151.5 33.3137 148.814 36 145.5 36H64.1628C62.7464 36 61.3553 36.3761 60.1318 37.0898L51.8682 41.9102C50.6447 42.6239 49.2536 43 47.8372 43H32.1628C30.7464 43 29.3553 42.6239 28.1318 41.9102L19.8682 37.0898C18.6447 36.3761 17.2536 36 15.8372 36H6C2.68629 36 0 33.3137 0 30V6Z" fill="#00BA1E"/>
<path d="M64.4141 13.0469V23H62.3701V13.0469H64.4141ZM67.4766 13.0469V14.6533H59.3555V13.0469H67.4766ZM71.9541 14.749L69.2471 23H67.0664L70.7646 13.0469H72.1523L71.9541 14.749ZM74.2031 23L71.4893 14.749L71.2705 13.0469H72.6719L76.3906 23H74.2031ZM74.0801 19.2949V20.9014H68.8232V19.2949H74.0801ZM79.3643 13.0469V23H77.3135V13.0469H79.3643ZM85.3252 13.0469L81.3809 17.9619L79.1045 20.4092L78.7354 18.4678L80.2734 16.3623L82.8096 13.0469H85.3252ZM82.9941 23L80.0615 18.3994L81.5791 17.1279L85.4209 23H82.9941ZM92.8926 21.4004V23H87.5947V21.4004H92.8926ZM88.2646 13.0469V23H86.2139V13.0469H88.2646ZM92.2021 17.1006V18.6592H87.5947V17.1006H92.2021ZM92.8857 13.0469V14.6533H87.5947V13.0469H92.8857ZM101.451 19.4521H98.915V17.8525H101.451C101.843 17.8525 102.162 17.7887 102.408 17.6611C102.654 17.529 102.834 17.3467 102.948 17.1143C103.062 16.8818 103.119 16.6198 103.119 16.3281C103.119 16.0319 103.062 15.7562 102.948 15.501C102.834 15.2458 102.654 15.0407 102.408 14.8857C102.162 14.7308 101.843 14.6533 101.451 14.6533H99.626V23H97.5752V13.0469H101.451C102.23 13.0469 102.898 13.1882 103.454 13.4707C104.015 13.7487 104.443 14.1338 104.739 14.626C105.035 15.1182 105.184 15.681 105.184 16.3145C105.184 16.957 105.035 17.513 104.739 17.9824C104.443 18.4518 104.015 18.8141 103.454 19.0693C102.898 19.3245 102.23 19.4521 101.451 19.4521ZM113.236 17.1006V18.7002H108.041V17.1006H113.236ZM108.649 13.0469V23H106.599V13.0469H108.649ZM114.699 13.0469V23H112.655V13.0469H114.699ZM124.659 17.791V18.2627C124.659 19.0192 124.557 19.6982 124.352 20.2998C124.146 20.9014 123.857 21.4141 123.483 21.8379C123.11 22.2572 122.663 22.5785 122.144 22.8018C121.629 23.0251 121.057 23.1367 120.428 23.1367C119.803 23.1367 119.231 23.0251 118.712 22.8018C118.197 22.5785 117.75 22.2572 117.372 21.8379C116.994 21.4141 116.7 20.9014 116.49 20.2998C116.285 19.6982 116.183 19.0192 116.183 18.2627V17.791C116.183 17.0299 116.285 16.3509 116.49 15.7539C116.695 15.1523 116.985 14.6396 117.358 14.2158C117.737 13.792 118.183 13.4684 118.698 13.2451C119.218 13.0218 119.79 12.9102 120.414 12.9102C121.043 12.9102 121.615 13.0218 122.13 13.2451C122.649 13.4684 123.096 13.792 123.47 14.2158C123.848 14.6396 124.14 15.1523 124.345 15.7539C124.554 16.3509 124.659 17.0299 124.659 17.791ZM122.588 18.2627V17.7773C122.588 17.2487 122.54 16.7839 122.444 16.3828C122.349 15.9818 122.207 15.6445 122.021 15.3711C121.834 15.0977 121.606 14.8926 121.337 14.7559C121.068 14.6146 120.76 14.5439 120.414 14.5439C120.068 14.5439 119.76 14.6146 119.491 14.7559C119.227 14.8926 119.001 15.0977 118.814 15.3711C118.632 15.6445 118.493 15.9818 118.397 16.3828C118.302 16.7839 118.254 17.2487 118.254 17.7773V18.2627C118.254 18.7868 118.302 19.2516 118.397 19.6572C118.493 20.0583 118.634 20.3978 118.821 20.6758C119.008 20.9492 119.236 21.1566 119.505 21.2979C119.774 21.4391 120.081 21.5098 120.428 21.5098C120.774 21.5098 121.082 21.4391 121.351 21.2979C121.619 21.1566 121.845 20.9492 122.027 20.6758C122.21 20.3978 122.349 20.0583 122.444 19.6572C122.54 19.2516 122.588 18.7868 122.588 18.2627ZM130.121 13.0469V23H128.077V13.0469H130.121ZM133.184 13.0469V14.6533H125.062V13.0469H133.184ZM142.337 17.791V18.2627C142.337 19.0192 142.234 19.6982 142.029 20.2998C141.824 20.9014 141.535 21.4141 141.161 21.8379C140.787 22.2572 140.341 22.5785 139.821 22.8018C139.306 23.0251 138.734 23.1367 138.105 23.1367C137.481 23.1367 136.909 23.0251 136.39 22.8018C135.875 22.5785 135.428 22.2572 135.05 21.8379C134.672 21.4141 134.378 20.9014 134.168 20.2998C133.963 19.6982 133.86 19.0192 133.86 18.2627V17.791C133.86 17.0299 133.963 16.3509 134.168 15.7539C134.373 15.1523 134.662 14.6396 135.036 14.2158C135.414 13.792 135.861 13.4684 136.376 13.2451C136.896 13.0218 137.467 12.9102 138.092 12.9102C138.721 12.9102 139.293 13.0218 139.808 13.2451C140.327 13.4684 140.774 13.792 141.147 14.2158C141.526 14.6396 141.817 15.1523 142.022 15.7539C142.232 16.3509 142.337 17.0299 142.337 17.791ZM140.266 18.2627V17.7773C140.266 17.2487 140.218 16.7839 140.122 16.3828C140.026 15.9818 139.885 15.6445 139.698 15.3711C139.511 15.0977 139.284 14.8926 139.015 14.7559C138.746 14.6146 138.438 14.5439 138.092 14.5439C137.745 14.5439 137.438 14.6146 137.169 14.7559C136.905 14.8926 136.679 15.0977 136.492 15.3711C136.31 15.6445 136.171 15.9818 136.075 16.3828C135.979 16.7839 135.932 17.2487 135.932 17.7773V18.2627C135.932 18.7868 135.979 19.2516 136.075 19.6572C136.171 20.0583 136.312 20.3978 136.499 20.6758C136.686 20.9492 136.914 21.1566 137.183 21.2979C137.451 21.4391 137.759 21.5098 138.105 21.5098C138.452 21.5098 138.759 21.4391 139.028 21.2979C139.297 21.1566 139.523 20.9492 139.705 20.6758C139.887 20.3978 140.026 20.0583 140.122 19.6572C140.218 19.2516 140.266 18.7868 140.266 18.2627Z" fill="white"/>
</svg>
