<svg width="172" height="82" viewBox="0 0 172 82" fill="none" xmlns="http://www.w3.org/2000/svg">
<path d="M0 39V30H26C29.3137 30 32 32.6863 32 36V36H22C21.1716 36 20.5 36.6716 20.5 37.5V37.5C20.5 38.3284 21.1716 39 22 39H38.8372C40.2536 39 41.6447 39.3761 42.8682 40.0898L51.1318 44.9102C52.3553 45.6239 53.7464 46 55.1628 46H70.8372C72.2536 46 73.6447 45.6239 74.8682 44.9102L83.1318 40.0898C84.3553 39.3761 85.7464 39 87.1628 39H166C169.314 39 172 41.6863 172 45V69C172 72.3137 169.314 75 166 75H64.1628C62.7464 75 61.3553 75.3761 60.1318 76.0898L51.8682 80.9102C50.6447 81.6239 49.2536 82 47.8372 82H32.1628C30.7464 82 29.3553 81.6239 28.1318 80.9102L19.8682 76.0898C18.6447 75.3761 17.2536 75 15.8372 75H6C2.68629 75 0 72.3137 0 69V39Z" fill="#FEBD00"/>
<path d="M0 6C0 2.68629 2.68629 0 6 0H15.8372C17.2536 0 18.6447 0.376067 19.8682 1.08977L28.1318 5.91023C29.3553 6.62393 30.7464 7 32.1628 7H47.8372C49.2536 7 50.6447 6.62393 51.8682 5.91023L60.1318 1.08977C61.3553 0.376066 62.7464 0 64.1628 0H166C169.314 0 172 2.68629 172 6V30C172 33.3137 169.314 36 166 36H87.1628C85.7464 36 84.3553 36.3761 83.1318 37.0898L74.8682 41.9102C73.6447 42.6239 72.2536 43 70.8372 43H55.1628C53.7464 43 52.3553 42.6239 51.1318 41.9102L42.8682 37.0898C41.6447 36.3761 40.2536 36 38.8372 36H6C2.68629 36 0 33.3137 0 30V6Z" fill="#FEBD00"/>
<rect x="57" y="12" width="18" height="16" rx="8" fill="white"/>
<path d="M64.8691 19.002H65.7715C66.0605 19.002 66.2988 18.9531 66.4863 18.8555C66.6738 18.7539 66.8125 18.6133 66.9023 18.4336C66.9961 18.25 67.043 18.0371 67.043 17.7949C67.043 17.5762 67 17.3828 66.9141 17.2148C66.832 17.043 66.7051 16.9102 66.5332 16.8164C66.3613 16.7188 66.1445 16.6699 65.8828 16.6699C65.6758 16.6699 65.4844 16.7109 65.3086 16.793C65.1328 16.875 64.9922 16.9902 64.8867 17.1387C64.7812 17.2871 64.7285 17.4668 64.7285 17.6777H63.0352C63.0352 17.209 63.1602 16.8008 63.4102 16.4531C63.6641 16.1055 64.0039 15.834 64.4297 15.6387C64.8555 15.4434 65.3242 15.3457 65.8359 15.3457C66.4141 15.3457 66.9199 15.4395 67.3535 15.627C67.7871 15.8105 68.125 16.082 68.3672 16.4414C68.6094 16.8008 68.7305 17.2461 68.7305 17.7773C68.7305 18.0469 68.668 18.3086 68.543 18.5625C68.418 18.8125 68.2383 19.0391 68.0039 19.2422C67.7734 19.4414 67.4922 19.6016 67.1602 19.7227C66.8281 19.8398 66.4551 19.8984 66.041 19.8984H64.8691V19.002ZM64.8691 20.2852V19.4121H66.041C66.5059 19.4121 66.9141 19.4648 67.2656 19.5703C67.6172 19.6758 67.9121 19.8281 68.1504 20.0273C68.3887 20.2227 68.5684 20.4551 68.6895 20.7246C68.8105 20.9902 68.8711 21.2852 68.8711 21.6094C68.8711 22.0078 68.7949 22.3633 68.6426 22.6758C68.4902 22.9844 68.2754 23.2461 67.998 23.4609C67.7246 23.6758 67.4043 23.8398 67.0371 23.9531C66.6699 24.0625 66.2695 24.1172 65.8359 24.1172C65.4766 24.1172 65.123 24.0684 64.7754 23.9707C64.4316 23.8691 64.1191 23.7188 63.8379 23.5195C63.5605 23.3164 63.3379 23.0625 63.1699 22.7578C63.0059 22.4492 62.9238 22.084 62.9238 21.6621H64.6172C64.6172 21.8809 64.6719 22.0762 64.7812 22.248C64.8906 22.4199 65.041 22.5547 65.2324 22.6523C65.4277 22.75 65.6445 22.7988 65.8828 22.7988C66.1523 22.7988 66.3828 22.75 66.5742 22.6523C66.7695 22.5508 66.918 22.4102 67.0195 22.2305C67.125 22.0469 67.1777 21.834 67.1777 21.5918C67.1777 21.2793 67.1211 21.0293 67.0078 20.8418C66.8945 20.6504 66.7324 20.5098 66.5215 20.4199C66.3105 20.3301 66.0605 20.2852 65.7715 20.2852H64.8691Z" fill="#848484"/>
<path d="M13.123 18.2168V24H11.1543V16.6035H13.0068L13.123 18.2168ZM15.3516 16.5557L15.3174 18.3809C15.2217 18.3672 15.1055 18.3558 14.9688 18.3467C14.8366 18.333 14.7158 18.3262 14.6064 18.3262C14.3285 18.3262 14.0869 18.3626 13.8818 18.4355C13.6813 18.5039 13.5127 18.6064 13.376 18.7432C13.2438 18.8799 13.1436 19.0462 13.0752 19.2422C13.0114 19.4382 12.9749 19.6615 12.9658 19.9121L12.5693 19.7891C12.5693 19.3105 12.6172 18.8708 12.7129 18.4697C12.8086 18.0641 12.9476 17.7109 13.1299 17.4102C13.3167 17.1094 13.5446 16.877 13.8135 16.7129C14.0824 16.5488 14.39 16.4668 14.7363 16.4668C14.8457 16.4668 14.9574 16.4759 15.0713 16.4941C15.1852 16.5078 15.2786 16.5283 15.3516 16.5557ZM19.5488 24.1367C18.9746 24.1367 18.4596 24.0456 18.0039 23.8633C17.5482 23.6764 17.1608 23.4189 16.8418 23.0908C16.5273 22.7627 16.2858 22.3822 16.1172 21.9492C15.9486 21.5117 15.8643 21.0469 15.8643 20.5547V20.2812C15.8643 19.7207 15.944 19.208 16.1035 18.7432C16.263 18.2783 16.4909 17.875 16.7871 17.5332C17.0879 17.1914 17.4525 16.9294 17.8809 16.7471C18.3092 16.5602 18.7923 16.4668 19.3301 16.4668C19.8542 16.4668 20.319 16.5534 20.7246 16.7266C21.1302 16.8997 21.4697 17.1458 21.7432 17.4648C22.0212 17.7839 22.2308 18.1667 22.3721 18.6133C22.5133 19.0553 22.584 19.5475 22.584 20.0898V20.9102H16.7051V19.5977H20.6494V19.4473C20.6494 19.1738 20.5993 18.93 20.499 18.7158C20.4033 18.4971 20.2575 18.3239 20.0615 18.1963C19.8656 18.0687 19.6149 18.0049 19.3096 18.0049C19.0498 18.0049 18.8265 18.0618 18.6396 18.1758C18.4528 18.2897 18.3001 18.4492 18.1816 18.6543C18.0677 18.8594 17.9811 19.1009 17.9219 19.3789C17.8672 19.6523 17.8398 19.9531 17.8398 20.2812V20.5547C17.8398 20.8509 17.8809 21.1243 17.9629 21.375C18.0495 21.6257 18.1702 21.8421 18.3252 22.0244C18.4847 22.2067 18.6761 22.348 18.8994 22.4482C19.1273 22.5485 19.3848 22.5986 19.6719 22.5986C20.0273 22.5986 20.3577 22.5303 20.6631 22.3936C20.973 22.2523 21.2396 22.0404 21.4629 21.7578L22.4199 22.7969C22.265 23.0202 22.0531 23.2344 21.7842 23.4395C21.5199 23.6445 21.2008 23.8132 20.8271 23.9453C20.4535 24.0729 20.0273 24.1367 19.5488 24.1367ZM25.6738 18.0254V26.8438H23.7051V16.6035H25.5303L25.6738 18.0254ZM30.3564 20.2197V20.3633C30.3564 20.901 30.2926 21.4001 30.165 21.8604C30.042 22.3206 29.8597 22.7217 29.6182 23.0635C29.3766 23.4007 29.0758 23.665 28.7158 23.8564C28.3604 24.0433 27.9502 24.1367 27.4854 24.1367C27.0342 24.1367 26.6423 24.0456 26.3096 23.8633C25.9769 23.681 25.6966 23.4258 25.4688 23.0977C25.2454 22.765 25.0654 22.3799 24.9287 21.9424C24.792 21.5049 24.6872 21.0355 24.6143 20.5342V20.1582C24.6872 19.6204 24.792 19.1283 24.9287 18.6816C25.0654 18.2305 25.2454 17.8408 25.4688 17.5127C25.6966 17.18 25.9746 16.9225 26.3027 16.7402C26.6354 16.5579 27.0251 16.4668 27.4717 16.4668C27.9411 16.4668 28.3535 16.5557 28.709 16.7334C29.069 16.9111 29.3698 17.1663 29.6113 17.499C29.8574 17.8317 30.042 18.2282 30.165 18.6885C30.2926 19.1488 30.3564 19.6592 30.3564 20.2197ZM28.3809 20.3633V20.2197C28.3809 19.9053 28.3535 19.6159 28.2988 19.3516C28.2487 19.0827 28.1667 18.848 28.0527 18.6475C27.9434 18.4469 27.7975 18.292 27.6152 18.1826C27.4375 18.0687 27.221 18.0117 26.9658 18.0117C26.6969 18.0117 26.4668 18.055 26.2754 18.1416C26.0885 18.2282 25.9359 18.3535 25.8174 18.5176C25.6989 18.6816 25.61 18.8776 25.5508 19.1055C25.4915 19.3333 25.4551 19.5908 25.4414 19.8779V20.8281C25.4642 21.1654 25.528 21.4684 25.6328 21.7373C25.7376 22.0016 25.8994 22.2113 26.1182 22.3662C26.3369 22.5212 26.624 22.5986 26.9795 22.5986C27.2393 22.5986 27.458 22.5417 27.6357 22.4277C27.8135 22.3092 27.957 22.1475 28.0664 21.9424C28.1803 21.7373 28.2601 21.5003 28.3057 21.2314C28.3558 20.9626 28.3809 20.6732 28.3809 20.3633ZM34.9844 24.1367C34.4102 24.1367 33.8952 24.0456 33.4395 23.8633C32.9837 23.6764 32.5964 23.4189 32.2773 23.0908C31.9629 22.7627 31.7214 22.3822 31.5527 21.9492C31.3841 21.5117 31.2998 21.0469 31.2998 20.5547V20.2812C31.2998 19.7207 31.3796 19.208 31.5391 18.7432C31.6986 18.2783 31.9264 17.875 32.2227 17.5332C32.5234 17.1914 32.888 16.9294 33.3164 16.7471C33.7448 16.5602 34.2279 16.4668 34.7656 16.4668C35.2897 16.4668 35.7546 16.5534 36.1602 16.7266C36.5658 16.8997 36.9053 17.1458 37.1787 17.4648C37.4567 17.7839 37.6663 18.1667 37.8076 18.6133C37.9489 19.0553 38.0195 19.5475 38.0195 20.0898V20.9102H32.1406V19.5977H36.085V19.4473C36.085 19.1738 36.0348 18.93 35.9346 18.7158C35.8389 18.4971 35.693 18.3239 35.4971 18.1963C35.3011 18.0687 35.0505 18.0049 34.7451 18.0049C34.4854 18.0049 34.262 18.0618 34.0752 18.1758C33.8883 18.2897 33.7357 18.4492 33.6172 18.6543C33.5033 18.8594 33.4167 19.1009 33.3574 19.3789C33.3027 19.6523 33.2754 19.9531 33.2754 20.2812V20.5547C33.2754 20.8509 33.3164 21.1243 33.3984 21.375C33.485 21.6257 33.6058 21.8421 33.7607 22.0244C33.9202 22.2067 34.1117 22.348 34.335 22.4482C34.5628 22.5485 34.8203 22.5986 35.1074 22.5986C35.4629 22.5986 35.7933 22.5303 36.0986 22.3936C36.4085 22.2523 36.6751 22.0404 36.8984 21.7578L37.8555 22.7969C37.7005 23.0202 37.4886 23.2344 37.2197 23.4395C36.9554 23.6445 36.6364 23.8132 36.2627 23.9453C35.889 24.0729 35.4629 24.1367 34.9844 24.1367ZM43.1328 22.332V19.0371C43.1328 18.8001 43.0941 18.5973 43.0166 18.4287C42.9391 18.2555 42.8184 18.1211 42.6543 18.0254C42.4948 17.9297 42.2874 17.8818 42.0322 17.8818C41.8135 17.8818 41.6243 17.9206 41.4648 17.998C41.3053 18.071 41.1823 18.1781 41.0957 18.3193C41.0091 18.4561 40.9658 18.6178 40.9658 18.8047H38.9971C38.9971 18.4902 39.07 18.1917 39.2158 17.9092C39.3617 17.6266 39.5736 17.3783 39.8516 17.1641C40.1296 16.9453 40.46 16.7744 40.8428 16.6514C41.2301 16.5283 41.6631 16.4668 42.1416 16.4668C42.7158 16.4668 43.2262 16.5625 43.6729 16.7539C44.1195 16.9453 44.4704 17.2324 44.7256 17.6152C44.9854 17.998 45.1152 18.4766 45.1152 19.0508V22.2158C45.1152 22.6214 45.1403 22.9541 45.1904 23.2139C45.2406 23.4691 45.3135 23.6924 45.4092 23.8838V24H43.4199C43.3242 23.7995 43.2513 23.5488 43.2012 23.248C43.1556 22.9427 43.1328 22.6374 43.1328 22.332ZM43.3926 19.4951L43.4062 20.6094H42.3057C42.0459 20.6094 41.8203 20.639 41.6289 20.6982C41.4375 20.7575 41.2803 20.8418 41.1572 20.9512C41.0342 21.056 40.943 21.179 40.8838 21.3203C40.8291 21.4616 40.8018 21.6165 40.8018 21.7852C40.8018 21.9538 40.8405 22.1064 40.918 22.2432C40.9954 22.3753 41.1071 22.4801 41.2529 22.5576C41.3988 22.6305 41.5697 22.667 41.7656 22.667C42.0618 22.667 42.3193 22.6077 42.5381 22.4893C42.7568 22.3708 42.9255 22.2249 43.0439 22.0518C43.167 21.8786 43.2308 21.7145 43.2354 21.5596L43.7549 22.3936C43.682 22.5804 43.5817 22.7741 43.4541 22.9746C43.3311 23.1751 43.1738 23.3643 42.9824 23.542C42.791 23.7152 42.5609 23.8587 42.292 23.9727C42.0231 24.082 41.7041 24.1367 41.335 24.1367C40.8656 24.1367 40.4395 24.0433 40.0566 23.8564C39.6784 23.665 39.3776 23.403 39.1543 23.0703C38.9355 22.7331 38.8262 22.3503 38.8262 21.9219C38.8262 21.5345 38.8991 21.1904 39.0449 20.8896C39.1908 20.5889 39.4049 20.3359 39.6875 20.1309C39.9746 19.9212 40.3324 19.764 40.7607 19.6592C41.1891 19.5498 41.6859 19.4951 42.251 19.4951H43.3926ZM50.2559 16.6035V17.998H45.9492V16.6035H50.2559ZM47.0156 14.7783H48.9844V21.7715C48.9844 21.9857 49.0117 22.1497 49.0664 22.2637C49.1257 22.3776 49.2122 22.4574 49.3262 22.5029C49.4401 22.5439 49.5837 22.5645 49.7568 22.5645C49.8799 22.5645 49.9893 22.5599 50.085 22.5508C50.1852 22.5371 50.2695 22.5234 50.3379 22.5098L50.3447 23.959C50.1761 24.0137 49.9938 24.057 49.7979 24.0889C49.6019 24.1208 49.3854 24.1367 49.1484 24.1367C48.7155 24.1367 48.3372 24.0661 48.0137 23.9248C47.6947 23.779 47.4486 23.5465 47.2754 23.2275C47.1022 22.9085 47.0156 22.4893 47.0156 21.9697V14.7783Z" fill="white"/>
</svg>
