<svg width="141" height="43" viewBox="0 0 141 43" fill="none" xmlns="http://www.w3.org/2000/svg">
<path d="M0 6C0 2.68629 2.68629 0 6 0H15.8372C17.2536 0 18.6447 0.376067 19.8682 1.08977L28.1318 5.91023C29.3553 6.62393 30.7464 7 32.1628 7H47.8372C49.2536 7 50.6447 6.62393 51.8682 5.91023L60.1318 1.08977C61.3553 0.376066 62.7464 0 64.1628 0H134.5C137.814 0 140.5 2.68629 140.5 6V30C140.5 33.3137 137.814 36 134.5 36H64.1628C62.7464 36 61.3553 36.3761 60.1318 37.0898L51.8682 41.9102C50.6447 42.6239 49.2536 43 47.8372 43H32.1628C30.7464 43 29.3553 42.6239 28.1318 41.9102L19.8682 37.0898C18.6447 36.3761 17.2536 36 15.8372 36H6C2.68629 36 0 33.3137 0 30V6Z" fill="#4D97FF"/>
<path d="M92.8799 19.6982H94.9238C94.8828 20.3682 94.6982 20.9629 94.3701 21.4824C94.0465 22.002 93.5931 22.4076 93.0098 22.6992C92.431 22.9909 91.7337 23.1367 90.918 23.1367C90.2799 23.1367 89.708 23.0273 89.2021 22.8086C88.6963 22.5853 88.2633 22.2663 87.9033 21.8516C87.5479 21.4368 87.2767 20.9355 87.0898 20.3477C86.903 19.7598 86.8096 19.1012 86.8096 18.3721V17.6816C86.8096 16.9525 86.9053 16.2939 87.0967 15.7061C87.2926 15.1136 87.5706 14.61 87.9307 14.1953C88.2952 13.7806 88.7305 13.4616 89.2363 13.2383C89.7422 13.015 90.3073 12.9033 90.9316 12.9033C91.7611 12.9033 92.4606 13.0537 93.0303 13.3545C93.6045 13.6553 94.0488 14.07 94.3633 14.5986C94.6823 15.1273 94.8737 15.7288 94.9375 16.4033H92.8867C92.8639 16.0023 92.7842 15.6628 92.6475 15.3848C92.5107 15.1022 92.3034 14.8903 92.0254 14.749C91.752 14.6032 91.3874 14.5303 90.9316 14.5303C90.5898 14.5303 90.2913 14.5941 90.0361 14.7217C89.7809 14.8493 89.5667 15.043 89.3936 15.3027C89.2204 15.5625 89.0905 15.8906 89.0039 16.2871C88.9219 16.679 88.8809 17.1393 88.8809 17.668V18.3721C88.8809 18.887 88.9196 19.3405 88.9971 19.7324C89.0745 20.1198 89.193 20.4479 89.3525 20.7168C89.5166 20.9811 89.7262 21.1816 89.9814 21.3184C90.2412 21.4505 90.5534 21.5166 90.918 21.5166C91.3464 21.5166 91.6995 21.4482 91.9775 21.3115C92.2555 21.1748 92.4674 20.972 92.6133 20.7031C92.7637 20.4342 92.8525 20.0993 92.8799 19.6982ZM104.446 17.791V18.2627C104.446 19.0192 104.344 19.6982 104.139 20.2998C103.934 20.9014 103.644 21.4141 103.271 21.8379C102.897 22.2572 102.45 22.5785 101.931 22.8018C101.416 23.0251 100.844 23.1367 100.215 23.1367C99.5905 23.1367 99.0186 23.0251 98.499 22.8018C97.984 22.5785 97.5374 22.2572 97.1592 21.8379C96.7809 21.4141 96.487 20.9014 96.2773 20.2998C96.0723 19.6982 95.9697 19.0192 95.9697 18.2627V17.791C95.9697 17.0299 96.0723 16.3509 96.2773 15.7539C96.4824 15.1523 96.7718 14.6396 97.1455 14.2158C97.5238 13.792 97.9704 13.4684 98.4854 13.2451C99.0049 13.0218 99.5768 12.9102 100.201 12.9102C100.83 12.9102 101.402 13.0218 101.917 13.2451C102.437 13.4684 102.883 13.792 103.257 14.2158C103.635 14.6396 103.927 15.1523 104.132 15.7539C104.341 16.3509 104.446 17.0299 104.446 17.791ZM102.375 18.2627V17.7773C102.375 17.2487 102.327 16.7839 102.231 16.3828C102.136 15.9818 101.994 15.6445 101.808 15.3711C101.621 15.0977 101.393 14.8926 101.124 14.7559C100.855 14.6146 100.548 14.5439 100.201 14.5439C99.8548 14.5439 99.5472 14.6146 99.2783 14.7559C99.014 14.8926 98.7884 15.0977 98.6016 15.3711C98.4193 15.6445 98.2803 15.9818 98.1846 16.3828C98.0889 16.7839 98.041 17.2487 98.041 17.7773V18.2627C98.041 18.7868 98.0889 19.2516 98.1846 19.6572C98.2803 20.0583 98.4215 20.3978 98.6084 20.6758C98.7952 20.9492 99.0231 21.1566 99.292 21.2979C99.5609 21.4391 99.8685 21.5098 100.215 21.5098C100.561 21.5098 100.869 21.4391 101.138 21.2979C101.407 21.1566 101.632 20.9492 101.814 20.6758C101.997 20.3978 102.136 20.0583 102.231 19.6572C102.327 19.2516 102.375 18.7868 102.375 18.2627ZM112.321 21.4004V23H107.311V21.4004H112.321ZM107.974 13.0469V23H105.923V13.0469H107.974ZM121.222 17.791V18.2627C121.222 19.0192 121.119 19.6982 120.914 20.2998C120.709 20.9014 120.42 21.4141 120.046 21.8379C119.672 22.2572 119.226 22.5785 118.706 22.8018C118.191 23.0251 117.619 23.1367 116.99 23.1367C116.366 23.1367 115.794 23.0251 115.274 22.8018C114.759 22.5785 114.313 22.2572 113.935 21.8379C113.556 21.4141 113.262 20.9014 113.053 20.2998C112.848 19.6982 112.745 19.0192 112.745 18.2627V17.791C112.745 17.0299 112.848 16.3509 113.053 15.7539C113.258 15.1523 113.547 14.6396 113.921 14.2158C114.299 13.792 114.746 13.4684 115.261 13.2451C115.78 13.0218 116.352 12.9102 116.977 12.9102C117.605 12.9102 118.177 13.0218 118.692 13.2451C119.212 13.4684 119.659 13.792 120.032 14.2158C120.41 14.6396 120.702 15.1523 120.907 15.7539C121.117 16.3509 121.222 17.0299 121.222 17.791ZM119.15 18.2627V17.7773C119.15 17.2487 119.103 16.7839 119.007 16.3828C118.911 15.9818 118.77 15.6445 118.583 15.3711C118.396 15.0977 118.168 14.8926 117.899 14.7559C117.631 14.6146 117.323 14.5439 116.977 14.5439C116.63 14.5439 116.323 14.6146 116.054 14.7559C115.789 14.8926 115.564 15.0977 115.377 15.3711C115.195 15.6445 115.056 15.9818 114.96 16.3828C114.864 16.7839 114.816 17.2487 114.816 17.7773V18.2627C114.816 18.7868 114.864 19.2516 114.96 19.6572C115.056 20.0583 115.197 20.3978 115.384 20.6758C115.571 20.9492 115.799 21.1566 116.067 21.2979C116.336 21.4391 116.644 21.5098 116.99 21.5098C117.337 21.5098 117.644 21.4391 117.913 21.2979C118.182 21.1566 118.408 20.9492 118.59 20.6758C118.772 20.3978 118.911 20.0583 119.007 19.6572C119.103 19.2516 119.15 18.7868 119.15 18.2627ZM122.698 13.0469H126.41C127.171 13.0469 127.825 13.1608 128.372 13.3887C128.924 13.6165 129.347 13.9538 129.644 14.4004C129.94 14.847 130.088 15.3962 130.088 16.0479C130.088 16.5811 129.997 17.0391 129.814 17.4219C129.637 17.8001 129.384 18.1169 129.056 18.3721C128.732 18.6227 128.352 18.8232 127.914 18.9736L127.265 19.3154H124.038L124.024 17.7158H126.424C126.784 17.7158 127.082 17.652 127.319 17.5244C127.556 17.3968 127.734 17.2191 127.853 16.9912C127.976 16.7633 128.037 16.499 128.037 16.1982C128.037 15.8792 127.978 15.6035 127.859 15.3711C127.741 15.1387 127.561 14.9609 127.319 14.8379C127.078 14.7148 126.775 14.6533 126.41 14.6533H124.749V23H122.698V13.0469ZM128.263 23L125.993 18.5635L128.16 18.5498L130.457 22.9043V23H128.263Z" fill="white"/>
<rect x="52" y="10" width="25" height="16" rx="8" fill="white"/>
<path d="M22.0166 20.9561C22.0166 20.8148 21.9756 20.6872 21.8936 20.5732C21.8115 20.4593 21.6589 20.3545 21.4355 20.2588C21.2168 20.1585 20.9001 20.0674 20.4854 19.9854C20.1117 19.9033 19.763 19.8008 19.4395 19.6777C19.1204 19.5501 18.8424 19.3975 18.6055 19.2197C18.373 19.042 18.1908 18.8324 18.0586 18.5908C17.9264 18.3447 17.8604 18.0645 17.8604 17.75C17.8604 17.4401 17.9264 17.1484 18.0586 16.875C18.1953 16.6016 18.389 16.36 18.6396 16.1504C18.8949 15.9362 19.2048 15.7699 19.5693 15.6514C19.9385 15.5283 20.3532 15.4668 20.8135 15.4668C21.4561 15.4668 22.0075 15.5693 22.4678 15.7744C22.9326 15.9795 23.2881 16.262 23.5342 16.6221C23.7848 16.9775 23.9102 17.3831 23.9102 17.8389H21.9414C21.9414 17.6475 21.9004 17.4766 21.8184 17.3262C21.7409 17.1712 21.6178 17.0505 21.4492 16.9639C21.2852 16.8727 21.071 16.8271 20.8066 16.8271C20.5879 16.8271 20.3988 16.8659 20.2393 16.9434C20.0798 17.0163 19.9567 17.1165 19.8701 17.2441C19.7881 17.3672 19.7471 17.5039 19.7471 17.6543C19.7471 17.7682 19.7699 17.8708 19.8154 17.9619C19.8656 18.0485 19.9453 18.1283 20.0547 18.2012C20.1641 18.2741 20.3053 18.3424 20.4785 18.4062C20.6562 18.4655 20.875 18.5202 21.1348 18.5703C21.668 18.6797 22.1442 18.8232 22.5635 19.001C22.9827 19.1742 23.3154 19.4111 23.5615 19.7119C23.8076 20.0081 23.9307 20.3978 23.9307 20.8809C23.9307 21.209 23.8577 21.5098 23.7119 21.7832C23.5661 22.0566 23.3564 22.2959 23.083 22.501C22.8096 22.7015 22.4814 22.8587 22.0986 22.9727C21.7204 23.082 21.2943 23.1367 20.8203 23.1367C20.1322 23.1367 19.5488 23.0137 19.0703 22.7676C18.5964 22.5215 18.2363 22.2093 17.9902 21.8311C17.7487 21.4482 17.6279 21.0563 17.6279 20.6553H19.4941C19.5033 20.9242 19.5716 21.1406 19.6992 21.3047C19.8314 21.4688 19.9977 21.5872 20.1982 21.6602C20.4033 21.7331 20.6243 21.7695 20.8613 21.7695C21.1165 21.7695 21.3285 21.7354 21.4971 21.667C21.6657 21.5941 21.7933 21.4984 21.8799 21.3799C21.971 21.2568 22.0166 21.1156 22.0166 20.9561ZM28.6133 23.1367C28.0391 23.1367 27.5241 23.0456 27.0684 22.8633C26.6126 22.6764 26.2253 22.4189 25.9062 22.0908C25.5918 21.7627 25.3503 21.3822 25.1816 20.9492C25.013 20.5117 24.9287 20.0469 24.9287 19.5547V19.2812C24.9287 18.7207 25.0085 18.208 25.168 17.7432C25.3275 17.2783 25.5553 16.875 25.8516 16.5332C26.1523 16.1914 26.5169 15.9294 26.9453 15.7471C27.3737 15.5602 27.8568 15.4668 28.3945 15.4668C28.9186 15.4668 29.3835 15.5534 29.7891 15.7266C30.1947 15.8997 30.5342 16.1458 30.8076 16.4648C31.0856 16.7839 31.2952 17.1667 31.4365 17.6133C31.5778 18.0553 31.6484 18.5475 31.6484 19.0898V19.9102H25.7695V18.5977H29.7139V18.4473C29.7139 18.1738 29.6637 17.93 29.5635 17.7158C29.4678 17.4971 29.3219 17.3239 29.126 17.1963C28.93 17.0687 28.6794 17.0049 28.374 17.0049C28.1143 17.0049 27.891 17.0618 27.7041 17.1758C27.5173 17.2897 27.3646 17.4492 27.2461 17.6543C27.1322 17.8594 27.0456 18.1009 26.9863 18.3789C26.9316 18.6523 26.9043 18.9531 26.9043 19.2812V19.5547C26.9043 19.8509 26.9453 20.1243 27.0273 20.375C27.1139 20.6257 27.2347 20.8421 27.3896 21.0244C27.5492 21.2067 27.7406 21.348 27.9639 21.4482C28.1917 21.5485 28.4492 21.5986 28.7363 21.5986C29.0918 21.5986 29.4222 21.5303 29.7275 21.3936C30.0374 21.2523 30.304 21.0404 30.5273 20.7578L31.4844 21.7969C31.3294 22.0202 31.1175 22.2344 30.8486 22.4395C30.5843 22.6445 30.2653 22.8132 29.8916 22.9453C29.5179 23.0729 29.0918 23.1367 28.6133 23.1367ZM36.3926 15.6035V16.998H32.0859V15.6035H36.3926ZM33.1523 13.7783H35.1211V20.7715C35.1211 20.9857 35.1484 21.1497 35.2031 21.2637C35.2624 21.3776 35.349 21.4574 35.4629 21.5029C35.5768 21.5439 35.7204 21.5645 35.8936 21.5645C36.0166 21.5645 36.126 21.5599 36.2217 21.5508C36.3219 21.5371 36.4062 21.5234 36.4746 21.5098L36.4814 22.959C36.3128 23.0137 36.1305 23.057 35.9346 23.0889C35.7386 23.1208 35.5221 23.1367 35.2852 23.1367C34.8522 23.1367 34.474 23.0661 34.1504 22.9248C33.8314 22.779 33.5853 22.5465 33.4121 22.2275C33.2389 21.9085 33.1523 21.4893 33.1523 20.9697V13.7783Z" fill="white"/>
</svg>
