<svg width="133" height="43" viewBox="0 0 133 43" fill="none" xmlns="http://www.w3.org/2000/svg">
<path d="M0 6C0 2.68629 2.68629 0 6 0H15.8372C17.2536 0 18.6447 0.376067 19.8682 1.08977L28.1318 5.91023C29.3553 6.62393 30.7464 7 32.1628 7H47.8372C49.2536 7 50.6447 6.62393 51.8682 5.91023L60.1318 1.08977C61.3553 0.376066 62.7464 0 64.1628 0H127C130.314 0 133 2.68629 133 6V30C133 33.3137 130.314 36 127 36H64.1628C62.7464 36 61.3553 36.3761 60.1318 37.0898L51.8682 41.9102C50.6447 42.6239 49.2536 43 47.8372 43H32.1628C30.7464 43 29.3553 42.6239 28.1318 41.9102L19.8682 37.0898C18.6447 36.3761 17.2536 36 15.8372 36H6C2.68629 36 0 33.3137 0 30V6Z" fill="#4D97FF"/>
<path d="M103.239 20.3955C103.239 20.2178 103.212 20.0583 103.157 19.917C103.107 19.7712 103.011 19.639 102.87 19.5205C102.729 19.3975 102.531 19.2767 102.275 19.1582C102.02 19.0397 101.69 18.9167 101.284 18.7891C100.833 18.6432 100.405 18.4792 99.999 18.2969C99.598 18.1146 99.2425 17.9027 98.9326 17.6611C98.6273 17.415 98.3857 17.1302 98.208 16.8066C98.0348 16.4831 97.9482 16.1071 97.9482 15.6787C97.9482 15.264 98.0394 14.888 98.2217 14.5508C98.404 14.209 98.6592 13.9173 98.9873 13.6758C99.3154 13.4297 99.7028 13.2406 100.149 13.1084C100.601 12.9762 101.095 12.9102 101.633 12.9102C102.367 12.9102 103.007 13.0423 103.554 13.3066C104.101 13.571 104.524 13.9333 104.825 14.3936C105.131 14.8538 105.283 15.3802 105.283 15.9727H103.246C103.246 15.681 103.185 15.4258 103.062 15.207C102.943 14.9837 102.761 14.8083 102.515 14.6807C102.273 14.5531 101.968 14.4893 101.599 14.4893C101.243 14.4893 100.947 14.5439 100.71 14.6533C100.473 14.7581 100.295 14.9017 100.177 15.084C100.058 15.2617 99.999 15.4622 99.999 15.6855C99.999 15.8542 100.04 16.0068 100.122 16.1436C100.209 16.2803 100.336 16.4079 100.505 16.5264C100.674 16.6449 100.881 16.7565 101.127 16.8613C101.373 16.9661 101.658 17.0687 101.981 17.1689C102.524 17.333 103 17.5176 103.41 17.7227C103.825 17.9277 104.171 18.1579 104.449 18.4131C104.727 18.6683 104.937 18.9577 105.078 19.2812C105.219 19.6048 105.29 19.9717 105.29 20.3818C105.29 20.8148 105.206 21.2021 105.037 21.5439C104.868 21.8857 104.625 22.1751 104.306 22.4121C103.987 22.6491 103.606 22.8291 103.164 22.9521C102.722 23.0752 102.228 23.1367 101.681 23.1367C101.188 23.1367 100.703 23.0729 100.225 22.9453C99.7461 22.8132 99.3109 22.6149 98.9189 22.3506C98.5316 22.0863 98.2217 21.749 97.9893 21.3389C97.7568 20.9287 97.6406 20.4434 97.6406 19.8828H99.6982C99.6982 20.1927 99.7461 20.4548 99.8418 20.6689C99.9375 20.8831 100.072 21.0563 100.245 21.1885C100.423 21.3206 100.632 21.4163 100.874 21.4756C101.12 21.5348 101.389 21.5645 101.681 21.5645C102.036 21.5645 102.328 21.5143 102.556 21.4141C102.788 21.3138 102.959 21.1748 103.068 20.9971C103.182 20.8193 103.239 20.6188 103.239 20.3955ZM113.363 21.4004V23H108.065V21.4004H113.363ZM108.735 13.0469V23H106.685V13.0469H108.735ZM112.673 17.1006V18.6592H108.065V17.1006H112.673ZM113.356 13.0469V14.6533H108.065V13.0469H113.356ZM120.329 19.6982H122.373C122.332 20.3682 122.147 20.9629 121.819 21.4824C121.496 22.002 121.042 22.4076 120.459 22.6992C119.88 22.9909 119.183 23.1367 118.367 23.1367C117.729 23.1367 117.157 23.0273 116.651 22.8086C116.146 22.5853 115.713 22.2663 115.353 21.8516C114.997 21.4368 114.726 20.9355 114.539 20.3477C114.352 19.7598 114.259 19.1012 114.259 18.3721V17.6816C114.259 16.9525 114.354 16.2939 114.546 15.7061C114.742 15.1136 115.02 14.61 115.38 14.1953C115.744 13.7806 116.18 13.4616 116.686 13.2383C117.191 13.015 117.757 12.9033 118.381 12.9033C119.21 12.9033 119.91 13.0537 120.479 13.3545C121.054 13.6553 121.498 14.07 121.812 14.5986C122.132 15.1273 122.323 15.7288 122.387 16.4033H120.336C120.313 16.0023 120.233 15.6628 120.097 15.3848C119.96 15.1022 119.753 14.8903 119.475 14.749C119.201 14.6032 118.837 14.5303 118.381 14.5303C118.039 14.5303 117.741 14.5941 117.485 14.7217C117.23 14.8493 117.016 15.043 116.843 15.3027C116.67 15.5625 116.54 15.8906 116.453 16.2871C116.371 16.679 116.33 17.1393 116.33 17.668V18.3721C116.33 18.887 116.369 19.3405 116.446 19.7324C116.524 20.1198 116.642 20.4479 116.802 20.7168C116.966 20.9811 117.175 21.1816 117.431 21.3184C117.69 21.4505 118.003 21.5166 118.367 21.5166C118.796 21.5166 119.149 21.4482 119.427 21.3115C119.705 21.1748 119.917 20.972 120.062 20.7031C120.213 20.4342 120.302 20.0993 120.329 19.6982Z" fill="white"/>
<rect x="52" y="10" width="37" height="16" rx="8" fill="white"/>
<path d="M64.793 17.002H65.6953C65.9844 17.002 66.2227 16.9531 66.4102 16.8555C66.5977 16.7539 66.7363 16.6133 66.8262 16.4336C66.9199 16.25 66.9668 16.0371 66.9668 15.7949C66.9668 15.5762 66.9238 15.3828 66.8379 15.2148C66.7559 15.043 66.6289 14.9102 66.457 14.8164C66.2852 14.7188 66.0684 14.6699 65.8066 14.6699C65.5996 14.6699 65.4082 14.7109 65.2324 14.793C65.0566 14.875 64.916 14.9902 64.8105 15.1387C64.7051 15.2871 64.6523 15.4668 64.6523 15.6777H62.959C62.959 15.209 63.084 14.8008 63.334 14.4531C63.5879 14.1055 63.9277 13.834 64.3535 13.6387C64.7793 13.4434 65.248 13.3457 65.7598 13.3457C66.3379 13.3457 66.8438 13.4395 67.2773 13.627C67.7109 13.8105 68.0488 14.082 68.291 14.4414C68.5332 14.8008 68.6543 15.2461 68.6543 15.7773C68.6543 16.0469 68.5918 16.3086 68.4668 16.5625C68.3418 16.8125 68.1621 17.0391 67.9277 17.2422C67.6973 17.4414 67.416 17.6016 67.084 17.7227C66.752 17.8398 66.3789 17.8984 65.9648 17.8984H64.793V17.002ZM64.793 18.2852V17.4121H65.9648C66.4297 17.4121 66.8379 17.4648 67.1895 17.5703C67.541 17.6758 67.8359 17.8281 68.0742 18.0273C68.3125 18.2227 68.4922 18.4551 68.6133 18.7246C68.7344 18.9902 68.7949 19.2852 68.7949 19.6094C68.7949 20.0078 68.7188 20.3633 68.5664 20.6758C68.4141 20.9844 68.1992 21.2461 67.9219 21.4609C67.6484 21.6758 67.3281 21.8398 66.9609 21.9531C66.5938 22.0625 66.1934 22.1172 65.7598 22.1172C65.4004 22.1172 65.0469 22.0684 64.6992 21.9707C64.3555 21.8691 64.043 21.7188 63.7617 21.5195C63.4844 21.3164 63.2617 21.0625 63.0938 20.7578C62.9297 20.4492 62.8477 20.084 62.8477 19.6621H64.541C64.541 19.8809 64.5957 20.0762 64.7051 20.248C64.8145 20.4199 64.9648 20.5547 65.1562 20.6523C65.3516 20.75 65.5684 20.7988 65.8066 20.7988C66.0762 20.7988 66.3066 20.75 66.498 20.6523C66.6934 20.5508 66.8418 20.4102 66.9434 20.2305C67.0488 20.0469 67.1016 19.834 67.1016 19.5918C67.1016 19.2793 67.0449 19.0293 66.9316 18.8418C66.8184 18.6504 66.6562 18.5098 66.4453 18.4199C66.2344 18.3301 65.9844 18.2852 65.6953 18.2852H64.793ZM76.4414 20.248C76.4414 20.127 76.4062 20.0176 76.3359 19.9199C76.2656 19.8223 76.1348 19.7324 75.9434 19.6504C75.7559 19.5645 75.4844 19.4863 75.1289 19.416C74.8086 19.3457 74.5098 19.2578 74.2324 19.1523C73.959 19.043 73.7207 18.9121 73.5176 18.7598C73.3184 18.6074 73.1621 18.4277 73.0488 18.2207C72.9355 18.0098 72.8789 17.7695 72.8789 17.5C72.8789 17.2344 72.9355 16.9844 73.0488 16.75C73.166 16.5156 73.332 16.3086 73.5469 16.1289C73.7656 15.9453 74.0312 15.8027 74.3438 15.7012C74.6602 15.5957 75.0156 15.543 75.4102 15.543C75.9609 15.543 76.4336 15.6309 76.8281 15.8066C77.2266 15.9824 77.5312 16.2246 77.7422 16.5332C77.957 16.8379 78.0645 17.1855 78.0645 17.5762H76.377C76.377 17.4121 76.3418 17.2656 76.2715 17.1367C76.2051 17.0039 76.0996 16.9004 75.9551 16.8262C75.8145 16.748 75.6309 16.709 75.4043 16.709C75.2168 16.709 75.0547 16.7422 74.918 16.8086C74.7812 16.8711 74.6758 16.957 74.6016 17.0664C74.5312 17.1719 74.4961 17.2891 74.4961 17.418C74.4961 17.5156 74.5156 17.6035 74.5547 17.6816C74.5977 17.7559 74.666 17.8242 74.7598 17.8867C74.8535 17.9492 74.9746 18.0078 75.123 18.0625C75.2754 18.1133 75.4629 18.1602 75.6855 18.2031C76.1426 18.2969 76.5508 18.4199 76.9102 18.5723C77.2695 18.7207 77.5547 18.9238 77.7656 19.1816C77.9766 19.4355 78.082 19.7695 78.082 20.1836C78.082 20.4648 78.0195 20.7227 77.8945 20.957C77.7695 21.1914 77.5898 21.3965 77.3555 21.5723C77.1211 21.7441 76.8398 21.8789 76.5117 21.9766C76.1875 22.0703 75.8223 22.1172 75.416 22.1172C74.8262 22.1172 74.3262 22.0117 73.916 21.8008C73.5098 21.5898 73.2012 21.3223 72.9902 20.998C72.7832 20.6699 72.6797 20.334 72.6797 19.9902H74.2793C74.2871 20.2207 74.3457 20.4062 74.4551 20.5469C74.5684 20.6875 74.7109 20.7891 74.8828 20.8516C75.0586 20.9141 75.248 20.9453 75.4512 20.9453C75.6699 20.9453 75.8516 20.916 75.9961 20.8574C76.1406 20.7949 76.25 20.7129 76.3242 20.6113C76.4023 20.5059 76.4414 20.3848 76.4414 20.248Z" fill="#848484"/>
<path d="M14.8184 20.9561C14.8184 20.8148 14.7773 20.6872 14.6953 20.5732C14.6133 20.4593 14.4606 20.3545 14.2373 20.2588C14.0186 20.1585 13.7018 20.0674 13.2871 19.9854C12.9134 19.9033 12.5648 19.8008 12.2412 19.6777C11.9222 19.5501 11.6442 19.3975 11.4072 19.2197C11.1748 19.042 10.9925 18.8324 10.8604 18.5908C10.7282 18.3447 10.6621 18.0645 10.6621 17.75C10.6621 17.4401 10.7282 17.1484 10.8604 16.875C10.9971 16.6016 11.1908 16.36 11.4414 16.1504C11.6966 15.9362 12.0065 15.7699 12.3711 15.6514C12.7402 15.5283 13.1549 15.4668 13.6152 15.4668C14.2578 15.4668 14.8092 15.5693 15.2695 15.7744C15.7344 15.9795 16.0898 16.262 16.3359 16.6221C16.5866 16.9775 16.7119 17.3831 16.7119 17.8389H14.7432C14.7432 17.6475 14.7021 17.4766 14.6201 17.3262C14.5426 17.1712 14.4196 17.0505 14.251 16.9639C14.0869 16.8727 13.8727 16.8271 13.6084 16.8271C13.3896 16.8271 13.2005 16.8659 13.041 16.9434C12.8815 17.0163 12.7585 17.1165 12.6719 17.2441C12.5898 17.3672 12.5488 17.5039 12.5488 17.6543C12.5488 17.7682 12.5716 17.8708 12.6172 17.9619C12.6673 18.0485 12.7471 18.1283 12.8564 18.2012C12.9658 18.2741 13.1071 18.3424 13.2803 18.4062C13.458 18.4655 13.6768 18.5202 13.9365 18.5703C14.4697 18.6797 14.946 18.8232 15.3652 19.001C15.7845 19.1742 16.1172 19.4111 16.3633 19.7119C16.6094 20.0081 16.7324 20.3978 16.7324 20.8809C16.7324 21.209 16.6595 21.5098 16.5137 21.7832C16.3678 22.0566 16.1582 22.2959 15.8848 22.501C15.6113 22.7015 15.2832 22.8587 14.9004 22.9727C14.5221 23.082 14.096 23.1367 13.6221 23.1367C12.9339 23.1367 12.3506 23.0137 11.8721 22.7676C11.3981 22.5215 11.0381 22.2093 10.792 21.8311C10.5505 21.4482 10.4297 21.0563 10.4297 20.6553H12.2959C12.305 20.9242 12.3734 21.1406 12.501 21.3047C12.6331 21.4688 12.7995 21.5872 13 21.6602C13.2051 21.7331 13.4261 21.7695 13.6631 21.7695C13.9183 21.7695 14.1302 21.7354 14.2988 21.667C14.4674 21.5941 14.5951 21.4984 14.6816 21.3799C14.7728 21.2568 14.8184 21.1156 14.8184 20.9561ZM20.0889 12.5V23H18.1133V12.5H20.0889ZM25.1201 23.1367C24.5459 23.1367 24.0309 23.0456 23.5752 22.8633C23.1195 22.6764 22.7321 22.4189 22.4131 22.0908C22.0986 21.7627 21.8571 21.3822 21.6885 20.9492C21.5199 20.5117 21.4355 20.0469 21.4355 19.5547V19.2812C21.4355 18.7207 21.5153 18.208 21.6748 17.7432C21.8343 17.2783 22.0622 16.875 22.3584 16.5332C22.6592 16.1914 23.0238 15.9294 23.4521 15.7471C23.8805 15.5602 24.3636 15.4668 24.9014 15.4668C25.4255 15.4668 25.8903 15.5534 26.2959 15.7266C26.7015 15.8997 27.041 16.1458 27.3145 16.4648C27.5924 16.7839 27.8021 17.1667 27.9434 17.6133C28.0846 18.0553 28.1553 18.5475 28.1553 19.0898V19.9102H22.2764V18.5977H26.2207V18.4473C26.2207 18.1738 26.1706 17.93 26.0703 17.7158C25.9746 17.4971 25.8288 17.3239 25.6328 17.1963C25.4368 17.0687 25.1862 17.0049 24.8809 17.0049C24.6211 17.0049 24.3978 17.0618 24.2109 17.1758C24.0241 17.2897 23.8714 17.4492 23.7529 17.6543C23.639 17.8594 23.5524 18.1009 23.4932 18.3789C23.4385 18.6523 23.4111 18.9531 23.4111 19.2812V19.5547C23.4111 19.8509 23.4521 20.1243 23.5342 20.375C23.6208 20.6257 23.7415 20.8421 23.8965 21.0244C24.056 21.2067 24.2474 21.348 24.4707 21.4482C24.6986 21.5485 24.9561 21.5986 25.2432 21.5986C25.5986 21.5986 25.929 21.5303 26.2344 21.3936C26.5443 21.2523 26.8109 21.0404 27.0342 20.7578L27.9912 21.7969C27.8363 22.0202 27.6243 22.2344 27.3555 22.4395C27.0911 22.6445 26.7721 22.8132 26.3984 22.9453C26.0247 23.0729 25.5986 23.1367 25.1201 23.1367ZM32.6807 23.1367C32.1064 23.1367 31.5915 23.0456 31.1357 22.8633C30.68 22.6764 30.2926 22.4189 29.9736 22.0908C29.6592 21.7627 29.4176 21.3822 29.249 20.9492C29.0804 20.5117 28.9961 20.0469 28.9961 19.5547V19.2812C28.9961 18.7207 29.0758 18.208 29.2354 17.7432C29.3949 17.2783 29.6227 16.875 29.9189 16.5332C30.2197 16.1914 30.5843 15.9294 31.0127 15.7471C31.4411 15.5602 31.9242 15.4668 32.4619 15.4668C32.986 15.4668 33.4508 15.5534 33.8564 15.7266C34.262 15.8997 34.6016 16.1458 34.875 16.4648C35.153 16.7839 35.3626 17.1667 35.5039 17.6133C35.6452 18.0553 35.7158 18.5475 35.7158 19.0898V19.9102H29.8369V18.5977H33.7812V18.4473C33.7812 18.1738 33.7311 17.93 33.6309 17.7158C33.5352 17.4971 33.3893 17.3239 33.1934 17.1963C32.9974 17.0687 32.7467 17.0049 32.4414 17.0049C32.1816 17.0049 31.9583 17.0618 31.7715 17.1758C31.5846 17.2897 31.432 17.4492 31.3135 17.6543C31.1995 17.8594 31.113 18.1009 31.0537 18.3789C30.999 18.6523 30.9717 18.9531 30.9717 19.2812V19.5547C30.9717 19.8509 31.0127 20.1243 31.0947 20.375C31.1813 20.6257 31.3021 20.8421 31.457 21.0244C31.6165 21.2067 31.8079 21.348 32.0312 21.4482C32.2591 21.5485 32.5166 21.5986 32.8037 21.5986C33.1592 21.5986 33.4896 21.5303 33.7949 21.3936C34.1048 21.2523 34.3714 21.0404 34.5947 20.7578L35.5518 21.7969C35.3968 22.0202 35.1849 22.2344 34.916 22.4395C34.6517 22.6445 34.3327 22.8132 33.959 22.9453C33.5853 23.0729 33.1592 23.1367 32.6807 23.1367ZM38.8057 17.0254V25.8438H36.8369V15.6035H38.6621L38.8057 17.0254ZM43.4883 19.2197V19.3633C43.4883 19.901 43.4245 20.4001 43.2969 20.8604C43.1738 21.3206 42.9915 21.7217 42.75 22.0635C42.5085 22.4007 42.2077 22.665 41.8477 22.8564C41.4922 23.0433 41.082 23.1367 40.6172 23.1367C40.166 23.1367 39.7741 23.0456 39.4414 22.8633C39.1087 22.681 38.8285 22.4258 38.6006 22.0977C38.3773 21.765 38.1973 21.3799 38.0605 20.9424C37.9238 20.5049 37.819 20.0355 37.7461 19.5342V19.1582C37.819 18.6204 37.9238 18.1283 38.0605 17.6816C38.1973 17.2305 38.3773 16.8408 38.6006 16.5127C38.8285 16.18 39.1064 15.9225 39.4346 15.7402C39.7673 15.5579 40.1569 15.4668 40.6035 15.4668C41.0729 15.4668 41.4854 15.5557 41.8408 15.7334C42.2008 15.9111 42.5016 16.1663 42.7432 16.499C42.9893 16.8317 43.1738 17.2282 43.2969 17.6885C43.4245 18.1488 43.4883 18.6592 43.4883 19.2197ZM41.5127 19.3633V19.2197C41.5127 18.9053 41.4854 18.6159 41.4307 18.3516C41.3805 18.0827 41.2985 17.848 41.1846 17.6475C41.0752 17.4469 40.9294 17.292 40.7471 17.1826C40.5693 17.0687 40.3529 17.0117 40.0977 17.0117C39.8288 17.0117 39.5986 17.055 39.4072 17.1416C39.2204 17.2282 39.0677 17.3535 38.9492 17.5176C38.8307 17.6816 38.7419 17.8776 38.6826 18.1055C38.6234 18.3333 38.5869 18.5908 38.5732 18.8779V19.8281C38.596 20.1654 38.6598 20.4684 38.7646 20.7373C38.8695 21.0016 39.0312 21.2113 39.25 21.3662C39.4688 21.5212 39.7559 21.5986 40.1113 21.5986C40.3711 21.5986 40.5898 21.5417 40.7676 21.4277C40.9453 21.3092 41.0889 21.1475 41.1982 20.9424C41.3122 20.7373 41.3919 20.5003 41.4375 20.2314C41.4876 19.9626 41.5127 19.6732 41.5127 19.3633Z" fill="white"/>
</svg>
