<svg width="144" height="43" viewBox="0 0 144 43" fill="none" xmlns="http://www.w3.org/2000/svg">
<path d="M0 6C0 2.68629 2.68629 0 6 0H15.8372C17.2536 0 18.6447 0.376067 19.8682 1.08977L28.1318 5.91023C29.3553 6.62393 30.7464 7 32.1628 7H47.8372C49.2536 7 50.6447 6.62393 51.8682 5.91023L60.1318 1.08977C61.3553 0.376066 62.7464 0 64.1628 0H137.5C140.814 0 143.5 2.68629 143.5 6V30C143.5 33.3137 140.814 36 137.5 36H64.1628C62.7464 36 61.3553 36.3761 60.1318 37.0898L51.8682 41.9102C50.6447 42.6239 49.2536 43 47.8372 43H32.1628C30.7464 43 29.3553 42.6239 28.1318 41.9102L19.8682 37.0898C18.6447 36.3761 17.2536 36 15.8372 36H6C2.68629 36 0 33.3137 0 30V6Z" fill="#ED4A0F"/>
<path d="M75.5234 13.0469V23H73.4795V13.0469H75.5234ZM78.5859 13.0469V14.6533H70.4648V13.0469H78.5859ZM83.0635 14.749L80.3564 23H78.1758L81.874 13.0469H83.2617L83.0635 14.749ZM85.3125 23L82.5986 14.749L82.3799 13.0469H83.7812L87.5 23H85.3125ZM85.1895 19.2949V20.9014H79.9326V19.2949H85.1895ZM90.4736 13.0469V23H88.4229V13.0469H90.4736ZM96.4346 13.0469L92.4902 17.9619L90.2139 20.4092L89.8447 18.4678L91.3828 16.3623L93.9189 13.0469H96.4346ZM94.1035 23L91.1709 18.3994L92.6885 17.1279L96.5303 23H94.1035ZM104.002 21.4004V23H98.7041V21.4004H104.002ZM99.374 13.0469V23H97.3232V13.0469H99.374ZM103.312 17.1006V18.6592H98.7041V17.1006H103.312ZM103.995 13.0469V14.6533H98.7041V13.0469H103.995ZM116.86 17.791V18.2627C116.86 19.0192 116.758 19.6982 116.553 20.2998C116.348 20.9014 116.058 21.4141 115.685 21.8379C115.311 22.2572 114.864 22.5785 114.345 22.8018C113.83 23.0251 113.258 23.1367 112.629 23.1367C112.005 23.1367 111.433 23.0251 110.913 22.8018C110.398 22.5785 109.951 22.2572 109.573 21.8379C109.195 21.4141 108.901 20.9014 108.691 20.2998C108.486 19.6982 108.384 19.0192 108.384 18.2627V17.791C108.384 17.0299 108.486 16.3509 108.691 15.7539C108.896 15.1523 109.186 14.6396 109.56 14.2158C109.938 13.792 110.384 13.4684 110.899 13.2451C111.419 13.0218 111.991 12.9102 112.615 12.9102C113.244 12.9102 113.816 13.0218 114.331 13.2451C114.851 13.4684 115.297 13.792 115.671 14.2158C116.049 14.6396 116.341 15.1523 116.546 15.7539C116.756 16.3509 116.86 17.0299 116.86 17.791ZM114.789 18.2627V17.7773C114.789 17.2487 114.741 16.7839 114.646 16.3828C114.55 15.9818 114.409 15.6445 114.222 15.3711C114.035 15.0977 113.807 14.8926 113.538 14.7559C113.269 14.6146 112.962 14.5439 112.615 14.5439C112.269 14.5439 111.961 14.6146 111.692 14.7559C111.428 14.8926 111.202 15.0977 111.016 15.3711C110.833 15.6445 110.694 15.9818 110.599 16.3828C110.503 16.7839 110.455 17.2487 110.455 17.7773V18.2627C110.455 18.7868 110.503 19.2516 110.599 19.6572C110.694 20.0583 110.836 20.3978 111.022 20.6758C111.209 20.9492 111.437 21.1566 111.706 21.2979C111.975 21.4391 112.283 21.5098 112.629 21.5098C112.975 21.5098 113.283 21.4391 113.552 21.2979C113.821 21.1566 114.046 20.9492 114.229 20.6758C114.411 20.3978 114.55 20.0583 114.646 19.6572C114.741 19.2516 114.789 18.7868 114.789 18.2627ZM120.388 13.0469V23H118.337V13.0469H120.388ZM124.353 17.2988V18.8984H119.827V17.2988H124.353ZM124.831 13.0469V14.6533H119.827V13.0469H124.831ZM128.071 13.0469V23H126.021V13.0469H128.071ZM132.036 17.2988V18.8984H127.511V17.2988H132.036ZM132.515 13.0469V14.6533H127.511V13.0469H132.515Z" fill="white"/>
</svg>
