<svg width="146" height="43" viewBox="0 0 146 43" fill="none" xmlns="http://www.w3.org/2000/svg">
<path d="M0 6C0 2.68629 2.68629 0 6 0H15.8372C17.2536 0 18.6447 0.376067 19.8682 1.08977L28.1318 5.91023C29.3553 6.62393 30.7464 7 32.1628 7H47.8372C49.2536 7 50.6447 6.62393 51.8682 5.91023L60.1318 1.08977C61.3553 0.376066 62.7464 0 64.1628 0H140C143.314 0 146 2.68629 146 6V30C146 33.3137 143.314 36 140 36H64.1628C62.7464 36 61.3553 36.3761 60.1318 37.0898L51.8682 41.9102C50.6447 42.6239 49.2536 43 47.8372 43H32.1628C30.7464 43 29.3553 42.6239 28.1318 41.9102L19.8682 37.0898C18.6447 36.3761 17.2536 36 15.8372 36H6C2.68629 36 0 33.3137 0 30V6Z" fill="#4D97FF"/>
<path d="M96.9014 13.0469H100.613C101.374 13.0469 102.028 13.1608 102.575 13.3887C103.127 13.6165 103.55 13.9538 103.847 14.4004C104.143 14.847 104.291 15.3962 104.291 16.0479C104.291 16.5811 104.2 17.0391 104.018 17.4219C103.84 17.8001 103.587 18.1169 103.259 18.3721C102.935 18.6227 102.555 18.8232 102.117 18.9736L101.468 19.3154H98.2412L98.2275 17.7158H100.627C100.987 17.7158 101.285 17.652 101.522 17.5244C101.759 17.3968 101.937 17.2191 102.056 16.9912C102.179 16.7633 102.24 16.499 102.24 16.1982C102.24 15.8792 102.181 15.6035 102.062 15.3711C101.944 15.1387 101.764 14.9609 101.522 14.8379C101.281 14.7148 100.978 14.6533 100.613 14.6533H98.9521V23H96.9014V13.0469ZM102.466 23L100.196 18.5635L102.363 18.5498L104.66 22.9043V23H102.466ZM108.051 13.0469V23H106.007V13.0469H108.051ZM117.86 17.7979V21.7422C117.705 21.929 117.466 22.1318 117.143 22.3506C116.819 22.5648 116.402 22.7493 115.892 22.9043C115.381 23.0592 114.764 23.1367 114.039 23.1367C113.396 23.1367 112.811 23.0319 112.282 22.8223C111.754 22.6081 111.298 22.2959 110.915 21.8857C110.537 21.4756 110.245 20.9743 110.04 20.3818C109.835 19.7848 109.732 19.1035 109.732 18.3379V17.7158C109.732 16.9502 109.83 16.2689 110.026 15.6719C110.227 15.0749 110.512 14.5713 110.881 14.1611C111.25 13.751 111.69 13.4388 112.2 13.2246C112.711 13.0104 113.278 12.9033 113.902 12.9033C114.768 12.9033 115.479 13.0446 116.035 13.3271C116.591 13.6051 117.015 13.9925 117.307 14.4893C117.603 14.9814 117.785 15.5465 117.854 16.1846H115.864C115.814 15.8473 115.718 15.5534 115.577 15.3027C115.436 15.0521 115.233 14.8561 114.969 14.7148C114.709 14.5736 114.372 14.5029 113.957 14.5029C113.615 14.5029 113.31 14.5736 113.041 14.7148C112.777 14.8516 112.553 15.0544 112.371 15.3232C112.189 15.5921 112.05 15.9248 111.954 16.3213C111.858 16.7178 111.811 17.1781 111.811 17.7021V18.3379C111.811 18.8574 111.861 19.3177 111.961 19.7188C112.061 20.1152 112.209 20.4502 112.405 20.7236C112.606 20.9925 112.852 21.1953 113.144 21.332C113.435 21.4688 113.775 21.5371 114.162 21.5371C114.486 21.5371 114.755 21.5098 114.969 21.4551C115.188 21.4004 115.363 21.3343 115.495 21.2568C115.632 21.1748 115.737 21.0973 115.81 21.0244V19.2607H113.937V17.7979H117.86ZM126.152 17.1006V18.7002H120.957V17.1006H126.152ZM121.565 13.0469V23H119.515V13.0469H121.565ZM127.615 13.0469V23H125.571V13.0469H127.615ZM133.645 13.0469V23H131.601V13.0469H133.645ZM136.707 13.0469V14.6533H128.586V13.0469H136.707Z" fill="white"/>
<rect x="52" y="10" width="37" height="16" rx="8" fill="white"/>
<path d="M57.6855 18.1152L56.3379 17.793L56.8242 13.4688H61.6172V14.834H58.2129L58.002 16.7266C58.1152 16.6602 58.2871 16.5898 58.5176 16.5156C58.748 16.4375 59.0059 16.3984 59.291 16.3984C59.7051 16.3984 60.0723 16.4629 60.3926 16.5918C60.7129 16.7207 60.9844 16.9082 61.207 17.1543C61.4336 17.4004 61.6055 17.7012 61.7227 18.0566C61.8398 18.4121 61.8984 18.8145 61.8984 19.2637C61.8984 19.6426 61.8398 20.0039 61.7227 20.3477C61.6055 20.6875 61.4277 20.9922 61.1895 21.2617C60.9512 21.5273 60.6523 21.7363 60.293 21.8887C59.9336 22.041 59.5078 22.1172 59.0156 22.1172C58.6484 22.1172 58.293 22.0625 57.9492 21.9531C57.6094 21.8438 57.3027 21.6816 57.0293 21.4668C56.7598 21.252 56.543 20.9922 56.3789 20.6875C56.2188 20.3789 56.1348 20.0273 56.127 19.6328H57.8027C57.8262 19.875 57.8887 20.084 57.9902 20.2598C58.0957 20.4316 58.2344 20.5645 58.4062 20.6582C58.5781 20.752 58.7793 20.7988 59.0098 20.7988C59.2246 20.7988 59.4082 20.7578 59.5605 20.6758C59.7129 20.5938 59.8359 20.4805 59.9297 20.3359C60.0234 20.1875 60.0918 20.0156 60.1348 19.8203C60.1816 19.6211 60.2051 19.4062 60.2051 19.1758C60.2051 18.9453 60.1777 18.7363 60.123 18.5488C60.0684 18.3613 59.9844 18.1992 59.8711 18.0625C59.7578 17.9258 59.6133 17.8203 59.4375 17.7461C59.2656 17.6719 59.0645 17.6348 58.834 17.6348C58.5215 17.6348 58.2793 17.6836 58.1074 17.7812C57.9395 17.8789 57.7988 17.9902 57.6855 18.1152ZM69.791 20.6172V13H71.4902V22H69.9609L69.791 20.6172ZM65.7832 18.9062V18.7832C65.7832 18.2988 65.8379 17.8594 65.9473 17.4648C66.0566 17.0664 66.2168 16.7246 66.4277 16.4395C66.6387 16.1543 66.8984 15.9336 67.207 15.7773C67.5156 15.6211 67.8672 15.543 68.2617 15.543C68.6328 15.543 68.957 15.6211 69.2344 15.7773C69.5156 15.9336 69.7539 16.1562 69.9492 16.4453C70.1484 16.7305 70.3086 17.0684 70.4297 17.459C70.5508 17.8457 70.6387 18.2695 70.6934 18.7305V19C70.6387 19.4414 70.5508 19.8516 70.4297 20.2305C70.3086 20.6094 70.1484 20.9414 69.9492 21.2266C69.7539 21.5078 69.5156 21.7266 69.2344 21.8828C68.9531 22.0391 68.625 22.1172 68.25 22.1172C67.8555 22.1172 67.5039 22.0371 67.1953 21.877C66.8906 21.7168 66.6328 21.4922 66.4219 21.2031C66.2148 20.9141 66.0566 20.5742 65.9473 20.1836C65.8379 19.793 65.7832 19.3672 65.7832 18.9062ZM67.4707 18.7832V18.9062C67.4707 19.168 67.4902 19.4121 67.5293 19.6387C67.5723 19.8652 67.6406 20.0664 67.7344 20.2422C67.832 20.4141 67.957 20.5488 68.1094 20.6465C68.2656 20.7402 68.4551 20.7871 68.6777 20.7871C68.9668 20.7871 69.2051 20.7227 69.3926 20.5938C69.5801 20.4609 69.7227 20.2793 69.8203 20.0488C69.9219 19.8184 69.9805 19.5527 69.9961 19.252V18.4844C69.9844 18.2383 69.9492 18.0176 69.8906 17.8223C69.8359 17.623 69.7539 17.4531 69.6445 17.3125C69.5391 17.1719 69.4062 17.0625 69.2461 16.9844C69.0898 16.9062 68.9043 16.8672 68.6895 16.8672C68.4707 16.8672 68.2832 16.918 68.127 17.0195C67.9707 17.1172 67.8438 17.252 67.7461 17.4238C67.6523 17.5957 67.582 17.7988 67.5352 18.0332C67.4922 18.2637 67.4707 18.5137 67.4707 18.7832ZM75.7266 22.1172C75.2344 22.1172 74.793 22.0391 74.4023 21.8828C74.0117 21.7227 73.6797 21.502 73.4062 21.2207C73.1367 20.9395 72.9297 20.6133 72.7852 20.2422C72.6406 19.8672 72.5684 19.4688 72.5684 19.0469V18.8125C72.5684 18.332 72.6367 17.8926 72.7734 17.4941C72.9102 17.0957 73.1055 16.75 73.3594 16.457C73.6172 16.1641 73.9297 15.9395 74.2969 15.7832C74.6641 15.623 75.0781 15.543 75.5391 15.543C75.9883 15.543 76.3867 15.6172 76.7344 15.7656C77.082 15.9141 77.373 16.125 77.6074 16.3984C77.8457 16.6719 78.0254 17 78.1465 17.3828C78.2676 17.7617 78.3281 18.1836 78.3281 18.6484V19.3516H73.2891V18.2266H76.6699V18.0977C76.6699 17.8633 76.627 17.6543 76.541 17.4707C76.459 17.2832 76.334 17.1348 76.166 17.0254C75.998 16.916 75.7832 16.8613 75.5215 16.8613C75.2988 16.8613 75.1074 16.9102 74.9473 17.0078C74.7871 17.1055 74.6562 17.2422 74.5547 17.418C74.457 17.5938 74.3828 17.8008 74.332 18.0391C74.2852 18.2734 74.2617 18.5312 74.2617 18.8125V19.0469C74.2617 19.3008 74.2969 19.5352 74.3672 19.75C74.4414 19.9648 74.5449 20.1504 74.6777 20.3066C74.8145 20.4629 74.9785 20.584 75.1699 20.6699C75.3652 20.7559 75.5859 20.7988 75.832 20.7988C76.1367 20.7988 76.4199 20.7402 76.6816 20.623C76.9473 20.502 77.1758 20.3203 77.3672 20.0781L78.1875 20.9688C78.0547 21.1602 77.873 21.3438 77.6426 21.5195C77.416 21.6953 77.1426 21.8398 76.8223 21.9531C76.502 22.0625 76.1367 22.1172 75.7266 22.1172ZM83.3027 15.6602H84.832V21.7891C84.832 22.3672 84.7031 22.8574 84.4453 23.2598C84.1914 23.666 83.8359 23.9727 83.3789 24.1797C82.9219 24.3906 82.3906 24.4961 81.7852 24.4961C81.5195 24.4961 81.2383 24.4609 80.9414 24.3906C80.6484 24.3203 80.3672 24.2109 80.0977 24.0625C79.832 23.9141 79.6094 23.7266 79.4297 23.5L80.1738 22.5039C80.3691 22.7305 80.5957 22.9062 80.8535 23.0312C81.1113 23.1602 81.3965 23.2246 81.709 23.2246C82.0137 23.2246 82.2715 23.168 82.4824 23.0547C82.6934 22.9453 82.8555 22.7832 82.9688 22.5684C83.082 22.3574 83.1387 22.1016 83.1387 21.8008V17.125L83.3027 15.6602ZM79.0371 18.9062V18.7832C79.0371 18.2988 79.0957 17.8594 79.2129 17.4648C79.334 17.0664 79.5039 16.7246 79.7227 16.4395C79.9453 16.1543 80.2148 15.9336 80.5312 15.7773C80.8477 15.6211 81.2051 15.543 81.6035 15.543C82.0254 15.543 82.3789 15.6211 82.6641 15.7773C82.9492 15.9336 83.1836 16.1562 83.3672 16.4453C83.5508 16.7305 83.6934 17.0684 83.7949 17.459C83.9004 17.8457 83.9824 18.2695 84.041 18.7305V19C83.9824 19.4414 83.8945 19.8516 83.7773 20.2305C83.6602 20.6094 83.5059 20.9414 83.3145 21.2266C83.123 21.5078 82.8848 21.7266 82.5996 21.8828C82.3184 22.0391 81.9824 22.1172 81.5918 22.1172C81.2012 22.1172 80.8477 22.0371 80.5312 21.877C80.2188 21.7168 79.9512 21.4922 79.7285 21.2031C79.5059 20.9141 79.334 20.5742 79.2129 20.1836C79.0957 19.793 79.0371 19.3672 79.0371 18.9062ZM80.7246 18.7832V18.9062C80.7246 19.168 80.75 19.4121 80.8008 19.6387C80.8516 19.8652 80.9297 20.0664 81.0352 20.2422C81.1445 20.4141 81.2793 20.5488 81.4395 20.6465C81.6035 20.7402 81.7969 20.7871 82.0195 20.7871C82.3281 20.7871 82.5801 20.7227 82.7754 20.5938C82.9707 20.4609 83.1172 20.2793 83.2148 20.0488C83.3125 19.8184 83.3691 19.5527 83.3848 19.252V18.4844C83.377 18.2383 83.3438 18.0176 83.2852 17.8223C83.2266 17.623 83.1445 17.4531 83.0391 17.3125C82.9336 17.1719 82.7969 17.0625 82.6289 16.9844C82.4609 16.9062 82.2617 16.8672 82.0312 16.8672C81.8086 16.8672 81.6152 16.918 81.4512 17.0195C81.291 17.1172 81.1562 17.252 81.0469 17.4238C80.9414 17.5957 80.8613 17.7988 80.8066 18.0332C80.752 18.2637 80.7246 18.5137 80.7246 18.7832Z" fill="#848484"/>
<path d="M18.6055 15.6035V16.998H14.2988V15.6035H18.6055ZM15.3652 13.7783H17.334V20.7715C17.334 20.9857 17.3613 21.1497 17.416 21.2637C17.4753 21.3776 17.5618 21.4574 17.6758 21.5029C17.7897 21.5439 17.9333 21.5645 18.1064 21.5645C18.2295 21.5645 18.3389 21.5599 18.4346 21.5508C18.5348 21.5371 18.6191 21.5234 18.6875 21.5098L18.6943 22.959C18.5257 23.0137 18.3434 23.057 18.1475 23.0889C17.9515 23.1208 17.735 23.1367 17.498 23.1367C17.0651 23.1367 16.6868 23.0661 16.3633 22.9248C16.0443 22.779 15.7982 22.5465 15.625 22.2275C15.4518 21.9085 15.3652 21.4893 15.3652 20.9697V13.7783ZM24.1016 21.2295V15.6035H26.0703V23H24.2178L24.1016 21.2295ZM24.3203 19.7119L24.9014 19.6982C24.9014 20.1904 24.8444 20.6484 24.7305 21.0723C24.6165 21.4915 24.4456 21.8561 24.2178 22.166C23.9899 22.4714 23.7028 22.7106 23.3564 22.8838C23.0101 23.0524 22.6022 23.1367 22.1328 23.1367C21.7728 23.1367 21.4401 23.0866 21.1348 22.9863C20.834 22.8815 20.5742 22.7197 20.3555 22.501C20.1413 22.2777 19.9727 21.9928 19.8496 21.6465C19.7311 21.2956 19.6719 20.874 19.6719 20.3818V15.6035H21.6406V20.3955C21.6406 20.6143 21.6657 20.7988 21.7158 20.9492C21.7705 21.0996 21.8457 21.2227 21.9414 21.3184C22.0371 21.4141 22.1488 21.4824 22.2764 21.5234C22.4085 21.5645 22.5544 21.585 22.7139 21.585C23.1195 21.585 23.4385 21.5029 23.6709 21.3389C23.9079 21.1748 24.0742 20.9515 24.1699 20.6689C24.2702 20.3818 24.3203 20.0628 24.3203 19.7119ZM29.543 17.2168V23H27.5742V15.6035H29.4268L29.543 17.2168ZM31.7715 15.5557L31.7373 17.3809C31.6416 17.3672 31.5254 17.3558 31.3887 17.3467C31.2565 17.333 31.1357 17.3262 31.0264 17.3262C30.7484 17.3262 30.5068 17.3626 30.3018 17.4355C30.1012 17.5039 29.9326 17.6064 29.7959 17.7432C29.6637 17.8799 29.5635 18.0462 29.4951 18.2422C29.4313 18.4382 29.3949 18.6615 29.3857 18.9121L28.9893 18.7891C28.9893 18.3105 29.0371 17.8708 29.1328 17.4697C29.2285 17.0641 29.3675 16.7109 29.5498 16.4102C29.7367 16.1094 29.9645 15.877 30.2334 15.7129C30.5023 15.5488 30.8099 15.4668 31.1562 15.4668C31.2656 15.4668 31.3773 15.4759 31.4912 15.4941C31.6051 15.5078 31.6986 15.5283 31.7715 15.5557ZM34.6289 17.1826V23H32.6602V15.6035H34.5059L34.6289 17.1826ZM34.3418 19.042H33.8086C33.8086 18.4951 33.8792 18.0029 34.0205 17.5654C34.1618 17.1234 34.36 16.7474 34.6152 16.4375C34.8704 16.123 35.1735 15.8838 35.5244 15.7197C35.8799 15.5511 36.2764 15.4668 36.7139 15.4668C37.0602 15.4668 37.377 15.5169 37.6641 15.6172C37.9512 15.7174 38.1973 15.877 38.4023 16.0957C38.612 16.3145 38.7715 16.6038 38.8809 16.9639C38.9948 17.3239 39.0518 17.7637 39.0518 18.2832V23H37.0693V18.2764C37.0693 17.9482 37.0238 17.693 36.9326 17.5107C36.8415 17.3285 36.707 17.2008 36.5293 17.1279C36.3561 17.0505 36.1419 17.0117 35.8867 17.0117C35.6224 17.0117 35.3923 17.0641 35.1963 17.1689C35.0049 17.2738 34.8454 17.4196 34.7178 17.6064C34.5947 17.7887 34.5013 18.0029 34.4375 18.249C34.3737 18.4951 34.3418 18.7594 34.3418 19.042Z" fill="white"/>
</svg>
